<svg width="18" height="18" viewBox="0 0 18 18" fill="none" xmlns="http://www.w3.org/2000/svg">
<path fill-rule="evenodd" clip-rule="evenodd" d="M8 3.5625C5.54924 3.5625 3.5625 5.54924 3.5625 8C3.5625 10.4508 5.54924 12.4375 8 12.4375C10.4508 12.4375 12.4375 10.4508 12.4375 8C12.4375 5.54924 10.4508 3.5625 8 3.5625ZM2.4375 8C2.4375 4.92792 4.92792 2.4375 8 2.4375C11.0721 2.4375 13.5625 4.92792 13.5625 8C13.5625 11.0721 11.0721 13.5625 8 13.5625C4.92792 13.5625 2.4375 11.0721 2.4375 8Z" fill="#4D555D"/>
<path fill-rule="evenodd" clip-rule="evenodd" d="M11.2702 11.2688C11.4899 11.0491 11.846 11.0491 12.0657 11.2688L15.399 14.6021C15.6187 14.8218 15.6187 15.1779 15.399 15.3976C15.1794 15.6173 14.8232 15.6173 14.6036 15.3976L11.2702 12.0643C11.0506 11.8446 11.0506 11.4884 11.2702 11.2688Z" fill="#4D555D"/>
<path fill-rule="evenodd" clip-rule="evenodd" d="M12.3668 10.4385C12.6769 10.457 12.9134 10.7233 12.8949 11.0334C12.8652 11.5325 12.7653 12.0163 12.4076 12.3706C12.0604 12.7145 11.5735 12.8309 11.0672 12.8918C10.7588 12.9289 10.4787 12.7089 10.4416 12.4005C10.4045 12.0921 10.6245 11.812 10.9329 11.7749C11.402 11.7185 11.5541 11.6326 11.6159 11.5714C11.6672 11.5205 11.7463 11.3963 11.7719 10.9666C11.7903 10.6565 12.0567 10.4201 12.3668 10.4385Z" fill="#4D555D"/>
</svg>
