<svg width="47" height="19" viewBox="0 0 47 19" fill="none" xmlns="http://www.w3.org/2000/svg">
<g clip-path="url(#clip0_294_2613)">
<path d="M2.64613 6.04609C2.56469 6.17949 2.4234 6.35672 2.29487 6.36938C1.07043 6.49012 0.353206 7.18149 0 8.30618V12.2869C0.0319315 12.3221 0.0583919 12.3618 0.0784951 12.4047C0.409136 13.4593 1.11751 14.0436 2.23698 14.1575C2.37434 14.1721 2.53918 14.3172 2.61571 14.4496C2.91495 14.9521 3.30248 15.3319 3.85388 15.5305C4.20905 11.951 4.55931 8.40843 4.91448 4.82889C3.87547 4.84057 3.15043 5.23008 2.64613 6.04609Z" fill="white"/>
<path d="M29.946 9.09006C29.7554 8.93488 29.5133 8.85572 29.2671 8.86804C29.0173 8.85716 28.7724 8.9391 28.5803 9.09785C28.4946 9.16921 28.4261 9.25876 28.3799 9.35988C28.3338 9.46099 28.311 9.57111 28.3134 9.6821C28.31 9.79249 28.3315 9.90224 28.3763 10.0033C28.4211 10.1044 28.4881 10.1943 28.5724 10.2664C28.7715 10.4261 29.0233 10.5066 29.2788 10.4923C29.5194 10.5028 29.7555 10.4252 29.9421 10.2742C30.0269 10.201 30.0939 10.1097 30.1381 10.0072C30.1823 9.90465 30.2025 9.7935 30.1972 9.6821C30.202 9.57112 30.1821 9.46046 30.1386 9.35808C30.0952 9.2557 30.0294 9.16416 29.946 9.09006Z" fill="white"/>
<path d="M34.2522 6.86501C34.0949 6.86167 33.9396 6.89952 33.8018 6.97474C33.664 7.04996 33.5486 7.15989 33.4673 7.29347C33.2769 7.57975 33.1814 8.02151 33.1808 8.61875C33.1801 9.21599 33.2756 9.65744 33.4673 9.94307C33.5485 10.0768 33.6638 10.1868 33.8017 10.2621C33.9395 10.3373 34.0949 10.3751 34.2522 10.3715C34.4094 10.3746 34.5646 10.3366 34.7023 10.2614C34.8401 10.1862 34.9555 10.0764 35.0371 9.94307C35.2281 9.65809 35.3236 9.21664 35.3236 8.61875C35.3236 8.02087 35.2281 7.5791 35.0371 7.29347C34.9554 7.16023 34.8399 7.05057 34.7022 6.9754C34.5645 6.90022 34.4093 6.86216 34.2522 6.86501Z" fill="white"/>
<path d="M20.0337 7.16491C19.8374 7.00132 19.5467 6.91953 19.1614 6.91953H18.1254V8.82128H19.1614C19.5441 8.82128 19.8345 8.73754 20.0337 8.572C20.1331 8.48474 20.2113 8.37621 20.2623 8.25458C20.3132 8.13296 20.3357 8.00142 20.328 7.86992C20.3364 7.7379 20.3142 7.60573 20.2632 7.48353C20.2122 7.36133 20.1337 7.25234 20.0337 7.16491Z" fill="white"/>
<path d="M40.4333 3.96417C40.2106 1.3506 38.2523 -0.0282462 36.0692 0.00583539C31.8779 0.0759461 27.6855 0.0262865 23.4931 0.0262865C19.2847 0.0262865 15.0763 0.0262865 10.8679 0.0262865C10.4933 0.014472 10.1184 0.0415616 9.74947 0.10711C7.85491 0.510247 6.75211 1.95725 6.55294 4.11121C6.23702 7.54079 5.89135 10.9668 5.51591 14.3893C5.23628 16.9006 7.01507 18.9659 9.5611 18.9844C11.6166 18.9951 13.672 19.0117 15.7275 18.9844C18.1293 18.9474 20.0258 17.9279 21.3739 15.9492C22.5611 14.2071 24.434 14.2091 25.6212 15.9492C26.9575 17.9113 28.8393 18.9348 31.2215 18.9786C33.3084 19.0175 35.3972 19.001 37.485 18.9844C39.931 18.9649 41.7333 16.9395 41.487 14.5304C41.1289 11.0064 40.7365 7.48626 40.4333 3.96417ZM14.0174 11.3511H12.7655L10.3941 5.89806H11.7677L13.4356 9.7931L15.132 5.89806H16.3956L14.0174 11.3511ZM20.3535 11.3511L19.2929 9.83108H18.1234V11.3511H16.8479V5.89806H19.2272C19.6626 5.88748 20.0952 5.96984 20.4958 6.13955C20.8328 6.2819 21.1206 6.5188 21.3238 6.82119C21.524 7.13541 21.6264 7.5012 21.6182 7.87285C21.6283 8.24381 21.5257 8.60921 21.3238 8.92158C21.1181 9.22292 20.8273 9.45732 20.4879 9.59543L21.7202 11.3482L20.3535 11.3511ZM26.0539 10.5594C25.8672 10.8432 25.6013 11.0669 25.2886 11.2031C24.8914 11.3747 24.4609 11.4572 24.0278 11.4446C23.642 11.4448 23.2579 11.3937 22.8858 11.2927C22.5439 11.2066 22.2204 11.0598 21.9312 10.8594L22.4217 9.8934C22.6416 10.0542 22.8875 10.1767 23.1488 10.2556C23.4217 10.341 23.7063 10.3844 23.9925 10.3842C24.2564 10.3987 24.5187 10.335 24.746 10.2011C24.8337 10.1464 24.9052 10.0697 24.9535 9.9787C25.0017 9.88774 25.0249 9.78576 25.0207 9.68306C25.0207 9.23643 24.678 9.01312 23.9925 9.01312H23.4117V8.17861L24.542 6.91272H22.202V5.90001H26.0499V6.71797L24.8088 8.12018C25.2902 8.19808 25.6595 8.37628 25.9165 8.65477C26.1743 8.93656 26.3122 9.30649 26.3011 9.68696C26.3031 9.99329 26.2181 10.294 26.0558 10.5546L26.0539 10.5594ZM31.1557 10.5867C30.9703 10.8641 30.7103 11.0844 30.4052 11.2226C30.0744 11.3738 29.7137 11.4496 29.3495 11.4446C28.5803 11.4446 27.9782 11.2106 27.5432 10.7425C27.1083 10.2745 26.8918 9.60549 26.8937 8.7356C26.8783 8.18482 26.9996 7.63874 27.2469 7.14544C27.4669 6.72011 27.8104 6.37006 28.233 6.14052C28.6837 5.90477 29.1875 5.78681 29.6968 5.79776C29.981 5.79652 30.2643 5.82921 30.5406 5.89514C30.7834 5.94876 31.0155 6.04223 31.2274 6.17168L30.7564 7.09871C30.4489 6.90703 30.0901 6.812 29.7272 6.82605C29.2615 6.82605 28.8926 6.96108 28.6205 7.23114C28.3478 7.50184 28.2016 7.8933 28.181 8.40841C28.5047 8.08383 28.9574 7.92153 29.5388 7.92153C29.8701 7.91726 30.1979 7.98926 30.4964 8.13186C30.7764 8.26422 31.0141 8.4708 31.1832 8.72878C31.3531 8.99528 31.4405 9.30543 31.4344 9.62075C31.4426 9.9625 31.3469 10.2988 31.1597 10.5857L31.1557 10.5867ZM36.3027 10.1388C36.1243 10.5367 35.8337 10.8749 35.4659 11.1125C35.1013 11.3381 34.6788 11.4544 34.2492 11.4475C33.8194 11.4544 33.3966 11.3381 33.0317 11.1125C32.6639 10.8751 32.3735 10.5369 32.1957 10.1388C31.984 9.66031 31.8821 9.1411 31.8975 8.61874C31.8841 8.09741 31.9873 7.57962 32.1997 7.1026C32.377 6.70426 32.6675 6.36586 33.0356 6.12884C33.4003 5.90282 33.8232 5.78647 34.2532 5.79387C34.6828 5.78649 35.1054 5.90284 35.4698 6.12884C35.8379 6.3661 36.1286 6.7044 36.3067 7.1026C36.5183 7.57977 36.6209 8.09756 36.6069 8.61874C36.6209 9.13962 36.5183 9.65709 36.3067 10.1339L36.3027 10.1388Z" fill="white"/>
<path d="M46.995 8.83883C46.9862 7.51938 46.1905 6.58944 44.8817 6.41125C44.5874 6.37132 44.45 6.24863 44.3068 6.00422C43.8319 5.19989 43.0961 4.8357 42.0836 4.82889C42.4407 8.4318 42.7909 11.9597 43.1402 15.4847C43.6445 15.364 44.0075 15.0495 44.3784 14.4564C44.4741 14.3056 44.6255 14.1979 44.8003 14.1565C46.1307 13.9881 46.9833 13.0718 46.9941 11.7475C47.0026 10.7782 47.0029 9.80869 46.995 8.83883Z" fill="white"/>
</g>
<defs>
<clipPath id="clip0_294_2613">
<rect width="47" height="19" fill="white"/>
</clipPath>
</defs>
</svg>
