<svg width="17" height="20" viewBox="0 0 17 20" fill="none" xmlns="http://www.w3.org/2000/svg">
<g clip-path="url(#clip0_294_2634)">
<path d="M17 11.328L17 11.1714C16.8976 10.9057 16.702 10.8215 16.4328 10.8231C15.0789 10.8301 13.7245 10.8262 12.3702 10.8262L12.1323 10.8262L12.1323 10.5522C12.1323 7.23326 12.1323 3.91415 12.1323 0.594902C12.1323 0.134236 12.0021 -0.00079302 11.5587 -0.000792981L5.42723 -0.000792445C4.96094 -0.000792405 4.84218 0.120539 4.84218 0.598034L4.84218 10.8266L4.59971 10.8266C3.25172 10.8266 1.90386 10.8266 0.556117 10.8266C0.473998 10.8241 0.391871 10.8313 0.31136 10.8481C0.0224504 10.9202 -0.0917444 11.2438 0.0829726 11.4928C0.129262 11.5544 0.180171 11.6123 0.235231 11.6658C2.85204 14.3585 5.46974 17.0506 8.08833 19.7421C8.18463 19.8411 8.30644 19.9139 8.41645 19.9992L8.60677 19.9992C8.71868 19.9065 8.8401 19.8235 8.94097 19.7194C11.5337 17.0496 14.1233 14.3777 16.7099 11.7037C16.8188 11.5894 16.9029 11.454 17 11.328Z" fill="white"/>
</g>
<defs>
<clipPath id="clip0_294_2634">
<rect width="17" height="20" fill="white" transform="matrix(-1 8.74228e-08 8.74228e-08 1 17 0)"/>
</clipPath>
</defs>
</svg>
