<svg width="21" height="14" viewBox="0 0 21 14" fill="none" xmlns="http://www.w3.org/2000/svg">
<path d="M21 12.0837C20.8685 12.4067 20.7809 12.7681 20.5946 13.0528C20.1563 13.7208 19.4933 14 18.6989 14C17.0498 14 15.4062 14 13.7571 14C9.94391 14 6.13071 14 2.31751 14C1.25463 14 0.421863 13.4361 0.120532 12.4889C0.0438299 12.2479 0.0109575 11.9797 0.00547874 11.7278C0 8.57411 0 5.42589 0 2.27767C0 0.952679 0.942343 0.00547517 2.27368 0C3.56118 0 4.8432 0 6.13071 0C10.311 0 14.4967 0 18.677 0C19.7508 0 20.5836 0.574892 20.8904 1.5221C20.9343 1.6535 20.9616 1.7849 21 1.91631C21 5.30544 21 8.69456 21 12.0837ZM0.871119 6.13766C0.871119 6.22526 0.871119 6.29097 0.871119 6.36214C0.871119 8.14705 0.871119 9.92648 0.871119 11.7114C0.871119 12.5765 1.41899 13.124 2.27915 13.124C7.75789 13.124 13.2421 13.124 18.7208 13.124C19.581 13.124 20.1234 12.5765 20.1234 11.7114C20.1234 9.92648 20.1234 8.14705 20.1234 6.36214C20.1234 6.29097 20.1179 6.21979 20.1124 6.14314C13.6968 6.13766 7.30316 6.13766 0.871119 6.13766ZM20.1015 3.52601C13.6914 3.52601 7.29768 3.52601 0.903992 3.52601C0.903992 4.10637 0.903992 4.67032 0.903992 5.23426C7.31411 5.23426 13.7023 5.23426 20.1015 5.23426C20.1015 4.65389 20.1015 4.08995 20.1015 3.52601ZM20.1453 2.61165C20.1179 2.34337 20.1234 2.08056 20.0631 1.83418C19.9097 1.22644 19.3947 0.881502 18.7044 0.881502C15.5432 0.881502 12.3765 0.881502 9.21524 0.881502C6.89225 0.881502 4.56927 0.892452 2.24628 0.876027C1.4957 0.870551 0.690321 1.47829 0.90947 2.61165C7.30316 2.61165 13.7023 2.61165 20.1453 2.61165Z" fill="black"/>
<path d="M18.3702 9.64178C18.3702 9.82793 18.3866 10.0141 18.3702 10.1948C18.3099 10.7916 17.8497 11.2898 17.247 11.35C16.8471 11.3884 16.4417 11.3938 16.0417 11.3555C15.3623 11.2898 14.8967 10.7532 14.8857 10.0688C14.8802 9.77318 14.8802 9.483 14.8857 9.18734C14.9021 8.49199 15.3678 7.95542 16.0636 7.8952C16.4636 7.85687 16.869 7.86235 17.2689 7.90615C17.899 7.97185 18.3647 8.51937 18.3811 9.15449C18.3757 9.31327 18.3702 9.47752 18.3702 9.64178ZM16.617 10.4904C16.7594 10.4904 16.9019 10.4959 17.0498 10.4904C17.3073 10.4795 17.4826 10.3316 17.4936 10.0743C17.51 9.7677 17.51 9.46109 17.4936 9.15449C17.4771 8.9081 17.3073 8.76027 17.0608 8.7548C16.7649 8.74932 16.4745 8.74932 16.1787 8.7548C15.9267 8.76027 15.7623 8.93 15.7513 9.18734C15.7459 9.47205 15.7459 9.76223 15.7513 10.0469C15.7568 10.3097 15.9267 10.4795 16.1896 10.4904C16.3321 10.4959 16.4745 10.4904 16.617 10.4904Z" fill="black"/>
<path d="M5.68146 10.4959C6.53067 10.4959 7.37439 10.4959 8.2236 10.4959C8.53041 10.4959 8.71668 10.6382 8.74408 10.8791C8.77147 11.1146 8.6345 11.3117 8.39892 11.361C8.32769 11.3774 8.25099 11.3774 8.17429 11.3774C6.51423 11.3774 4.85417 11.3774 3.19412 11.3774C3.10646 11.3774 3.01332 11.3719 2.93114 11.35C2.74486 11.3007 2.62433 11.1255 2.62433 10.9394C2.62433 10.7477 2.74486 10.578 2.93662 10.5287C3.0188 10.5068 3.11194 10.5014 3.1996 10.5014C4.02688 10.4904 4.85417 10.4959 5.68146 10.4959Z" fill="black"/>
<path d="M5.68693 8.74929C6.50874 8.74929 7.32507 8.74929 8.14688 8.74929C8.21263 8.74929 8.28385 8.74929 8.3496 8.75477C8.5797 8.77667 8.73859 8.9464 8.73859 9.17636C8.74407 9.40084 8.58518 9.58152 8.36056 9.61437C8.29481 9.62532 8.22359 9.61985 8.15784 9.61985C6.50326 9.61985 4.85416 9.61985 3.19958 9.61985C3.1448 9.61985 3.09001 9.61985 3.03522 9.61985C2.78868 9.59795 2.61336 9.40631 2.61884 9.17088C2.62432 8.94092 2.79964 8.76572 3.0407 8.75477C3.23246 8.74382 3.42421 8.74929 3.61597 8.74929C4.31177 8.74929 5.00209 8.74929 5.68693 8.74929Z" fill="black"/>
</svg>
