<svg width="19" height="19" viewBox="0 0 19 19" fill="none" xmlns="http://www.w3.org/2000/svg">
<rect width="19" height="19" rx="9.5" fill="#FFBD13"/>
<path d="M14.339 8.17171C14.4156 8.10855 14.5295 8.16764 14.5295 8.26747V12.4339C14.5295 12.9738 14.1071 13.4118 13.5865 13.4118H5.41372C4.8931 13.4118 4.4707 12.9738 4.4707 12.4339V8.26951C4.4707 8.16764 4.58269 8.11059 4.66127 8.17375C5.10134 8.52825 5.68483 8.97851 7.68874 10.4882C8.10327 10.802 8.80268 11.4621 9.50011 11.458C10.2015 11.4641 10.9146 10.7897 11.3135 10.4882C13.3174 8.97851 13.8989 8.52622 14.339 8.17171ZM9.50011 10.804C9.95591 10.8122 10.6121 10.2091 10.9421 9.96053C13.5492 7.99854 13.7476 7.8274 14.3488 7.33843C14.4627 7.24674 14.5295 7.10413 14.5295 6.95336V6.56626C14.5295 6.02635 14.1071 5.58832 13.5865 5.58832H5.41372C4.8931 5.58832 4.4707 6.02635 4.4707 6.56626V6.95336C4.4707 7.10413 4.5375 7.24471 4.65145 7.33843C5.25262 7.82536 5.45105 7.99854 8.05809 9.96053C8.38814 10.2091 9.04432 10.8122 9.50011 10.804Z" fill="white"/>
</svg>
