<svg width="17" height="17" viewBox="0 0 17 17" fill="none" xmlns="http://www.w3.org/2000/svg">
<path fill-rule="evenodd" clip-rule="evenodd" d="M8.49994 4.74582C5.91213 4.74582 3.89352 6.224 2.13834 8.38567C2.08409 8.45249 2.08409 8.54748 2.13834 8.61429C3.89352 10.776 5.91213 12.2541 8.49994 12.2541C11.0877 12.2541 13.1064 10.776 14.8615 8.61429C14.9158 8.54748 14.9158 8.45249 14.8615 8.38567C13.1064 6.224 11.0877 4.74582 8.49994 4.74582ZM1.36849 7.76059C3.20548 5.49816 5.47779 3.75415 8.49994 3.75415C11.5221 3.75415 13.7944 5.49816 15.6314 7.76059C15.9814 8.19165 15.9814 8.80831 15.6314 9.23938C13.7944 11.5018 11.5221 13.2458 8.49994 13.2458C5.47779 13.2458 3.20548 11.5018 1.36849 9.23938C1.01849 8.80831 1.01849 8.19165 1.36849 7.76059Z" fill="#4A4A4A"/>
<path fill-rule="evenodd" clip-rule="evenodd" d="M8.5001 7.22494C7.79593 7.22494 7.2251 7.79578 7.2251 8.49994C7.2251 9.20411 7.79593 9.77494 8.5001 9.77494C9.20426 9.77494 9.77509 9.20411 9.77509 8.49994C9.77509 7.79578 9.20426 7.22494 8.5001 7.22494ZM6.23343 8.49994C6.23343 7.2481 7.24825 6.23328 8.5001 6.23328C9.75194 6.23328 10.7668 7.2481 10.7668 8.49994C10.7668 9.75179 9.75194 10.7666 8.5001 10.7666C7.24825 10.7666 6.23343 9.75179 6.23343 8.49994Z" fill="#4A4A4A"/>
</svg>
