<svg width="73" height="71" viewBox="0 0 73 71" fill="none" xmlns="http://www.w3.org/2000/svg">
<g clip-path="url(#clip0_294_1844)">
<path d="M73.0001 65.9215C71.513 67.4788 70.0544 69.0705 68.5258 70.5778C67.9172 71.1804 66.9115 71.1103 66.2401 70.5434C65.8115 70.1784 65.413 69.759 65.0101 69.3554C62.1858 66.5284 59.3715 63.6928 56.5372 60.8772C55.9358 60.2804 55.603 59.6362 55.7815 58.7731C55.7962 58.6976 55.7953 58.62 55.7788 58.5449C55.7624 58.4698 55.7307 58.3989 55.6858 58.3365C54.9187 57.5034 54.133 56.689 53.353 55.8702L53.1772 55.9762C53.1658 56.2252 53.1444 56.4728 53.1444 56.7219C53.1444 60.101 53.1444 63.4814 53.1444 66.8633C53.1444 68.5925 52.5001 69.2423 50.7887 69.2423H21.343C21.1045 69.2522 20.8657 69.2431 20.6287 69.2151C20.3999 69.1934 20.1868 69.0891 20.0291 68.9216C19.8714 68.7541 19.7799 68.5349 19.7715 68.3047C19.7172 67.768 19.9401 67.3557 20.463 67.1997C20.785 67.1217 21.1163 67.0894 21.4472 67.1038C30.9511 67.1038 40.4553 67.1038 49.9601 67.1038H50.9358V56.7391L49.0458 57.5493C49.0458 59.3051 49.0458 61.0633 49.0458 62.8239C49.0458 64.4786 48.3672 65.1585 46.7044 65.1585H6.30296V67.0995H7.06867C9.83058 67.0995 12.5868 67.0995 15.3372 67.0995C15.621 67.089 15.9048 67.1218 16.1787 67.1968C16.6987 67.3672 16.9201 67.7694 16.8615 68.309C16.8498 68.5376 16.7571 68.7545 16.5999 68.9206C16.4428 69.0868 16.2316 69.1912 16.0044 69.2151C15.8624 69.2343 15.7191 69.242 15.5758 69.238C12.433 69.238 9.30296 69.238 6.16724 69.238C4.80724 69.238 4.12725 68.5295 4.11011 67.1553C4.10154 66.5198 4.11011 65.8828 4.11011 65.1585C3.39582 65.1585 2.76011 65.1671 2.12582 65.1585C0.731534 65.1356 0.00439453 64.4185 0.00439453 63.0415C0.00439453 42.7348 0.00439453 22.4286 0.00439453 2.12281C0.00439453 0.738655 0.71868 0.0258208 2.12011 0.0100755C3.61582 -0.00710122 5.12011 0.0100755 6.61011 0.0100755H46.3844C46.6701 0.0100755 46.9558 0.0100754 47.2415 0.0272521C48.3015 0.113136 48.9915 0.808793 49.0358 1.87661C49.0658 2.59231 49.0358 3.29512 49.0358 4.09814H50.6344C52.5187 4.09814 53.1372 4.72509 53.1372 6.636C53.1372 11.8262 53.1372 17.016 53.1372 22.2053V23.1557C54.1458 23.2989 54.423 24.1148 54.683 24.9493C55.263 26.8187 56.5072 28.0239 58.3587 28.6165C58.5844 28.689 58.8082 28.7668 59.0301 28.8498C59.7001 29.1046 60.0815 29.5755 60.0687 30.3084C60.0544 31.0069 59.683 31.4535 59.0387 31.7011C58.8401 31.7741 58.6444 31.8557 58.4058 31.9488C61.6744 38.4115 61.4201 44.7139 57.6101 50.9104C58.493 51.7879 59.3772 52.6839 60.2901 53.5514C60.3757 53.6202 60.4746 53.6707 60.5805 53.6998C60.6864 53.7288 60.7971 53.7358 60.9058 53.7203C61.221 53.6519 61.5485 53.6662 61.8565 53.7617C62.1646 53.8573 62.4428 54.0308 62.6644 54.2656C63.8177 55.4003 64.9606 56.5454 66.0929 57.701C66.6101 58.2292 66.6415 58.8461 66.223 59.2913C65.7744 59.7722 65.1458 59.7622 64.5929 59.2168C63.5115 58.1504 62.4501 57.0697 61.4301 56.032L58.1744 59.3099L67.4001 68.5481L70.6858 65.2559C69.9358 64.5273 69.0972 63.7243 68.273 62.9055C67.8972 62.5334 67.7287 62.0238 68.0744 61.6173C68.3258 61.331 68.8058 61.2108 69.2058 61.0891C69.3358 61.0504 69.5701 61.2022 69.6973 61.3267C70.663 62.2786 71.6215 63.2362 72.5544 64.2124C72.7458 64.4099 72.8515 64.689 72.9958 64.9281L73.0001 65.9215ZM46.8772 58.1834C44.2469 58.7753 41.5191 58.7822 38.8858 58.2034C37.713 57.95 36.6158 57.4634 35.3573 57.4705C26.6858 57.5135 18.013 57.4934 9.34011 57.492C9.07944 57.5108 8.81754 57.5021 8.55868 57.4662C8.01154 57.3474 7.6801 56.9996 7.68439 56.4142C7.68867 55.8287 8.02296 55.4895 8.57153 55.3735C8.8082 55.3412 9.04757 55.3336 9.28582 55.3506H32.3258C31.313 54.3644 30.3915 53.4412 29.433 52.5565C29.2153 52.3896 28.9485 52.2995 28.6744 52.3003C27.5587 52.2717 26.4415 52.3003 25.3258 52.2789C24.5144 52.2603 24.0273 51.6863 24.183 50.9906C24.3258 50.3823 24.7544 50.1504 25.3415 50.1461C26.0672 50.1461 26.7915 50.1461 27.593 50.1461C27.1644 49.2515 26.7358 48.5057 26.4387 47.7127C26.243 47.1974 25.9858 47.0571 25.4544 47.0586C20.0615 47.08 14.6672 47.0714 9.27439 47.0714C9.03724 47.0714 8.73439 47.1516 8.57582 47.0385C8.24011 46.7981 7.84725 46.5003 7.71868 46.1396C7.54154 45.6458 7.84725 45.2063 8.36011 45.0303C8.63299 44.9524 8.91669 44.9195 9.20011 44.9329C14.3315 44.9272 19.4634 44.9272 24.5958 44.9329H25.4744C25.3158 43.8952 25.1672 42.9218 25.0115 41.897H24.143C19.2001 41.897 14.2577 41.897 9.31582 41.897C9.00869 41.9088 8.70143 41.8774 8.40296 41.8039C7.87868 41.6508 7.64011 41.2514 7.68868 40.7118C7.73725 40.1721 8.05582 39.8529 8.59439 39.7742C8.83188 39.7531 9.0705 39.7479 9.30868 39.7585H25.023C25.1744 38.6778 25.3087 37.7015 25.4515 36.6666H24.5387C19.3587 36.6666 14.1787 36.6666 8.99867 36.6666C8.1301 36.6666 7.68582 36.3002 7.68154 35.616C7.67725 34.9318 8.14011 34.5396 8.98296 34.5296C9.95725 34.5167 10.9315 34.5296 11.9058 34.5296C16.4444 34.5296 20.983 34.5296 25.5201 34.5196C25.7644 34.5196 26.1372 34.4322 26.2344 34.2633C27.0415 32.7962 27.8058 31.3018 28.5872 29.7788H9.30153C9.06329 29.7959 8.82391 29.7882 8.58724 29.7559C8.01582 29.6328 7.65296 29.2807 7.68154 28.658C7.71011 28.0353 8.07011 27.7104 8.67153 27.6474C8.90925 27.6307 9.14769 27.6269 9.38582 27.636C16.3001 27.636 23.2144 27.636 30.1287 27.636C30.4015 27.636 30.7315 27.636 30.9372 27.4843C32.2915 26.5395 33.6187 25.5562 34.983 24.5642C34.2515 24.5642 33.4801 24.5914 32.7101 24.5556C31.9401 24.5198 31.4958 23.9673 31.6487 23.2774C31.7915 22.6261 32.2758 22.4314 32.8787 22.4314C35.2787 22.4314 37.6772 22.4314 40.0772 22.4314C40.3301 22.4314 40.6715 22.4472 40.8187 22.6018C41.2287 23.0312 41.7101 22.9467 42.2001 22.9381C42.6761 22.9163 43.153 22.9196 43.6287 22.9482C44.7044 23.0469 45.7715 23.1843 46.9001 23.3103V22.5102C46.9001 20.7009 46.9001 18.8916 46.9001 17.0823C46.9001 16.3366 47.2973 15.8971 47.9287 15.8814C48.5601 15.8656 49.0058 16.3251 49.033 17.0909C49.0415 17.3285 49.033 17.5676 49.033 17.8066V24.0002L50.9415 24.8147V6.28817H49.0458V7.11838C49.0458 8.66572 49.0572 10.2131 49.0458 11.7604C49.0358 12.6393 48.4144 13.1574 47.6687 12.9284C47.0744 12.7466 46.9072 12.2871 46.9087 11.706C46.9087 8.8017 46.9087 5.8974 46.9087 2.9931V2.2044H2.17582V62.9614H46.8772V58.1834ZM46.0015 29.6986C41.2872 28.0454 35.4301 30.4401 32.8215 35.0535C30.0472 39.9503 31.1701 46.0623 35.513 49.7081C39.6958 53.2207 45.9944 53.2021 50.2172 49.6938C54.7315 45.9449 55.0087 40.092 53.7287 37.2406C52.4801 37.5341 51.8487 37.2507 51.4972 36.0397C50.8515 33.8096 49.443 32.424 47.2301 31.7741C46.113 31.4435 45.8158 30.8709 46.0015 29.6986ZM56.4001 32.9593C56.2244 33.1182 56.0744 33.237 55.9473 33.3744C55.3373 34.0286 55.0744 34.6097 55.4744 35.6303C57.3844 40.5042 56.8015 45.162 53.553 49.2772C50.283 53.4197 45.853 55.1459 40.6658 54.2771C35.2115 53.3739 31.4601 50.1446 29.8301 44.8385C28.2001 39.5323 29.4144 34.7457 33.4201 30.9067C37.4258 27.0677 42.2558 26.1559 47.5401 27.9079C48.7015 28.2944 49.493 28.0225 50.1572 26.926C44.7515 23.7998 36.0144 24.2436 30.6415 30.9196C25.5658 37.2177 26.1244 46.4287 31.883 52.0226C37.6815 57.6566 46.8215 57.9987 52.9158 52.85C59.4215 47.3534 59.8087 38.5003 56.4001 32.9593ZM53.0072 26.4766C52.203 28.3016 50.973 29.4825 49.253 30.2783C50.9368 31.0005 52.2776 32.346 52.9958 34.0343C53.8115 32.2952 54.9958 31.0527 56.7972 30.2726C55.0258 29.4939 53.8201 28.2944 53.0072 26.4766ZM54.7301 54.1769L57.2758 56.7348L58.803 55.3106L56.2801 52.7713L54.7301 54.1769Z" fill="#4A5A79"/>
<path d="M61.37 24.1433C61.1543 25.7894 60.9086 26.2489 60.2028 26.1673C58.9586 26.0241 59.2029 25.0035 59.1429 24.1433C58.3143 24.0001 57.1429 24.378 57.1286 22.9667C57.1186 22.251 57.5714 22.032 59.1443 21.9132C59.2328 21.103 58.9143 19.9636 60.2871 19.9278C61.0014 19.9092 61.21 20.3372 61.3443 21.8974C62.1343 22.0563 63.2957 21.7056 63.3271 23.0926C63.35 23.804 62.9586 24.0001 61.37 24.1433Z" fill="#4A5A79"/>
<path d="M18.8157 24.5572H9.34286C9.10446 24.5645 8.86583 24.5559 8.62858 24.5314C8.02572 24.4512 7.68286 24.102 7.68286 23.4851C7.68286 22.8681 8.03857 22.5274 8.63429 22.4373C8.824 22.4164 9.01497 22.4092 9.20572 22.4158H28.3629C28.5761 22.4074 28.7898 22.417 29.0014 22.4444C29.6 22.5461 29.94 22.9225 29.92 23.5251C29.9014 24.0877 29.57 24.4484 28.9957 24.5271C28.7362 24.5543 28.4751 24.5644 28.2143 24.5572H18.8157Z" fill="#4A5A79"/>
<path d="M24.4516 9.00494H33.4945C33.7551 8.99551 34.016 9.00844 34.2745 9.04359C34.8145 9.14235 35.0973 9.5002 35.1102 10.0456C35.123 10.5909 34.8588 10.9617 34.3259 11.0848C34.0462 11.1372 33.7617 11.1588 33.4773 11.1492C27.4973 11.1492 21.5169 11.1492 15.5359 11.1492C15.393 11.1492 15.2502 11.1492 15.1073 11.1492C14.3345 11.1019 13.883 10.6782 13.9088 10.0313C13.933 9.41146 14.3716 9.01925 15.1245 9.01639C18.2345 8.99921 21.3431 9.00494 24.4516 9.00494Z" fill="#4A5A79"/>
<path d="M30.8 19.351H21.76C21.5471 19.3649 21.3335 19.3601 21.1214 19.3367C20.5643 19.2379 20.2214 18.9072 20.2029 18.3261C20.1814 17.7135 20.5186 17.3485 21.1057 17.2297C21.3174 17.2021 21.5313 17.1954 21.7443 17.2096H39.8243C39.9429 17.2096 40.0615 17.2096 40.18 17.2096C40.8943 17.2425 41.3515 17.6505 41.3558 18.2746C41.36 18.8987 40.91 19.3238 40.1958 19.3495C39.84 19.361 39.4815 19.3495 39.1286 19.3495L30.8 19.351Z" fill="#4A5A79"/>
<path d="M15.1458 52.2889H9.23727C9.02398 52.2981 8.81031 52.2885 8.59869 52.2603C8.00155 52.1572 7.66869 51.7965 7.68726 51.181C7.70583 50.6013 8.03155 50.2606 8.60298 50.1791C8.84008 50.1523 9.07876 50.1423 9.31727 50.149C13.2087 50.149 17.1001 50.149 20.9915 50.149C22.0915 50.149 22.6115 50.4796 22.6358 51.1853C22.6615 51.9225 22.1144 52.2904 20.9873 52.2904L15.1458 52.2889Z" fill="#4A5A79"/>
<path d="M13.1516 19.351C11.753 19.351 10.3545 19.351 8.95589 19.351C8.1316 19.351 7.67018 18.9331 7.6816 18.2532C7.69875 17.6033 8.1516 17.2154 8.94589 17.2125C11.7678 17.2068 14.5887 17.2068 17.4087 17.2125C18.1745 17.2125 18.6602 17.642 18.663 18.2775C18.6659 18.913 18.183 19.3439 17.4187 19.3482C15.9959 19.3582 14.5745 19.351 13.1516 19.351Z" fill="#4A5A79"/>
<path d="M42.9188 38.1711C44.9359 38.1711 46.9521 38.1711 48.9673 38.1711C49.8602 38.1711 50.3459 38.5691 50.3302 39.2533C50.3145 39.9132 49.8388 40.3082 48.9931 40.3096C44.8902 40.3154 40.7873 40.3154 36.6845 40.3096C35.8373 40.3096 35.3673 39.9103 35.3588 39.2433C35.3502 38.5762 35.8116 38.1754 36.6588 38.1726C38.7459 38.1711 40.8331 38.1711 42.9188 38.1711Z" fill="#4A5A79"/>
<path d="M42.8258 42.1631C44.9372 42.1631 47.0472 42.1474 49.1586 42.1631C50.1086 42.1732 50.6701 43.0492 50.1586 43.7377C50.0356 43.8882 49.8838 44.0125 49.712 44.1032C49.5402 44.1939 49.3521 44.2492 49.1586 44.2658C44.9615 44.3016 40.7643 44.2973 36.5672 44.283C35.7929 44.283 35.3415 43.825 35.3615 43.1751C35.3815 42.551 35.8158 42.1603 36.5686 42.1545C38.6529 42.1545 40.7401 42.1617 42.8258 42.1631Z" fill="#4A5A79"/>
<path d="M42.8272 34.1831C44.4415 34.1831 46.0558 34.1831 47.6701 34.1831C48.5115 34.1831 48.9758 34.5853 48.9629 35.2609C48.9515 35.8993 48.4815 36.3173 47.7001 36.3187C44.4715 36.3283 41.2434 36.3283 38.0158 36.3187C37.1944 36.3187 36.7101 35.8893 36.7301 35.2194C36.7501 34.5495 37.2044 34.1845 38.0629 34.1816C39.6458 34.1788 41.2372 34.1831 42.8272 34.1831Z" fill="#4A5A79"/>
<path d="M42.8302 46.1468C43.8516 46.1468 44.8731 46.1353 45.8945 46.1468C46.6745 46.1568 47.1559 46.5762 47.1645 47.1946C47.1731 47.8129 46.6888 48.271 45.9216 48.2767C43.8788 48.2929 41.8359 48.2929 39.7931 48.2767C39.0145 48.2767 38.5316 47.8473 38.5216 47.2218C38.5116 46.5734 39.0088 46.154 39.8374 46.1439C40.8345 46.1368 41.8316 46.1468 42.8302 46.1468Z" fill="#4A5A79"/>
</g>
<defs>
<clipPath id="clip0_294_1844">
<rect width="73" height="71" fill="white"/>
</clipPath>
</defs>
</svg>
