<svg width="69" height="69" viewBox="0 0 69 69" fill="none" xmlns="http://www.w3.org/2000/svg">
<g clip-path="url(#clip0_294_1835)">
<path d="M32.3444 69.0001C31.0591 68.8246 29.7683 68.6774 28.4884 68.4681C15.0165 66.2782 3.56575 55.3205 0.810066 41.9447C-1.22328 32.0753 0.554886 22.9524 6.30387 14.6423C6.54015 14.2994 6.5577 14.0685 6.35113 13.6972C5.8154 12.7532 5.59855 11.6616 5.73283 10.5845C5.8671 9.50741 6.34532 8.5024 7.09642 7.71882C7.83895 6.93372 8.81093 6.40376 9.8731 6.20487C10.9353 6.00599 12.0331 6.14837 13.0094 6.61163C13.9857 7.07489 14.7904 7.83525 15.3081 8.7838C15.8257 9.73234 16.0299 10.8204 15.8914 11.8921C15.647 14.0226 13.9701 15.8912 11.7828 16.2274C10.7972 16.3799 9.75759 16.1761 8.54244 16.1261C7.34515 17.7789 6.32383 19.5522 5.49513 21.4173C-1.48116 36.9438 4.94561 55.2098 20.1525 62.857C28.4938 67.0505 37.0984 67.411 45.8595 64.2071C46.0283 64.1464 46.193 64.0721 46.3632 64.0154C47.1841 63.7386 47.9374 64.0505 48.1953 64.7701C48.4532 65.4897 48.1197 66.2553 47.2907 66.5361C45.7002 67.0762 44.1138 67.6648 42.4801 68.0334C40.6925 68.4384 38.8536 68.6113 37.0362 68.888C36.8607 68.915 36.6893 68.9623 36.5151 68.9987L32.3444 69.0001ZM13.2234 11.271C13.231 10.9506 13.1747 10.6318 13.0577 10.3333C12.9408 10.0349 12.7657 9.76265 12.5425 9.53256C12.3193 9.30247 12.0526 9.1191 11.7578 8.99314C11.463 8.86719 11.1461 8.80117 10.8256 8.79893C10.1893 8.80348 9.57942 9.05414 9.12385 9.49838C8.66827 9.94261 8.40234 10.5459 8.38177 11.1819C8.37839 11.5022 8.43835 11.82 8.5582 12.117C8.67806 12.414 8.85545 12.6844 9.08017 12.9127C9.3049 13.1409 9.57252 13.3225 9.86766 13.4469C10.1628 13.5713 10.4796 13.6362 10.7999 13.6378C11.1148 13.6428 11.4275 13.5854 11.7201 13.469C12.0127 13.3525 12.2794 13.1792 12.5047 12.9592C12.73 12.7392 12.9095 12.4767 13.0329 12.187C13.1562 11.8972 13.221 11.5859 13.2234 11.271Z" fill="#4A5A79"/>
<path d="M68.9987 36.5185C68.8258 37.8254 68.6895 39.1377 68.4734 40.4338C67.6336 45.4752 65.7002 50.0725 62.7663 54.2457C62.4855 54.6508 62.4382 54.9208 62.684 55.3636C63.2066 56.3158 63.4075 57.4114 63.2567 58.4871C63.1058 59.5628 62.6113 60.5609 61.8469 61.3326C61.0961 62.1022 60.1221 62.6158 59.063 62.8007C58.0039 62.9855 56.9134 62.8322 55.9464 62.3624C54.9793 61.8927 54.1847 61.1303 53.6754 60.1835C53.166 59.2367 52.9677 58.1536 53.1086 57.0878C53.3584 54.9586 55.0488 53.0846 57.2279 52.7606C58.2149 52.6148 59.2532 52.8186 60.4494 52.8713C61.9165 50.8789 63.1107 48.6994 64.0004 46.3906C67.86 36.1764 66.9149 26.4212 61.165 17.1251C60.9029 16.7213 60.7516 16.2557 60.7262 15.775C60.7262 15.2268 61.1434 14.8299 61.6983 14.707C62.3343 14.5626 62.8392 14.7975 63.2024 15.3443C64.6137 17.4533 65.7865 19.7124 66.6993 22.0801C67.909 25.2029 68.648 28.4881 68.892 31.8281C68.9082 32.0468 68.9663 32.2615 69.0041 32.4788L68.9987 36.5185ZM55.7671 57.7655C55.7638 58.402 56.0116 59.0141 56.4567 59.469C56.9018 59.924 57.5083 60.1851 58.1447 60.1958C58.7923 60.1948 59.4137 59.9396 59.8751 59.4851C60.3364 59.0305 60.6008 58.4131 60.6115 57.7655C60.6086 57.1293 60.3555 56.5198 59.9068 56.0688C59.458 55.6178 58.8498 55.3616 58.2136 55.3555C57.8936 55.3479 57.5754 55.4048 57.2779 55.5228C56.9804 55.6409 56.7097 55.8176 56.482 56.0425C56.2543 56.2675 56.0742 56.5359 55.9526 56.832C55.8309 57.128 55.7701 57.4455 55.7738 57.7655H55.7671Z" fill="#4A5A79"/>
<path d="M34.5046 53.476C31.1355 53.476 27.7673 53.476 24.4 53.476C21.1866 53.476 19.1411 51.4279 19.1344 48.2105C19.1344 42.5508 19.1479 36.8923 19.1263 31.2326C19.1182 29.1372 19.9364 27.5575 21.7672 26.5004C21.9508 26.3937 22.0831 26.0454 22.0872 25.8064C22.1196 24.035 22.044 22.265 22.4922 20.5179C23.9234 14.8932 29.243 10.9319 35.0366 11.202C40.9044 11.472 45.873 15.8734 46.7209 21.6372C46.9221 23.0049 46.8559 24.413 46.8869 25.8023C46.895 26.1709 46.9761 26.3842 47.3298 26.5868C48.9824 27.5319 49.8533 28.9833 49.8587 30.8923C49.874 36.7537 49.874 42.6151 49.8587 48.4765C49.8587 51.3388 47.7457 53.4518 44.8752 53.472C41.4174 53.4882 37.9597 53.476 34.5046 53.476ZM34.5046 28.6754C31.1148 28.6754 27.7255 28.6754 24.3366 28.6754C22.6435 28.6754 21.828 29.5031 21.828 31.2042C21.828 36.8613 21.828 42.5188 21.828 48.1768C21.828 49.9482 22.6529 50.7785 24.4162 50.7785H44.5566C46.3374 50.7785 47.1664 49.9576 47.1664 48.197C47.1664 42.54 47.1664 36.8824 47.1664 31.2245C47.1664 29.495 46.3482 28.6768 44.6092 28.6754C41.2437 28.6736 37.8755 28.6736 34.5046 28.6754ZM44.1421 25.9454C44.5714 21.247 43.332 17.3424 39.0115 15.0539C35.308 13.0908 31.6517 13.5026 28.3722 16.107C25.1993 18.6264 24.4716 22.1003 24.8618 25.936H27.6336C27.6336 25.0233 27.6053 24.1511 27.6336 23.2803C27.7835 19.269 31.483 16.2123 35.4484 16.8064C37.0749 17.033 38.5661 17.8359 39.6507 19.0691C40.7352 20.3023 41.3411 21.8838 41.358 23.526C41.3729 24.3239 41.358 25.1232 41.358 25.9454H44.1421ZM38.6618 25.9454C38.6618 24.9923 38.7131 24.116 38.6523 23.2452C38.5173 21.2321 36.8971 19.6403 34.857 19.427C32.9735 19.2312 31.005 20.4693 30.5513 22.3541C30.2746 23.499 30.3367 24.7263 30.2449 25.9441L38.6618 25.9454Z" fill="#4A5A79"/>
<path d="M35.8116 0.00953884C42.1263 0.179656 48.441 2.20486 54.1401 6.12835C54.9205 6.6684 55.1216 7.49603 54.6531 8.15355C54.2022 8.78541 53.3948 8.88262 52.6279 8.35607C48.3155 5.38577 43.5818 3.56174 38.3756 2.93258C33.2305 2.29291 28.0071 2.92525 23.1633 4.77416C22.954 4.85247 22.7448 4.93618 22.5314 5.00234C21.7807 5.23321 21.0719 4.92268 20.8073 4.25166C20.7381 4.08437 20.7042 3.90464 20.7075 3.72366C20.7108 3.54268 20.7514 3.36432 20.8266 3.19968C20.9018 3.03504 21.0101 2.88765 21.1448 2.76667C21.2794 2.64569 21.4375 2.55373 21.6093 2.49649C22.6759 2.09145 23.7506 1.68641 24.8497 1.36777C28.2291 0.372726 31.6896 -0.0660687 35.8116 0.00953884Z" fill="#4A5A79"/>
<path d="M56.8565 11.2912C56.8548 11.117 56.8876 10.9442 56.9531 10.7829C57.0187 10.6215 57.1156 10.4747 57.2383 10.3511C57.3611 10.2275 57.5071 10.1295 57.668 10.0629C57.8289 9.99617 58.0015 9.96211 58.1757 9.96265C58.5274 9.96274 58.8655 10.099 59.119 10.3429C59.3725 10.5868 59.5217 10.9194 59.5353 11.2709C59.5328 11.6345 59.3874 11.9824 59.1304 12.2396C58.8735 12.4968 58.5257 12.6425 58.1622 12.6454C57.8101 12.6369 57.4756 12.4899 57.2312 12.2364C56.9868 11.9829 56.8522 11.6433 56.8565 11.2912Z" fill="#4A5A79"/>
<path d="M30.4543 42.1729C30.4543 41.9028 30.4421 41.6328 30.4543 41.3628C30.5161 40.5212 30.3283 39.68 29.9142 38.9447C28.722 36.7723 29.3998 34.0842 31.3845 32.5545C32.3398 31.8267 33.5196 31.456 34.7195 31.5065C35.9193 31.5571 37.0637 32.0257 37.9544 32.8313C38.8411 33.6411 39.4209 34.7322 39.5958 35.9202C39.7707 37.1082 39.53 38.3201 38.9144 39.3511C38.6984 39.7315 38.5753 40.1576 38.5552 40.5946C38.5053 41.6477 38.5444 42.7048 38.5363 43.7606C38.5188 46.1234 36.773 47.9325 34.5088 47.946C32.2446 47.9596 30.4772 46.1355 30.4583 43.7917C30.4543 43.2503 30.4543 42.7116 30.4543 42.1729ZM33.1546 41.6072C33.1546 42.2822 33.1546 42.9573 33.1546 43.6324C33.1613 44.6031 33.6852 45.2363 34.4859 45.2525C35.2865 45.2687 35.836 44.6301 35.8468 43.6688C35.8536 42.5023 35.8779 41.3344 35.8387 40.1679C35.8131 39.374 35.9737 38.7111 36.4989 38.0631C37.2807 37.1018 37.066 35.6747 36.1412 34.8389C35.6945 34.4376 35.1162 34.2141 34.5158 34.2106C33.9153 34.2071 33.3345 34.424 32.8832 34.82C31.9381 35.6531 31.7032 37.0775 32.4863 38.0361C33.052 38.7273 33.214 39.4375 33.1613 40.2719C33.1276 40.7093 33.1546 41.1603 33.1546 41.6072Z" fill="#4A5A79"/>
</g>
<defs>
<clipPath id="clip0_294_1835">
<rect width="69" height="69" fill="white"/>
</clipPath>
</defs>
</svg>
