<svg width="21" height="22" viewBox="0 0 21 22" fill="none" xmlns="http://www.w3.org/2000/svg">
<path d="M0 19.0833C0.0966915 19.4079 0.152238 19.7522 0.297481 20.0537C0.900671 21.3076 1.91449 21.9789 3.30973 21.9887C6.04754 22.0085 8.78576 21.9982 11.5236 21.9887C11.8173 21.9843 12.1094 21.9449 12.3938 21.8712C13.7339 21.5372 14.7547 20.2998 14.816 18.9243C14.844 18.3036 14.8333 17.6807 14.8234 17.0592C14.8186 16.8459 14.7304 16.6429 14.5776 16.4938C14.4249 16.3446 14.2197 16.2611 14.0061 16.2611C13.7924 16.2611 13.5872 16.3446 13.4345 16.4938C13.2817 16.6429 13.1935 16.8459 13.1887 17.0592C13.1772 17.5715 13.1858 18.0842 13.1846 18.5965C13.1821 19.6597 12.488 20.3536 11.4223 20.354C8.75284 20.354 6.08347 20.354 3.41424 20.354C2.335 20.354 1.64499 19.663 1.64499 18.585C1.64499 13.8631 1.64499 9.14143 1.64499 4.41986C1.64499 3.32909 2.33458 2.64136 3.42658 2.64095C6.0895 2.64095 8.75215 2.64095 11.4145 2.64095C12.4942 2.64095 13.1838 3.33156 13.1862 4.40959C13.1862 4.8878 13.1862 5.36642 13.1862 5.84463C13.1887 6.36844 13.5228 6.73449 13.9985 6.73942C14.4823 6.74518 14.8312 6.37501 14.8271 5.84216C14.8222 5.17332 14.8567 4.49874 14.7823 3.83648C14.6177 2.38829 13.4718 1.25685 12.0255 1.03952C11.987 1.02936 11.9496 1.01561 11.9136 0.998436H2.91638C2.88747 1.01416 2.85681 1.02643 2.82504 1.035C1.66968 1.22316 0.827432 1.8427 0.323814 2.89032C0.170342 3.20913 0.105332 3.57025 0 3.91166V19.0833Z" fill="#262626"/>
<path d="M18.7413 12.2779C18.2948 12.722 17.8912 13.1271 17.483 13.5276C17.2987 13.7088 17.181 13.9179 17.1909 14.18C17.2033 14.5169 17.365 14.7667 17.6727 14.9068C17.9805 15.0469 18.2726 14.9964 18.5368 14.7856C18.5789 14.7506 18.619 14.7133 18.6569 14.6739C19.233 14.0987 19.7946 13.5087 20.3883 12.9529C21.2026 12.1904 21.2014 10.7307 20.3966 9.97143C19.7794 9.38969 19.1963 8.77385 18.5911 8.17978C18.3088 7.90247 17.9365 7.85769 17.6106 8.03845C17.2946 8.21388 17.1169 8.56843 17.2172 8.92504C17.2719 9.09933 17.3671 9.25826 17.495 9.38887C17.8855 9.79971 18.2953 10.1929 18.7425 10.6378H18.4615C15.307 10.6378 12.1525 10.6378 8.99805 10.6378C8.71826 10.6378 8.46316 10.6912 8.27266 10.9053C8.05377 11.1493 7.9904 11.4365 8.10808 11.7442C8.22699 12.0589 8.46769 12.2347 8.80261 12.2738C8.89128 12.2812 8.98032 12.2832 9.06923 12.2799H18.7413V12.2779Z" fill="#262626"/>
</svg>
