<svg width="17" height="16" viewBox="0 0 17 16" fill="none" xmlns="http://www.w3.org/2000/svg">
<path d="M16.7145 7.22937L14.1385 4.62575V1.6176C14.1385 1.07427 13.703 0.632069 13.1635 0.632069C12.6259 0.632069 12.1904 1.07229 12.1904 1.6176V2.65667L10.2716 0.717336C9.32204 -0.240433 7.67403 -0.23845 6.72839 0.719319L0.285459 7.22937C-0.0951529 7.61407 -0.0951529 8.23672 0.285459 8.62141C0.66607 9.0061 1.28407 9.0061 1.66469 8.62141L8.10565 2.11136C8.31558 1.90116 8.68442 1.90116 8.89434 2.11136L15.3373 8.62339C15.5276 8.81574 15.7767 8.91092 16.0259 8.91092C16.2751 8.91092 16.5242 8.81574 16.7145 8.62339C17.0952 8.2387 17.0952 7.61407 16.7145 7.22937ZM8.83941 3.98129C8.65303 3.79291 8.34893 3.79291 8.16255 3.98129L2.49654 9.70609C2.40629 9.7973 2.35724 9.92025 2.35724 10.0491V14.2253C2.35724 15.2048 3.14397 16 4.11316 16H6.9187V11.6077H10.0852V15.998H12.8908C13.86 15.998 14.6467 15.2029 14.6467 14.2233V10.0491C14.6467 9.92025 14.5957 9.7973 14.5074 9.70609L8.83941 3.98129Z" fill="#FFBD13"/>
</svg>
