<svg width="70" height="70" viewBox="0 0 70 70" fill="none" xmlns="http://www.w3.org/2000/svg">
<g clip-path="url(#clip0_294_1859)">
<path d="M5.06261 70C3.71203 69.6801 2.47789 69.1524 1.52728 68.0859C0.576668 67.0195 0.0205473 65.7467 0.0205473 64.3043C0.00684969 54.8707 -0.00821762 45.4371 0.0205473 36.0117C0.0315053 32.8016 2.66143 30.3516 5.98857 30.3475C15.6015 30.3365 25.214 30.3365 34.826 30.3475H35.7328C35.6369 30.1 35.5767 29.9154 35.4945 29.7404C33.6199 25.7986 32.6552 21.4873 32.6714 17.124C32.6714 14.1408 32.6714 11.1563 32.6714 8.17168C32.6714 6.07168 33.7672 4.94512 35.8492 4.77832C39.8873 4.4543 43.8377 3.74199 47.4922 1.87988C47.9784 1.63242 48.4332 1.33301 48.9058 1.05137C49.5085 0.7 50.1139 0.355469 50.7193 0.00683594H51.9521C52.4288 0.259766 52.9109 0.504491 53.3821 0.768358C54.3135 1.29062 55.2039 1.89766 56.1709 2.33926C59.4214 3.82129 62.8827 4.48574 66.4208 4.7291C68.159 4.84805 69.3658 5.47832 69.9986 7.11621V19.0107C69.8849 19.8639 69.7904 20.7211 69.6548 21.5701C68.6165 28.0743 65.7551 33.641 61.0706 38.2703C60.8391 38.5305 60.7059 38.8632 60.6939 39.2109C60.6583 40.9883 60.6774 42.7656 60.6774 44.543C60.6774 50.9861 60.6774 57.4301 60.6774 63.875C60.6774 66.6094 59.2159 68.7873 56.8106 69.6568C56.4298 69.7936 56.0353 69.8934 55.6463 70.0109L5.06261 70ZM58.3461 40.6465C58.0105 40.8803 57.8325 41.0211 57.6393 41.1346C56.0121 42.0916 54.3971 43.0637 52.7479 43.9797C52.3484 44.2062 51.8997 44.3321 51.4405 44.3466C50.9814 44.3612 50.5255 44.2639 50.1125 44.0631C44.8814 41.6814 40.6612 38.1022 37.5108 33.2979C37.2204 32.8535 36.9423 32.6553 36.3889 32.6566C26.3441 32.6758 16.2992 32.6808 6.25431 32.6717C3.73533 32.6717 2.34502 34.0758 2.34502 36.6188C2.34502 45.6422 2.34502 54.6656 2.34502 63.6891C2.34502 66.2949 3.73532 67.6717 6.36388 67.6717H54.3451C56.9599 67.6717 58.3543 66.2826 58.3557 63.6713C58.3557 56.2666 58.3557 48.8615 58.3557 41.4559L58.3461 40.6465ZM67.8385 13.3219L67.6714 13.3109C67.6714 11.5568 67.6618 9.80273 67.6714 8.04863C67.6714 7.41973 67.3975 7.14629 66.777 7.10391C65.8702 7.04102 64.9607 6.95488 64.0594 6.83047C59.7392 6.23301 55.5669 5.19805 51.9452 2.60039C51.5083 2.28731 51.1535 2.31328 50.7056 2.60039C49.7276 3.21973 48.751 3.86231 47.7072 4.35449C44.0089 6.09492 40.0503 6.77988 36.0136 7.10527C35.1548 7.175 35 7.32402 34.9986 8.19902C34.9986 9.83965 34.9685 11.4803 34.9986 13.1209C35.0562 15.6898 34.9178 18.2943 35.2863 20.8236C36.7026 30.5389 42.0118 37.4801 50.7809 41.8045C50.9519 41.8759 51.1353 41.9126 51.3206 41.9126C51.5059 41.9126 51.6894 41.8759 51.8603 41.8045C60.3418 37.6729 65.5579 30.9777 67.2126 21.6891C67.718 18.9479 67.6481 16.1123 67.8372 13.3219H67.8385Z" fill="#4A5A79"/>
<path d="M11.6798 36.1921C12.5441 36.1921 13.4111 36.1469 14.2727 36.2016C15.1355 36.2522 15.9472 36.6266 16.545 37.2496C17.1427 37.8727 17.4824 38.6983 17.4958 39.5608C17.5204 40.3579 17.5122 41.1549 17.4958 41.9506C17.4684 43.9249 16.0466 45.4342 14.081 45.4958C12.4674 45.545 10.8483 45.5463 9.23476 45.4958C7.3171 45.4342 5.90762 43.9768 5.85283 42.0778C5.82817 41.2137 5.82406 40.3469 5.85283 39.4801C5.87767 38.6418 6.21388 37.8427 6.79612 37.2381C7.37836 36.6334 8.16505 36.2664 9.00326 36.2085C9.88676 36.1483 10.784 36.1975 11.6647 36.1975L11.6798 36.1921ZM11.6579 38.5163C10.8853 38.5163 10.1114 38.493 9.34024 38.5231C8.61016 38.5504 8.21429 38.9606 8.19101 39.6893C8.16772 40.418 8.1732 41.144 8.19101 41.8768C8.20608 42.7067 8.61974 43.1606 9.43885 43.1743C10.9392 43.1989 12.4395 43.1989 13.9399 43.1743C14.7152 43.1606 15.1507 42.6917 15.1727 41.9178C15.1932 41.2137 15.1905 40.5083 15.1727 39.8042C15.1548 38.9715 14.7398 38.5463 13.9111 38.5231C13.1577 38.4958 12.4085 38.5122 11.6579 38.5122V38.5163Z" fill="#4A5A79"/>
<path d="M52.5013 61.8214C52.5013 60.2806 52.5013 58.8068 52.5013 57.3316C52.5013 56.6917 52.7411 56.2159 53.3944 56.0532C54.1272 55.87 54.8039 56.3486 54.8162 57.1196C54.8455 59.1012 54.8455 61.0827 54.8162 63.0642C54.8066 63.7478 54.3286 64.1443 53.5835 64.1484C51.306 64.162 49.0286 64.162 46.7511 64.1484C46.006 64.1484 45.5512 63.7054 45.5265 63.0546C45.4991 62.371 45.9621 61.8611 46.7169 61.8392C47.8551 61.8064 48.9948 61.8282 50.133 61.8269L52.5013 61.8214Z" fill="#4A5A79"/>
<path d="M11.0552 60.6785C12.3509 60.6785 13.6467 60.6785 14.9439 60.6785C15.8205 60.6785 16.3136 61.1146 16.3136 61.8365C16.3136 62.5583 15.8027 63.0027 14.9343 63.0054C12.3646 63.0136 9.79544 63.0136 7.22669 63.0054C6.35415 63.0054 5.85693 62.557 5.85693 61.8296C5.85693 61.1023 6.3432 60.6839 7.22669 60.6785C8.50878 60.673 9.77717 60.6785 11.0552 60.6785Z" fill="#4A5A79"/>
<path d="M18.6369 51.3256C17.9082 51.3256 17.1781 51.3434 16.4453 51.3256C15.6618 51.3023 15.1865 50.8594 15.1769 50.1881C15.1673 49.5168 15.6412 49.0205 16.4097 49.0068C17.9118 48.9795 19.4154 48.9795 20.9203 49.0068C21.6915 49.0205 22.1613 49.51 22.1531 50.1854C22.1448 50.8607 21.6805 51.2791 20.8901 51.3297C20.8436 51.3297 20.7984 51.3297 20.7532 51.3297H18.6342L18.6369 51.3256Z" fill="#4A5A79"/>
<path d="M46.6238 51.3268C45.895 51.3268 45.1663 51.3446 44.4321 51.3268C43.6432 51.3022 43.1829 50.862 43.1802 50.1784C43.1774 49.4948 43.6336 49.0204 44.413 49.0067C45.917 48.9812 47.4205 48.9812 48.9236 49.0067C49.6811 49.0204 50.1701 49.5358 50.1564 50.1948C50.1427 50.8538 49.655 51.3036 48.8743 51.3255C48.1305 51.3419 47.3785 51.3254 46.6238 51.3268Z" fill="#4A5A79"/>
<path d="M9.31975 51.3241C8.56775 51.3241 7.813 51.3446 7.06374 51.3241C6.31449 51.3036 5.87344 50.8606 5.85974 50.2016C5.84467 49.518 6.29669 49.0245 7.0706 49.0094C8.57368 48.9803 10.0772 48.9803 11.5812 49.0094C12.3401 49.0217 12.8386 49.5221 12.8373 50.177C12.8359 50.8319 12.3442 51.3049 11.5744 51.3282C10.8046 51.3514 10.0704 51.3254 9.31975 51.3241Z" fill="#4A5A79"/>
<path d="M28.0977 48.9931C28.8045 48.9931 29.5113 48.974 30.2167 48.9931C31.007 49.0191 31.4686 49.458 31.4796 50.1388C31.4906 50.8525 31.0221 51.3064 30.1907 51.316C28.7296 51.3351 27.2717 51.3351 25.817 51.316C25.0034 51.305 24.4925 50.8265 24.5021 50.1443C24.5117 49.4621 25.0267 49.0095 25.8431 48.989C26.5951 48.9781 27.3471 48.9918 28.0977 48.9931Z" fill="#4A5A79"/>
<path d="M37.3258 51.3241C36.5751 51.3241 35.819 51.3432 35.0711 51.3241C34.3233 51.3049 33.8726 50.8565 33.8521 50.2112C33.8301 49.5358 34.2972 49.0245 35.0574 49.0094C36.5834 48.9803 38.1093 48.9803 39.6352 49.0094C40.357 49.0231 40.8268 49.5249 40.8323 50.1606C40.8323 50.8196 40.3447 51.2981 39.5804 51.3227C38.816 51.3473 38.0778 51.3254 37.3258 51.3241Z" fill="#4A5A79"/>
<path d="M13.4661 56.0162C14.0359 56.0162 14.6057 55.9943 15.1728 56.0162C15.8577 56.049 16.2987 56.492 16.3152 57.125C16.3316 57.758 15.9193 58.283 15.2468 58.3103C14.0428 58.3582 12.8346 58.3582 11.6306 58.3103C11.4753 58.3101 11.3217 58.2775 11.1797 58.2146C11.0377 58.1517 10.9104 58.0599 10.806 57.9452C10.7016 57.8304 10.6223 57.6951 10.5732 57.548C10.5242 57.4009 10.5064 57.2452 10.5211 57.0908C10.5512 56.4646 10.9923 56.0545 11.6922 56.0039C11.737 56.0039 11.7826 56.0039 11.8292 56.0039H13.4729L13.4661 56.0162Z" fill="#4A5A79"/>
<path d="M37.3314 15.0115C37.3314 13.9178 37.3314 12.824 37.3314 11.7303C37.3314 10.117 38.1039 9.24474 39.7106 9.03556C42.8045 8.63211 45.8199 7.76561 48.6551 6.46524C49.1729 6.23009 49.6852 5.98354 50.192 5.7256C50.933 5.35099 51.6754 5.31544 52.4178 5.70235C55.7798 7.43351 59.4153 8.574 63.1649 9.07384C64.5114 9.25157 65.3387 10.1238 65.3223 11.3981C65.2826 14.4674 65.4593 17.5764 65.0292 20.5992C63.8978 28.6807 59.6228 34.7483 52.5644 38.8443C51.722 39.3338 50.87 39.3078 50.0386 38.8088C41.9803 33.9744 37.6861 26.8965 37.3396 17.4725C37.3094 16.6522 37.3396 15.8318 37.3396 15.0115H37.3314ZM39.6599 11.5936C39.6599 13.442 39.6093 15.3998 39.6681 17.3549C39.9229 25.7754 43.7172 32.1533 50.8426 36.5953C51.2001 36.8168 51.4672 36.8127 51.8275 36.5953C57.4362 33.2074 60.9843 28.3247 62.4718 21.9473C63.2663 18.5115 62.9745 15.0156 62.9787 11.5375C62.9787 11.5006 62.9334 11.4623 62.8855 11.3885C58.9623 10.8907 55.1546 9.72047 51.6302 7.9295C51.4385 7.8338 51.1111 7.89942 50.8865 7.99102C49.3934 8.59806 47.9483 9.35138 46.4169 9.82989C44.2363 10.508 41.9926 10.9934 39.6627 11.5908L39.6599 11.5936Z" fill="#4A5A79"/>
<path d="M47.8072 17.4534C48.0195 14.3088 49.0605 12.9061 51.1891 12.8459C52.4219 12.8118 53.3917 13.2916 54.1451 14.2541C54.8984 15.2166 54.8519 16.3295 54.83 17.4315C56.6106 17.8635 57.1585 18.5526 57.1585 20.3614C57.1585 22.4545 57.1585 24.5491 57.1585 26.6436C57.1585 28.22 56.2367 29.1428 54.656 29.151C52.4242 29.1638 50.1938 29.1638 47.9647 29.151C46.432 29.1401 45.5211 28.2063 45.5156 26.66C45.5074 24.5204 45.5156 22.3807 45.5156 20.2411C45.5129 18.5485 46.1169 17.8129 47.8072 17.4534ZM54.7779 26.7967V19.8856H47.8949V26.7967H54.7779ZM52.4945 17.4793C52.4548 16.659 52.7685 15.7813 51.8726 15.352C51.6806 15.2779 51.4748 15.2457 51.2692 15.2578C51.0636 15.2698 50.863 15.3257 50.681 15.4217C49.9002 15.9098 50.2152 16.7329 50.1947 17.4725L52.4945 17.4793Z" fill="#4A5A79"/>
<path d="M51.326 24.4834C51.1724 24.4838 51.0203 24.4535 50.8787 24.3941C50.7371 24.3347 50.6089 24.2475 50.5017 24.1377C50.3945 24.0279 50.3105 23.8977 50.2546 23.7549C50.1988 23.6121 50.1723 23.4595 50.1767 23.3063C50.1865 23.0088 50.3085 22.726 50.5183 22.5146C50.7281 22.3031 51.0103 22.1786 51.3082 22.166C51.6179 22.167 51.9151 22.2882 52.1368 22.5041C52.3585 22.7201 52.4872 23.0136 52.4957 23.3227C52.4963 23.4758 52.4664 23.6276 52.4077 23.7691C52.349 23.9106 52.2628 24.0391 52.1539 24.1471C52.0451 24.2551 51.9159 24.3404 51.7737 24.3981C51.6316 24.4559 51.4794 24.4849 51.326 24.4834Z" fill="#4A5A79"/>
</g>
<defs>
<clipPath id="clip0_294_1859">
<rect width="70" height="70" fill="white"/>
</clipPath>
</defs>
</svg>
