<svg width="74" height="74" viewBox="0 0 74 74" fill="none" xmlns="http://www.w3.org/2000/svg">
<g clip-path="url(#clip0_294_1876)">
<path d="M36.2826 74C34.7667 73.499 33.6576 72.6014 33.3753 70.9365C33.1017 69.3208 33.8256 67.8744 35.2575 67.0434C35.4689 66.9204 35.7396 66.6569 35.744 66.4542C35.7802 64.4823 35.7657 62.509 35.7657 60.4257H34.8796C28.763 60.4257 22.6459 60.4257 16.5284 60.4257C12.4354 60.4257 9.86836 57.8472 9.86836 53.7442C9.86836 52.7148 9.86836 51.6854 9.86836 50.5779C9.03441 50.5779 8.26853 50.5403 7.50987 50.6025C7.30718 50.6184 7.0755 50.9008 6.94665 51.1165C6.19088 52.4195 4.74159 53.1882 3.31548 53.0188C2.58071 52.937 1.88694 52.6383 1.32252 52.1608C0.75811 51.6833 0.348616 51.0486 0.146198 50.3376C-0.104765 49.473 -0.0294612 48.5464 0.357823 47.7337C0.745106 46.921 1.4174 46.2788 2.247 45.9291C3.97136 45.2052 5.97515 45.8393 6.86701 47.4782C7.14354 47.9878 7.43748 48.1558 7.98042 48.1167C8.57258 48.0733 9.17197 48.1066 9.81335 48.1066V38.2414C9.02429 38.2414 8.25694 38.1966 7.49683 38.2689C7.27821 38.2892 7.03933 38.615 6.89599 38.848C6.48104 39.5457 5.85167 40.0904 5.1018 40.4012C4.35192 40.7119 3.52172 40.772 2.73493 40.5723C1.97422 40.3657 1.29949 39.9213 0.809279 39.304C0.319069 38.6867 0.0390453 37.9288 0.0101103 37.1411C-0.0246376 35.4125 0.991721 33.9705 2.59881 33.4681C3.40865 33.2055 4.28516 33.2367 5.07426 33.5563C5.86336 33.8759 6.51455 34.4634 6.91335 35.2156C7.145 35.6499 7.39693 35.7947 7.86023 35.7672C8.4828 35.7339 9.1097 35.7672 9.79886 35.7672V25.8919C9.01269 25.8919 8.24389 25.8528 7.48234 25.918C7.28254 25.9339 7.06828 26.2437 6.93219 26.4624C6.06349 27.8479 4.83861 28.4777 3.21994 28.3242C1.81554 28.1924 0.561729 27.1153 0.150545 25.7182C-0.104641 24.8552 -0.0379156 23.929 0.338346 23.1115C0.714608 22.2941 1.37481 21.641 2.19631 21.2735C3.03005 20.9001 3.97345 20.8526 4.84047 21.1405C5.70749 21.4283 6.4352 22.0306 6.88005 22.8284C7.14066 23.3062 7.40851 23.4771 7.93118 23.4365C8.54795 23.3887 9.17053 23.4249 9.86259 23.4249C9.86259 21.7904 9.86259 20.2311 9.86259 18.6733C9.86259 18.1912 9.84812 17.7091 9.86259 17.2256C9.95525 15.0959 11.5117 13.5801 13.6443 13.5757C18.509 13.5656 23.3737 13.5757 28.2384 13.5757C29.527 13.5757 30.6274 14.0274 31.6148 14.8295C32.9569 15.9211 34.315 17.0012 35.757 18.1464C35.7874 17.8568 35.8236 17.6874 35.8221 17.5122C35.8062 14.2851 35.7758 11.0581 35.7773 7.83097C35.7773 7.35321 35.6166 7.12446 35.1982 6.89861C34.472 6.50194 33.902 5.87069 33.5811 5.10806C33.2603 4.34542 33.2076 3.4965 33.4318 2.70007C33.6454 1.92871 34.1045 1.24792 34.7395 0.760741C35.3746 0.273558 36.1511 0.0064954 36.9515 -2.85212e-05C37.7645 -0.0159431 38.5599 0.238396 39.2128 0.723111C39.8657 1.20783 40.3394 1.89551 40.5595 2.67835C40.7888 3.47148 40.7417 4.31899 40.426 5.08187C40.1103 5.84475 39.5448 6.47769 38.8221 6.87689C38.3631 7.12446 38.2328 7.38796 38.2429 7.87585C38.2777 11.1753 38.2864 14.4748 38.3023 17.7743C38.3023 17.9871 38.3023 18.1999 38.3023 18.4982H50.1079C52.8023 18.4982 54.2443 19.9387 54.2675 22.6431C54.2675 22.8777 54.2675 23.1137 54.2675 23.4249C55.9542 23.4249 57.5613 23.4076 59.1684 23.4249C61.4849 23.4539 63.3874 24.9205 63.9636 27.0936C64.0664 27.4845 64.1084 27.8899 64.1996 28.3459C64.9829 28.3459 65.7488 28.3618 66.5161 28.3343C66.6027 28.3214 66.6855 28.2899 66.7588 28.2419C66.832 28.1939 66.894 28.1306 66.9404 28.0564C67.7106 26.5898 68.9166 25.7964 70.5599 25.9151C72.2684 26.0382 73.3846 27.0169 73.9 28.6659C73.9116 28.705 73.9652 28.7296 74 28.76V30.3525C73.9826 30.3699 73.9565 30.3844 73.9507 30.4046C73.4643 31.9972 72.4682 33.0526 70.7655 33.2466C69.018 33.4479 67.7468 32.6849 66.9302 31.1314C66.8849 31.0554 66.8236 30.9902 66.7506 30.9402C66.6777 30.8902 66.5947 30.8566 66.5075 30.8419C65.7444 30.8129 64.98 30.8288 64.1808 30.8288V40.7171C64.8613 40.7171 65.5085 40.6853 66.1498 40.7273C66.6276 40.7591 66.8535 40.5825 67.088 40.1612C67.8554 38.8003 69.0614 38.1473 70.628 38.2791C72.1685 38.4065 73.1979 39.2563 73.7799 40.6708C73.8523 40.846 73.9247 41.0241 73.9942 41.2007V42.7932C73.9594 42.8236 73.9044 42.8468 73.8928 42.8844C73.3745 44.5248 72.2582 45.502 70.5527 45.6222C68.9079 45.7394 67.7034 44.9475 66.9331 43.4853C66.887 43.4106 66.8252 43.3469 66.7519 43.2986C66.6786 43.2504 66.5957 43.2187 66.5089 43.2058C65.7473 43.1783 64.9843 43.1928 64.2054 43.1928V53.0377C64.9394 53.0377 65.6112 53.0116 66.2816 53.0478C66.6841 53.0695 66.8607 52.903 67.0446 52.5671C68.1001 50.6069 70.4571 49.9887 72.2959 51.144C73.1805 51.6999 73.625 52.5556 73.9956 53.4763V55.0689C73.9001 55.2846 73.8031 55.5032 73.7061 55.7146C72.6086 58.2641 69.1005 58.836 67.5079 56.5833C66.7941 55.5698 66.0687 55.3917 65.035 55.496C64.7454 55.5249 64.4443 55.4468 64.1735 55.5163C63.9404 55.5756 63.6422 55.7247 63.5481 55.9202C62.0901 58.9301 59.7084 60.4314 56.3625 60.4271C50.6117 60.4203 44.861 60.4203 39.1102 60.4271H38.2328C38.2328 62.399 38.2444 64.2507 38.2328 66.1009C38.2328 66.5758 38.3298 66.861 38.8032 67.1144C40.1859 67.8382 40.8838 69.3338 40.6434 70.8786C40.3785 72.5754 39.2709 73.499 37.7261 74.0101L36.2826 74ZM20.966 57.9615H56.2409C59.6578 57.9615 61.6789 55.9477 61.6804 52.5353C61.6804 44.6604 61.6804 36.7855 61.6804 28.9105C61.6804 26.7997 60.761 25.889 58.6399 25.889H25.3399C23.0581 25.889 22.2241 26.7316 22.2241 29.0379C22.2241 37.0576 22.227 45.0769 22.2328 53.0956C22.227 54.7822 22.1127 56.4139 20.966 57.9615ZM51.741 23.4249C51.9191 21.6615 51.7903 20.9087 49.6446 20.942C45.5038 21.01 41.3616 20.9565 37.2193 20.9652C36.0073 20.9846 34.8276 20.5743 33.8893 19.8069C32.6514 18.8109 31.3976 17.8336 30.1713 16.8231C29.5422 16.2924 28.7397 16.012 27.917 16.0355C23.3419 16.0558 18.7667 16.0442 14.1901 16.0456C12.6598 16.0456 12.334 16.3728 12.334 17.9147C12.334 29.8617 12.334 41.8078 12.334 53.7529C12.3291 54.1376 12.3562 54.5221 12.4151 54.9024C12.5044 55.4443 12.7145 55.9592 13.0297 56.409C13.3449 56.8588 13.7573 57.2319 14.2362 57.5008C14.7151 57.7696 15.2484 57.9273 15.7966 57.9622C16.3447 57.9971 16.8937 57.9083 17.4029 57.7024C18.939 57.0929 19.744 55.7783 19.744 53.8426C19.744 45.5585 19.7464 37.2738 19.7512 28.9887C19.7351 28.3852 19.7886 27.7819 19.9105 27.1906C20.465 24.8814 22.408 23.4264 24.9128 23.4264C33.5573 23.4206 42.2022 23.4206 50.8477 23.4264L51.741 23.4249ZM4.92983 24.6671C4.92793 24.3397 4.79711 24.0261 4.56568 23.7944C4.33425 23.5627 4.02085 23.4316 3.69338 23.4293C3.37837 23.4421 3.07938 23.5716 2.85459 23.7926C2.62979 24.0136 2.49529 24.3104 2.47722 24.6251C2.47298 24.7875 2.50105 24.9491 2.55979 25.1005C2.61852 25.2519 2.70674 25.3902 2.81934 25.5072C2.93195 25.6243 3.06668 25.7178 3.21573 25.7823C3.36478 25.8469 3.52517 25.8812 3.68758 25.8832C3.84984 25.8881 4.01141 25.8602 4.16262 25.8011C4.31382 25.7421 4.45156 25.6531 4.56755 25.5396C4.68355 25.426 4.77543 25.2902 4.83768 25.1403C4.89993 24.9904 4.93127 24.8294 4.92983 24.6671ZM3.67602 35.7744C3.35836 35.7883 3.05856 35.9252 2.83999 36.1561C2.62142 36.387 2.50118 36.6939 2.50475 37.0118C2.50832 37.3298 2.63541 37.6338 2.85911 37.8598C3.08281 38.0857 3.38563 38.2159 3.70352 38.2226C3.86769 38.2261 4.03089 38.1965 4.1834 38.1357C4.33591 38.0749 4.47462 37.984 4.59131 37.8685C4.708 37.753 4.80027 37.6152 4.86264 37.4633C4.925 37.3114 4.95617 37.1485 4.95433 36.9843C4.95248 36.8201 4.91765 36.658 4.85189 36.5075C4.78613 36.3571 4.6908 36.2214 4.57155 36.1085C4.45229 35.9957 4.31154 35.9079 4.1577 35.8505C4.00386 35.7931 3.84007 35.7673 3.67602 35.7744ZM71.5329 41.9043C71.529 41.742 71.4926 41.5821 71.4258 41.4341C71.359 41.2861 71.2631 41.1531 71.1438 41.0429C71.0246 40.9327 70.8844 40.8476 70.7316 40.7926C70.5788 40.7376 70.4165 40.7139 70.2544 40.7229C70.0921 40.7252 69.9319 40.7607 69.7838 40.8272C69.6356 40.8936 69.5026 40.9897 69.3929 41.1094C69.2832 41.2291 69.1992 41.37 69.1459 41.5234C69.0927 41.6767 69.0713 41.8394 69.0831 42.0013C69.1022 42.3161 69.24 42.6119 69.4686 42.829C69.6973 43.0461 69.9999 43.1684 70.3152 43.1711C70.6426 43.1584 70.9524 43.0193 71.1794 42.7831C71.4064 42.5469 71.5331 42.2319 71.5329 41.9043ZM3.69483 50.5692C4.02245 50.5666 4.33592 50.4354 4.56773 50.2038C4.79954 49.9723 4.93115 49.659 4.93418 49.3314C4.93847 49.0159 4.8182 48.7114 4.59947 48.484C4.38075 48.2567 4.08119 48.1247 3.76577 48.1167C3.60363 48.1089 3.44157 48.1334 3.28897 48.1888C3.13637 48.2441 2.99628 48.3292 2.87682 48.4391C2.75736 48.549 2.6609 48.6815 2.59305 48.8289C2.5252 48.9764 2.48732 49.1359 2.48156 49.2981C2.48015 49.6257 2.60573 49.9412 2.83196 50.1782C3.05819 50.4152 3.36746 50.5554 3.69483 50.5692ZM38.2328 70.311C38.2366 70.1506 38.2088 69.9909 38.1509 69.8412C38.093 69.6915 38.0061 69.5547 37.8954 69.4385C37.7846 69.3224 37.652 69.2292 37.5052 69.1643C37.3584 69.0993 37.2003 69.064 37.0398 69.0602C36.8793 69.0564 36.7197 69.0842 36.5699 69.1421C36.4202 69.2 36.2834 69.2868 36.1672 69.3976C36.0511 69.5084 35.9579 69.6409 35.8929 69.7877C35.828 69.9345 35.7926 70.0927 35.7888 70.2531C35.7812 70.5772 35.9025 70.8911 36.1263 71.1256C36.35 71.3602 36.6578 71.4963 36.9818 71.504C37.3059 71.5117 37.6198 71.3903 37.8544 71.1666C38.089 70.9429 38.2251 70.6351 38.2328 70.311ZM38.2328 3.72509C38.2372 3.56287 38.2093 3.40138 38.1507 3.25004C38.0921 3.0987 38.004 2.96054 37.8915 2.84358C37.779 2.72663 37.6443 2.63323 37.4954 2.56882C37.3464 2.50441 37.1861 2.47028 37.0238 2.46842C36.8616 2.4688 36.7009 2.50124 36.5512 2.56387C36.4015 2.6265 36.2656 2.71809 36.1514 2.83338C36.0372 2.94867 35.9469 3.08538 35.8857 3.23568C35.8244 3.38597 35.7935 3.54688 35.7946 3.70917C35.7945 4.02424 35.9173 4.32694 36.1368 4.55295C36.3563 4.77896 36.6553 4.91046 36.9703 4.9195C37.1315 4.92531 37.2922 4.89881 37.4429 4.84157C37.5937 4.78433 37.7315 4.6975 37.8482 4.5862C37.9649 4.4749 38.0581 4.34137 38.1224 4.19349C38.1868 4.0456 38.2208 3.88634 38.2226 3.72509H38.2328ZM71.5329 29.5693C71.5201 29.2418 71.3798 28.9323 71.1421 28.7068C70.9044 28.4812 70.5879 28.3574 70.2602 28.3618C69.9328 28.3783 69.6253 28.5237 69.4047 28.7662C69.1842 29.0087 69.0685 29.3287 69.0831 29.6561C69.0926 29.9722 69.227 30.2716 69.4569 30.4887C69.6868 30.7058 69.9934 30.8229 70.3095 30.8144C70.472 30.8146 70.633 30.7824 70.7829 30.7196C70.9329 30.6568 71.0688 30.5648 71.1827 30.4488C71.2967 30.3329 71.3863 30.1954 71.4464 30.0443C71.5066 29.8933 71.5359 29.7318 71.5329 29.5693ZM70.337 53.0377C70.1746 53.0324 70.0128 53.0598 69.8612 53.1181C69.7096 53.1764 69.5712 53.2645 69.4542 53.3772C69.3372 53.4899 69.2439 53.6249 69.18 53.7742C69.116 53.9235 69.0826 54.0841 69.0817 54.2466C69.0794 54.4088 69.1092 54.5699 69.1695 54.7206C69.2298 54.8713 69.3193 55.0085 69.4329 55.1244C69.5465 55.2403 69.682 55.3325 69.8315 55.3958C69.9809 55.4591 70.1414 55.4921 70.3037 55.4931C70.6187 55.4861 70.9197 55.3611 71.147 55.1429C71.3744 54.9247 71.5115 54.6291 71.5314 54.3146C71.5396 53.988 71.4189 53.6714 71.1953 53.4332C70.9718 53.195 70.6634 53.0545 70.337 53.042V53.0377Z" fill="#4A5A79"/>
<path d="M55.504 53.0422C55.9977 53.0422 56.3829 53.0219 56.7651 53.0422C57.4658 53.0856 57.9509 53.588 57.9596 54.2453C57.9631 54.5615 57.8447 54.8669 57.6291 55.0982C57.4134 55.3295 57.117 55.4689 56.8013 55.4874C56.6102 55.5063 56.4162 55.4961 56.2222 55.4961H27.6796C27.5117 55.4961 27.3423 55.4961 27.1743 55.4961C26.4403 55.4513 25.9104 54.9387 25.9046 54.2757C25.8988 53.6126 26.4287 53.0812 27.157 53.0436C27.516 53.0248 27.8809 53.0436 28.3254 53.0436C28.3384 52.7627 28.3587 52.5108 28.3601 52.2575C28.3601 50.5723 28.3442 48.8856 28.3746 47.2004C28.3754 46.8208 28.4752 46.4481 28.6642 46.1189C28.9653 45.6353 29.4938 45.5398 30.0135 45.7222C30.5333 45.9046 30.8157 46.3173 30.8171 46.8804C30.8171 48.639 30.8171 50.3976 30.8171 52.1561C30.8171 52.4167 30.8171 52.6773 30.8171 52.9857H33.2871C33.2871 51.5857 33.2871 50.2176 33.2871 48.8509C33.2773 48.561 33.2865 48.2708 33.3146 47.9822C33.4058 47.3148 33.9067 46.8645 34.5235 46.8602C34.6811 46.8571 34.8378 46.8854 34.9843 46.9435C35.1308 47.0016 35.2643 47.0883 35.377 47.1986C35.4897 47.3088 35.5793 47.4404 35.6405 47.5856C35.7018 47.7308 35.7336 47.8868 35.7339 48.0444C35.773 49.3199 35.7527 50.5969 35.7585 51.8738V52.9871H38.1938C38.2068 52.7454 38.23 52.492 38.2314 52.2372C38.2314 50.455 38.2198 48.6728 38.2488 46.8906C38.2618 46.1146 38.7628 45.6469 39.4635 45.6484C40.1353 45.6484 40.6015 46.09 40.6869 46.8211C40.7058 47.0367 40.7116 47.2533 40.7043 47.4697C40.7043 49.0362 40.7043 50.6022 40.7043 52.1677V52.9886H43.1656V52.23C43.1656 49.3885 43.1656 46.546 43.1656 43.7026C43.1563 43.461 43.1645 43.2191 43.1902 42.9787C43.2815 42.3417 43.6941 41.987 44.3051 41.9392C44.5725 41.9031 44.844 41.9661 45.0682 42.1162C45.2925 42.2663 45.4541 42.4933 45.5227 42.7543C45.604 43.0551 45.6392 43.3666 45.627 43.678C45.6342 46.7603 45.627 49.8411 45.627 52.9756H48.0883V33.9127C48.0802 33.6714 48.0846 33.4298 48.1013 33.1888C48.118 32.8976 48.2419 32.6228 48.449 32.4172C48.6561 32.2117 48.9319 32.09 49.2233 32.0755C49.5146 32.0516 49.8047 32.1343 50.0395 32.3082C50.2744 32.4821 50.4382 32.7354 50.5003 33.0209C50.5479 33.3079 50.5644 33.5991 50.5496 33.8896C50.5496 39.9596 50.5496 46.0301 50.5496 52.1011V52.9944H53.0109V31.4399C53.0109 31.2228 53.0007 31.0056 53.0181 30.7899C53.0746 30.0877 53.5683 29.6186 54.2372 29.6172C54.9061 29.6157 55.3954 30.0863 55.4649 30.7855C55.4852 31.0013 55.4649 31.2199 55.4649 31.4356C55.4649 38.326 55.4649 45.2155 55.4649 52.104L55.504 53.0422Z" fill="#4A5A79"/>
<path d="M35.7888 44.3873C34.8118 44.3879 33.8443 44.1955 32.9418 43.8211C32.0393 43.4468 31.2197 42.8978 30.53 42.2058C29.8402 41.5138 29.294 40.6924 28.9226 39.7888C28.5512 38.8851 28.362 37.917 28.3658 36.94C28.3817 32.9137 31.7161 29.6084 35.7584 29.6113C36.7286 29.6093 37.6898 29.7985 38.5869 30.1679C39.4841 30.5373 40.2997 31.0799 40.9872 31.7645C41.6746 32.4491 42.2205 33.2624 42.5937 34.158C42.9668 35.0536 43.1599 36.0139 43.1619 36.9841C43.1639 37.9543 42.9747 38.9154 42.6053 39.8125C42.2358 40.7097 41.6933 41.5252 41.0087 42.2127C40.324 42.9001 39.5107 43.446 38.615 43.8191C37.7194 44.1922 36.759 44.3853 35.7888 44.3873ZM31.6017 39.4823C32.5355 38.5311 33.4317 37.6262 34.3149 36.7098C34.4346 36.5941 34.5108 36.4407 34.5306 36.2754C34.548 34.9594 34.5408 33.6434 34.5408 32.3187C31.7682 32.7704 29.6949 36.5346 31.6017 39.4823ZM40.4696 38.2415C39.1159 38.2415 37.8216 38.2415 36.5272 38.2415C36.3854 38.2432 36.2487 38.2944 36.1406 38.3863C35.2039 39.31 34.2802 40.2452 33.3449 41.1848C35.909 42.9395 39.7153 41.389 40.4696 38.2415ZM40.4537 35.7311C40.0888 34.0314 38.5628 32.546 37.0528 32.3418V35.7311H40.4537Z" fill="#4A5A79"/>
</g>
<defs>
<clipPath id="clip0_294_1876">
<rect width="74" height="74" fill="white"/>
</clipPath>
</defs>
</svg>
