<svg width="20" height="17" viewBox="0 0 20 17" fill="none" xmlns="http://www.w3.org/2000/svg">
<g clip-path="url(#clip0_294_2637)">
<path d="M8.67202 17L8.82858 17C9.09433 16.8976 9.17848 16.702 9.17691 16.4328C9.16987 15.0789 9.17378 13.7245 9.17378 12.3702L9.17378 12.1323L9.44775 12.1323C12.7667 12.1323 16.0859 12.1323 19.4051 12.1323C19.8658 12.1323 20.0008 12.0021 20.0008 11.5587L20.0008 5.42723C20.0008 4.96094 19.8795 4.84218 19.402 4.84218L9.17339 4.84218L9.17339 4.59971C9.17339 3.25172 9.17339 1.90385 9.17339 0.556116C9.17589 0.473997 9.16867 0.39187 9.15187 0.311359C9.07985 0.0224494 8.75617 -0.0917455 8.50725 0.0829714C8.44559 0.129261 8.38775 0.18017 8.33425 0.235229C5.64149 2.85204 2.94938 5.46974 0.257927 8.08833C0.158905 8.18463 0.0861074 8.30644 0.000784023 8.41644L0.00078402 8.60677C0.0935441 8.71868 0.176519 8.8401 0.280628 8.94097C2.95043 11.5337 5.62231 14.1233 8.29629 16.7099C8.41057 16.8188 8.54599 16.9029 8.67202 17Z" fill="white"/>
</g>
<defs>
<clipPath id="clip0_294_2637">
<rect width="17" height="20" fill="white" transform="matrix(1.19249e-08 -1 -1 -1.19249e-08 20 17)"/>
</clipPath>
</defs>
</svg>
