<svg width="19" height="19" viewBox="0 0 19 19" fill="none" xmlns="http://www.w3.org/2000/svg">
<rect width="19" height="19" rx="9.5" fill="#FFBD13"/>
<path d="M10.8874 8.11286C12.0612 9.28788 12.0451 11.1717 10.8945 12.3287C10.8923 12.3311 10.8897 12.3336 10.8874 12.336L9.56716 13.6562C8.40273 14.8206 6.50827 14.8205 5.34402 13.6562C4.1796 12.492 4.1796 10.5973 5.34402 9.43308L6.07301 8.70409C6.26633 8.51077 6.59925 8.63926 6.60924 8.91246C6.62197 9.26063 6.6844 9.61043 6.79961 9.94822C6.83862 10.0626 6.81075 10.1891 6.72529 10.2746L6.46818 10.5317C5.91757 11.0823 5.9003 11.9788 6.44548 12.5348C6.99605 13.0963 7.90099 13.0996 8.45578 12.5448L9.776 11.2248C10.3298 10.671 10.3275 9.77577 9.776 9.22424C9.70329 9.15167 9.63005 9.09528 9.57284 9.05589C9.53236 9.0281 9.49895 8.99124 9.47525 8.94824C9.45155 8.90524 9.43823 8.8573 9.43635 8.80824C9.42858 8.60064 9.50213 8.38671 9.66617 8.22266L10.0798 7.80902C10.1883 7.70055 10.3584 7.68723 10.4842 7.77501C10.6282 7.87559 10.7632 7.98864 10.8874 8.11286ZM13.6562 5.3439C12.492 4.17963 10.5975 4.17948 9.43307 5.3439L8.11285 6.66412C8.1105 6.66648 8.10794 6.66903 8.10578 6.67139C6.95518 7.82839 6.93905 9.71223 8.11285 10.8872C8.23707 11.0115 8.37198 11.1245 8.51601 11.2251C8.64179 11.3129 8.81196 11.2995 8.92041 11.1911L9.33404 10.7774C9.49808 10.6134 9.57164 10.3995 9.56386 10.1919C9.56198 10.1428 9.54866 10.0948 9.52496 10.0519C9.50127 10.0089 9.46785 9.97199 9.42738 9.94419C9.37017 9.9048 9.29693 9.84842 9.22422 9.77585C8.67269 9.22432 8.67037 8.32913 9.22422 7.77528L10.5444 6.45526C11.0992 5.90048 12.0041 5.90382 12.5547 6.46528C13.0999 7.02127 13.0827 7.9178 12.532 8.4684L12.2749 8.72551C12.1895 8.81097 12.1616 8.93749 12.2006 9.05187C12.3158 9.38966 12.3782 9.73946 12.391 10.0876C12.401 10.3608 12.7339 10.4893 12.9272 10.296L13.6562 9.56701C14.8206 8.4028 14.8206 6.50813 13.6562 5.3439Z" fill="white"/>
</svg>
