<svg width="19" height="19" viewBox="0 0 19 19" fill="none" xmlns="http://www.w3.org/2000/svg">
<rect width="19" height="19" rx="9.5" fill="#FFBD13"/>
<g clip-path="url(#clip0_294_2006)">
<path d="M9.49966 4.47064C7.33803 4.47064 5.58789 6.2308 5.58789 8.40478C5.58789 11.1581 7.71659 13.3928 9.49966 14.5295C11.2827 13.3928 13.4114 11.1581 13.4114 8.40478C13.4114 6.2308 11.6613 4.47064 9.49966 4.47064ZM9.49966 10.2974C8.45725 10.2974 7.61784 9.44764 7.61784 8.40478C7.61784 7.36193 8.46274 6.5122 9.49966 6.5122C10.5366 6.5122 11.3815 7.36193 11.3815 8.40478C11.3815 9.44764 10.5421 10.2974 9.49966 10.2974Z" fill="white"/>
</g>
<defs>
<clipPath id="clip0_294_2006">
<rect x="5.58789" y="4.47064" width="7.82353" height="10.0588" rx="3.91176" fill="white"/>
</clipPath>
</defs>
</svg>
