<svg width="9" height="15" viewBox="0 0 9 15" fill="none" xmlns="http://www.w3.org/2000/svg">
<g clip-path="url(#clip0_116_1457)">
<path d="M8.88406 5.25184C8.97101 4.92481 9.01449 4.58415 9.01449 4.25711C9 1.91336 6.98551 0.0192871 4.50725 0.0192871C2.01449 0.0192871 0 1.91336 0 4.25711C0 4.59777 0.0434782 4.92481 0.130435 5.25184C0.246377 5.93316 0.42029 6.49185 0.623188 6.90064C1.07246 7.77273 2.92754 10.6615 3.78261 11.9697C2.62319 12.1059 2.08696 12.5692 2.08696 13.0189C2.08696 13.5367 2.84058 14.109 4.50725 14.109C6.17391 14.109 6.92754 13.5503 6.92754 13.0189C6.92754 12.5829 6.3913 12.1059 5.23188 11.9697C6.08696 10.6615 7.94203 7.77273 8.3913 6.90064C8.5942 6.49185 8.75362 5.94679 8.88406 5.25184ZM6.21739 13.0189C6.17391 13.1416 5.5942 13.455 4.49275 13.455C3.3913 13.455 2.81159 13.1416 2.76812 13.0189C2.7971 12.9099 3.27536 12.6374 4.17391 12.5965C4.18841 12.6101 4.18841 12.6237 4.2029 12.6374C4.26087 12.7328 4.37681 12.7873 4.49275 12.7873C4.6087 12.7873 4.72464 12.7328 4.78261 12.6374C4.78261 12.6374 4.7971 12.6237 4.81159 12.5965C5.71014 12.651 6.17391 12.9099 6.21739 13.0189ZM1.24638 6.61449C1.07246 6.2602 0.913043 5.75602 0.811594 5.1292C0.811594 5.11558 0.811594 5.11558 0.811594 5.10195C0.73913 4.8158 0.695652 4.52964 0.695652 4.24348C0.695652 2.26765 2.4058 0.65973 4.50725 0.65973C6.6087 0.65973 8.31884 2.26765 8.31884 4.24348C8.31884 4.52964 8.27536 4.8158 8.2029 5.10195C8.2029 5.11558 8.2029 5.11558 8.2029 5.1292C8.10145 5.75602 7.94203 6.2602 7.76811 6.61449C7.31884 7.50021 5.27536 10.6479 4.50725 11.8334C3.73913 10.6479 1.69565 7.50021 1.24638 6.61449Z" fill="#131415"/>
<path d="M4.5072 1.85889C3.17387 1.85889 2.08691 2.88087 2.08691 4.1345C2.08691 5.38813 3.17387 6.41012 4.5072 6.41012C5.84054 6.41012 6.92749 5.38813 6.92749 4.1345C6.913 2.88087 5.84054 1.85889 4.5072 1.85889ZM2.78257 4.1345C2.78257 3.24878 3.55068 2.51296 4.5072 2.51296C5.44923 2.51296 6.23184 3.23516 6.23184 4.1345C6.23184 5.02022 5.46373 5.75605 4.5072 5.75605C3.55068 5.74242 2.78257 5.02022 2.78257 4.1345Z" fill="#131415"/>
</g>
<defs>
<clipPath id="clip0_116_1457">
<rect width="9" height="14.0897" fill="white" transform="translate(0 0.0192871)"/>
</clipPath>
</defs>
</svg>
