<svg width="19" height="19" viewBox="0 0 19 19" fill="none" xmlns="http://www.w3.org/2000/svg">
<rect width="19" height="19" rx="9.5" fill="#FFBD13"/>
<path fill-rule="evenodd" clip-rule="evenodd" d="M7.44157 8.37867C7.54091 8.23008 7.63724 8.08471 7.73659 7.93612C8.07676 7.42573 8.06472 7.59048 7.82991 7.01872C7.62821 6.53094 7.4235 6.0464 7.22181 5.55862C7.03215 5.10638 7.05322 5.02885 6.5264 5.00301C6.33072 4.99009 6.14408 5.01916 6.00861 5.09992C5.56307 5.37126 5.16268 6.0464 5.04226 6.62462C4.52146 10.0552 8.91667 14.1254 12.5533 13.9348C13.065 13.8831 13.5527 13.4341 13.7664 12.8849C13.8327 12.6879 13.8748 12.4812 13.9019 12.2712C13.9892 11.609 13.9712 11.7479 13.4203 11.4507C12.9747 11.2116 12.5292 10.9694 12.0806 10.7303C11.6531 10.4977 11.7525 10.4396 11.4484 10.8014C11.2467 11.0404 11.048 11.2763 10.8463 11.5153C10.5784 11.8319 10.6627 11.8189 10.2744 11.6671C9.08826 11.2084 7.89313 10.2813 7.36631 8.94074C7.23385 8.59833 7.2489 8.6694 7.44157 8.37867Z" fill="white"/>
</svg>
