<svg width="21" height="21" viewBox="0 0 21 21" fill="none" xmlns="http://www.w3.org/2000/svg">
<g clip-path="url(#clip0_294_2628)">
<path d="M0 8.36711C0.140134 8.05643 0.376431 7.94629 0.718753 7.94793C3.04227 7.95821 5.36578 7.95328 7.6893 7.95328H7.95313V7.69232C7.95313 5.36163 7.95313 3.03109 7.95313 0.700675C7.95313 0.193962 8.14874 0.00204468 8.65914 0.00204468C9.89611 0.00204468 11.1331 0.00204468 12.37 0.00204468C12.8373 0.00204468 13.046 0.207524 13.046 0.671086C13.046 3.00807 13.046 5.34533 13.046 7.68287V7.95533H20.31C20.8007 7.95533 20.9988 8.15629 20.9992 8.65396C20.9992 9.89752 20.9992 11.1412 20.9992 12.3851C20.9992 12.8371 20.79 13.0496 20.3396 13.05H13.0469V13.2937C13.0469 15.6238 13.0415 17.9544 13.0522 20.2849C13.0522 20.6281 12.9425 20.8627 12.6326 21.0033H8.36737C8.05833 20.8623 7.94615 20.6281 7.94779 20.2845C7.95847 17.9605 7.95313 15.6366 7.95313 13.3126V13.05H7.69095C5.36702 13.05 3.04309 13.0451 0.718753 13.0553C0.376431 13.0553 0.140134 12.9468 0 12.6362V8.36711Z" fill="white"/>
</g>
<defs>
<clipPath id="clip0_294_2628">
<rect width="21" height="21" fill="white"/>
</clipPath>
</defs>
</svg>
