<svg width="26" height="26" viewBox="0 0 26 26" fill="none" xmlns="http://www.w3.org/2000/svg">
<path d="M15.3082 0.652321C15.6518 0.794828 16.0294 0.885293 16.3294 1.09006C17.2525 1.71699 17.5269 2.93584 17.0119 3.91782C16.9785 3.98105 16.9426 4.0433 16.8842 4.14933H17.1646C18.392 4.14933 19.6146 4.13863 20.8396 4.15322C22.0793 4.16782 23.0628 5.18482 23.049 6.41145C23.0367 7.59187 22.067 8.57726 20.8774 8.61131C20.4404 8.62395 20.0034 8.61131 19.5517 8.61131C19.6416 8.88368 19.7845 9.0184 20.0481 9.1113C23.2474 10.2363 25.2221 12.4449 25.7386 15.7775C26.0653 17.8655 25.5624 19.9977 24.3355 21.7261C23.1087 23.4546 21.2534 24.6448 19.1594 25.0468C16.2734 25.6056 13.7508 24.8133 11.6307 22.7915C11.5682 22.7251 11.492 22.673 11.4072 22.6386C11.3225 22.6041 11.2312 22.5883 11.1397 22.5921C9.3103 22.5989 7.48089 22.6033 5.65198 22.5921C5.3446 22.5929 5.04034 22.5312 4.75802 22.4108C4.47569 22.2904 4.22132 22.1138 4.01066 21.8921C3.8 21.6704 3.63753 21.4082 3.5333 21.1217C3.42908 20.8353 3.38532 20.5307 3.40474 20.2268C3.44058 19.5814 3.73419 19.0527 4.24531 18.6169C3.71406 18.1505 3.40376 17.5824 3.40131 16.8791C3.39885 16.1758 3.69589 15.598 4.24481 15.1199C3.71406 14.6569 3.40474 14.0883 3.40131 13.3855C3.39787 12.6827 3.69295 12.1039 4.28508 11.586C4.20652 11.5373 4.12649 11.5091 4.07052 11.4546C3.42144 10.8224 3.20786 9.86274 3.56529 9.03883C3.94482 8.16336 4.63318 7.69207 5.596 7.64343C6.01923 7.62203 6.44443 7.64002 6.91233 7.64002C6.42135 6.80006 6.40024 5.97371 6.91233 5.12597C6.80383 5.1211 6.71938 5.1143 6.63493 5.1143C5.46737 5.1143 4.29964 5.1143 3.13176 5.1143C1.91363 5.1143 1.07748 4.45769 0.791726 3.28311C0.780262 3.24541 0.766659 3.20839 0.750977 3.17221V2.58857C0.854083 2.17418 0.993524 1.77827 1.27977 1.44462C1.65881 1.00202 2.15224 0.768564 2.71098 0.646484L15.3082 0.652321ZM17.524 24.2482C21.5761 24.2418 24.8745 20.9617 24.8642 16.9492C24.8539 12.9366 21.5584 9.68279 17.5146 9.68279C13.4621 9.68279 10.1602 12.9541 10.1626 16.9696C10.1651 20.9851 13.4724 24.2545 17.524 24.2482ZM9.0108 4.14788C10.9954 4.14788 12.9796 4.14788 14.9635 4.14788C15.5821 4.14788 16.0766 3.78942 16.2366 3.23885C16.4757 2.41542 15.8644 1.62652 14.9753 1.62506C12.5992 1.62182 10.223 1.62182 7.84668 1.62506C6.24672 1.62506 4.64628 1.62506 3.04534 1.62506C2.44192 1.62506 1.95045 1.98109 1.78793 2.52145C1.54244 3.34293 2.14881 4.14447 3.03356 4.1469C5.02597 4.15177 7.01839 4.14788 9.0108 4.14788ZM14.8044 7.64392C16.7886 7.64392 18.7729 7.64392 20.7571 7.64392C21.5284 7.64392 22.1039 7.05638 22.071 6.31952C22.0405 5.63082 21.4725 5.12159 20.7271 5.12111C17.7547 5.12111 14.7823 5.12111 11.8099 5.12111C10.8058 5.12111 9.80128 5.1177 8.79722 5.12111C8.52112 5.11904 8.25187 5.20626 8.03035 5.36953C7.80882 5.53279 7.64712 5.76319 7.56976 6.02576C7.32869 6.8487 7.93751 7.64051 8.82619 7.64294C10.8176 7.64683 12.81 7.64392 14.8024 7.64392H14.8044ZM18.0331 8.74992L18.0366 8.65557C17.8627 8.64195 17.6889 8.61666 17.5151 8.61666C14.3728 8.61407 11.2287 8.61407 8.08284 8.61666C7.27468 8.61666 6.46603 8.61277 5.65738 8.61666C5.38156 8.61557 5.1129 8.70352 4.89205 8.86718C4.67119 9.03085 4.51018 9.26133 4.43336 9.52374C4.19425 10.3477 4.80454 11.1361 5.6942 11.138C7.58056 11.1424 9.46692 11.138 11.3533 11.1429C11.4368 11.1465 11.5203 11.1329 11.5982 11.1028C11.6761 11.0728 11.7469 11.0269 11.806 10.9683C13.2067 9.67208 14.8594 8.91578 16.7742 8.75527C17.1891 8.72025 17.6114 8.74992 18.0312 8.74992H18.0331ZM10.7435 12.1108H10.498C8.86645 12.1108 7.23491 12.1044 5.60386 12.1151C4.97736 12.1195 4.45496 12.619 4.38573 13.2338C4.35241 13.5383 4.43216 13.8444 4.61007 14.095C4.78798 14.3455 5.05189 14.5233 5.35248 14.5951C5.4148 14.6145 5.47926 14.6265 5.54445 14.6306C6.8652 14.6306 8.18594 14.6306 9.49245 14.6306C9.67461 14.1929 9.83025 13.7596 10.0325 13.3486C10.2348 12.9376 10.4936 12.5388 10.7415 12.1108H10.7435ZM9.38296 19.1019C8.2046 19.1019 6.96634 19.1019 5.72611 19.1019C4.96165 19.1019 4.38868 19.6369 4.38278 20.3494C4.3764 21.0746 4.94938 21.6242 5.72219 21.6256C7.28155 21.6276 8.84076 21.6276 10.3998 21.6256C10.4491 21.6247 10.4982 21.6209 10.5471 21.6145C10.1641 20.7905 9.7841 19.9725 9.381 19.1019H9.38296ZM9.23567 15.6063H9.0324C7.93914 15.6063 6.84572 15.6063 5.75214 15.6063C4.95773 15.6063 4.38082 16.1447 4.38524 16.8772C4.38966 17.598 4.9646 18.1291 5.74723 18.1301C6.84049 18.1301 7.93374 18.1301 9.027 18.1301H9.23125L9.23567 15.6063Z" fill="#4A4A4A"/>
<path d="M18.0153 20.1885C17.979 20.6695 17.8189 20.8791 17.5096 20.8781C17.2003 20.8772 17.049 20.6739 17.0068 20.1885C16.6022 20.0737 16.2306 19.885 15.9389 19.5625C15.6464 19.2522 15.4756 18.8485 15.4573 18.4244C15.443 18.098 15.6394 17.8699 15.9286 17.8607C16.2065 17.8519 16.4034 18.0509 16.4343 18.3719C16.4805 18.8485 16.8487 19.2016 17.3554 19.2537C17.921 19.3125 18.4047 19.0392 18.5495 18.5795C18.7061 18.0815 18.3462 17.5582 17.7639 17.4507C17.5184 17.4054 17.2587 17.4084 17.0132 17.3534C16.1427 17.1637 15.5005 16.4478 15.4568 15.6399C15.4106 14.7873 15.9379 14.0349 16.8089 13.7504C16.9867 13.692 17.0265 13.6122 17.0265 13.4449C17.0228 13.3798 17.0326 13.3145 17.0553 13.2533C17.078 13.192 17.1131 13.1359 17.1583 13.0885C17.2036 13.0411 17.2582 13.0033 17.3187 12.9775C17.3792 12.9517 17.4444 12.9384 17.5103 12.9384C17.5762 12.9384 17.6414 12.9517 17.7019 12.9775C17.7624 13.0033 17.817 13.0411 17.8623 13.0885C17.9076 13.1359 17.9426 13.192 17.9653 13.2533C17.988 13.3145 17.9978 13.3798 17.9942 13.4449C17.9883 13.6395 18.0762 13.6964 18.2397 13.7557C19.01 14.0393 19.475 14.5772 19.5653 15.3992C19.6012 15.7241 19.4313 15.9551 19.1603 15.994C18.8681 16.0353 18.6168 15.8549 18.5976 15.5563C18.5691 15.1185 18.3457 14.8267 17.9436 14.6779C17.5135 14.5159 17.1045 14.5743 16.7515 14.8724C16.4741 15.1064 16.3587 15.4099 16.4795 15.7644C16.6204 16.1774 16.9435 16.3704 17.3633 16.4303C17.6289 16.4687 17.9034 16.4726 18.1592 16.5455C18.9938 16.7848 19.5648 17.5183 19.5727 18.3247C19.5806 19.1311 19.039 19.8388 18.2122 20.1199C18.1474 20.1457 18.086 20.1656 18.0153 20.1885Z" fill="#4A4A4A"/>
<path d="M23.887 16.794C23.8757 17.99 23.6415 18.971 23.1569 19.8898C23.0322 20.1262 22.8304 20.22 22.5908 20.167C22.3851 20.1218 22.2108 19.9238 22.2255 19.7103C22.2404 19.583 22.2788 19.4595 22.3389 19.346C23.0489 17.8699 23.1034 16.3723 22.4592 14.867C21.9643 13.7114 21.1454 12.8359 20.0244 12.2406C19.9753 12.2139 19.9233 12.1881 19.8737 12.1599C19.5909 12.0003 19.4952 11.7421 19.6243 11.4911C19.7534 11.2401 20.0402 11.139 20.3146 11.3C20.7619 11.5626 21.2244 11.8175 21.6182 12.1487C23.1093 13.4035 23.8399 15.0241 23.887 16.794Z" fill="#4A4A4A"/>
<path d="M11.1386 17.1282C11.1533 15.9298 11.3841 14.9566 11.8682 14.0456C11.9944 13.8073 12.1957 13.7051 12.4309 13.765C12.6528 13.8199 12.7927 13.9702 12.7981 14.193C12.8011 14.3223 12.749 14.461 12.6886 14.5821C11.9777 16.0577 11.9227 17.5543 12.5659 19.0611C13.0569 20.2094 13.8694 21.079 14.9766 21.6758C15.0556 21.7181 15.1376 21.7551 15.2123 21.8037C15.4519 21.9589 15.524 22.2244 15.3944 22.4569C15.2712 22.6768 14.9987 22.7847 14.7616 22.6485C14.3049 22.3864 13.8316 22.1325 13.4305 21.7984C11.9202 20.5396 11.1803 18.9069 11.1386 17.1282Z" fill="#4A4A4A"/>
<path d="M18.2566 10.6556C18.3532 10.6566 18.4474 10.6859 18.5273 10.7398C18.6073 10.7937 18.6694 10.8697 18.7058 10.9584C18.7423 11.0471 18.7516 11.1444 18.7324 11.2383C18.7132 11.3322 18.6665 11.4183 18.5982 11.486C18.5298 11.5537 18.4427 11.5999 18.348 11.6187C18.2532 11.6376 18.1549 11.6284 18.0654 11.5922C17.9759 11.5559 17.8993 11.4944 17.845 11.4151C17.7907 11.3359 17.7612 11.2426 17.7602 11.1468C17.7601 11.0822 17.7729 11.0183 17.7979 10.9586C17.8228 10.899 17.8594 10.8448 17.9055 10.7991C17.9516 10.7535 18.0063 10.7173 18.0666 10.6927C18.1268 10.6681 18.1914 10.6555 18.2566 10.6556Z" fill="#4A4A4A"/>
<path d="M17.2663 22.7993C17.2678 22.8987 17.2393 22.9962 17.1844 23.0794C17.1296 23.1626 17.0509 23.2276 16.9585 23.2663C16.8661 23.3049 16.7642 23.3154 16.6658 23.2963C16.5674 23.2771 16.4769 23.2294 16.4061 23.1591C16.3352 23.0887 16.2872 22.9991 16.2681 22.9015C16.249 22.804 16.2597 22.703 16.2989 22.6116C16.3381 22.5201 16.404 22.4423 16.4881 22.3882C16.5722 22.334 16.6706 22.306 16.7709 22.3076C16.8361 22.3077 16.9005 22.3204 16.9607 22.3452C17.0208 22.3699 17.0754 22.4062 17.1214 22.4518C17.1674 22.4975 17.2039 22.5517 17.2288 22.6113C17.2536 22.6709 17.2664 22.7348 17.2663 22.7993Z" fill="#4A4A4A"/>
</svg>
