<svg width="23" height="23" viewBox="0 0 23 23" fill="none" xmlns="http://www.w3.org/2000/svg">
<path d="M0 13.66C0.0580476 13.5237 0.102593 13.3773 0.17684 13.251C0.426579 12.8207 0.806817 12.5948 1.2991 12.5762C1.51554 12.568 1.73243 12.5762 1.94122 12.5762C1.77222 11.7366 1.77084 10.8714 1.93717 10.0313L1.70408 10.0018C1.39226 9.96666 1.10341 9.81925 0.890449 9.58657C0.677484 9.35388 0.55466 9.0515 0.544476 8.73481C0.530977 8.28037 0.530077 7.82593 0.544476 7.37467C0.55744 7.03456 0.698959 6.71241 0.939929 6.47446C1.1809 6.23651 1.503 6.10087 1.83997 6.09543C2.07172 6.08861 2.3048 6.0827 2.53564 6.09543C2.68729 6.10497 2.76063 6.04317 2.83128 5.91729C3.66405 4.45036 4.50056 2.9854 5.34083 1.52241C6.0986 0.199543 7.71178 0.199089 8.47 1.52241C9.30997 2.98631 10.1466 4.45142 10.98 5.91774C11.0524 6.04498 11.1258 6.09952 11.2756 6.09588C11.6806 6.08452 12.0856 6.08861 12.4879 6.0927C13.2641 6.09997 13.8275 6.67029 13.8347 7.45601C13.8383 7.8491 13.8473 8.24265 13.8306 8.63483C13.8212 8.85705 13.7654 9.077 13.7253 9.32785C13.7868 9.32555 13.8482 9.33166 13.908 9.34602C14.138 9.42555 14.3805 9.48781 14.5861 9.61142C14.727 9.69594 14.8363 9.7273 14.9952 9.69549C16.805 9.33406 18.4849 9.66141 20.035 10.6775C20.2006 10.7866 20.305 10.9207 20.2316 11.132C20.1497 11.3592 19.9126 11.4146 19.6741 11.2542C18.9931 10.7984 18.229 10.4841 17.4264 10.3299C14.2392 9.70003 10.9971 11.9618 10.467 15.1924C9.93109 18.4584 11.907 21.4336 15.1018 22.1675C18.3561 22.9156 21.7166 20.6184 22.2345 17.2882C22.5346 15.3542 22.0347 13.6527 20.7495 12.1904C20.6235 12.0472 20.5565 11.9 20.6595 11.7214C20.6929 11.6564 20.7488 11.6061 20.8165 11.58C20.8842 11.554 20.959 11.554 21.0267 11.58C21.1158 11.6163 21.1947 11.6741 21.2567 11.7482C22.2363 12.8388 22.8168 14.1185 22.954 15.5877C23.2204 18.4357 21.8002 21.0378 19.2561 22.2939C17.4111 23.2055 15.5239 23.2082 13.6358 22.3952C13.5539 22.3602 13.4738 22.3207 13.3851 22.2803C13.292 22.3916 13.2101 22.5075 13.1102 22.6056C12.8908 22.8269 12.597 22.9566 12.2872 22.9692C12.2125 22.9728 12.1378 22.976 12.0622 22.976C8.59734 22.976 5.13249 22.976 1.66763 22.976C0.90896 22.976 0.343334 22.5793 0.262337 21.8853C0.19484 21.3128 0.210589 20.7224 0.262337 20.1462C0.304635 19.65 0.649321 19.3282 1.06645 19.1401C0.800065 18.2503 0.856312 17.3778 1.02146 16.468C0.499927 16.3317 0.157042 15.9513 0.00449872 15.3851L0 13.66ZM4.60241 9.02792C4.40936 9.02792 4.23703 9.04246 4.06738 9.02428C3.85994 9.006 3.6548 8.96703 3.45495 8.90795C3.27496 8.85069 3.20206 8.69618 3.25831 8.50804C3.31456 8.3199 3.44956 8.25173 3.639 8.26673C4.01743 8.29672 4.39587 8.33217 4.77475 8.3449C5.19863 8.35853 5.28683 8.43578 5.28683 8.86568C5.28683 10.5207 5.28683 12.1758 5.28683 13.8309C5.28683 14.2853 5.48392 14.4785 5.93075 14.4794C6.58892 14.4794 7.2474 14.4794 7.90617 14.4794C8.3143 14.4794 8.5231 14.2644 8.52805 13.8486C8.52805 13.69 8.52805 13.5305 8.52805 13.3728C8.52805 11.8459 8.52805 10.3193 8.52805 8.79297C8.52805 8.45533 8.63424 8.35035 8.97218 8.34853C9.19717 8.34853 9.42216 8.34853 9.64715 8.34853C10.6074 8.3449 11.1033 7.49237 10.6268 6.65484C9.7103 5.04492 8.79039 3.43681 7.86702 1.83052C7.39049 1.00253 6.41538 1.00526 5.93885 1.83461C5.02044 3.43469 4.10878 5.03886 3.18947 6.63848C3.03934 6.88415 2.97591 7.17387 3.00948 7.46056C3.04187 7.73731 2.93567 7.89 2.72373 7.90909C2.51179 7.92817 2.36375 7.79457 2.3426 7.52963C2.32505 7.28469 2.339 7.03702 2.339 6.77027C2.21526 6.77027 2.06901 6.77027 1.91827 6.77027C1.48359 6.77845 1.22125 7.04293 1.2163 7.47965C1.2118 7.83502 1.2163 8.19039 1.2163 8.5453C1.2163 9.08608 1.46154 9.33466 1.99926 9.33603C2.79273 9.33784 3.58605 9.33784 4.37922 9.33603C4.45121 9.33603 4.52366 9.32921 4.60421 9.32557L4.60241 9.02792ZM12.7786 21.9208C12.752 21.9049 12.7259 21.8899 12.7012 21.8753C11.9064 21.3436 11.2302 20.6502 10.7159 19.8395C10.679 19.7817 10.5701 19.7422 10.4945 19.7422C7.53119 19.7374 4.56821 19.7363 1.60553 19.739C1.15555 19.739 0.902211 20.0049 0.898612 20.4625C0.895912 20.7874 0.898612 21.1123 0.898612 21.4373C0.898612 22.0794 1.11055 22.2943 1.74278 22.2943H12.0024C12.0843 22.2943 12.167 22.2943 12.2489 22.2893C12.4825 22.2703 12.6526 22.153 12.7786 21.9203V21.9208ZM9.69755 16.5016C9.60755 16.4975 9.53916 16.4921 9.47256 16.4921H2.3777C2.3255 16.4921 2.27286 16.4921 2.22066 16.4962C1.81567 16.5289 1.57808 16.7806 1.57268 17.1892C1.56818 17.5527 1.57268 17.9163 1.57268 18.2776C1.57268 18.8056 1.82018 19.0556 2.3408 19.0556H10.0634C10.1336 19.0556 10.2033 19.0474 10.2942 19.0419C9.93816 18.2407 9.73569 17.3785 9.69755 16.5012V16.5016ZM4.61276 13.2569C3.47206 13.2569 2.36285 13.2478 1.2586 13.2624C0.919311 13.2669 0.680821 13.56 0.673621 13.9195C0.666421 14.279 0.671371 14.6466 0.673621 15.0101C0.673621 15.5746 0.90626 15.8131 1.46019 15.8131C4.12468 15.8131 6.78902 15.8131 9.45321 15.8131H9.6782C9.7682 15.3532 9.82444 14.9179 9.93694 14.498C10.0494 14.0781 10.2168 13.6777 10.3599 13.2687H9.20212C9.20212 13.4919 9.20572 13.7018 9.20212 13.9122C9.18907 14.6316 8.67204 15.156 7.96422 15.1606C7.2564 15.1651 6.55713 15.1651 5.85336 15.1606C5.13699 15.156 4.62986 14.6457 4.61456 13.919C4.61006 13.7055 4.61411 13.496 4.61411 13.2565L4.61276 13.2569ZM9.21787 10.0304V12.5753C9.68945 12.5753 10.1448 12.5684 10.5998 12.5794C10.7465 12.5825 10.8247 12.5298 10.908 12.413C11.5864 11.4278 12.516 10.6463 13.5984 10.1513C13.661 10.1222 13.7213 10.0872 13.8293 10.0304H9.21787ZM9.21112 9.32285C9.27726 9.3283 9.33531 9.33739 9.39111 9.33785C10.4018 9.33785 11.4123 9.33785 12.4226 9.33785C12.4829 9.33803 12.5431 9.33331 12.6026 9.32376C12.9316 9.26786 13.1521 9.0211 13.1575 8.68391C13.1644 8.25977 13.1644 7.83653 13.1575 7.41421C13.1521 7.10474 12.9581 6.83116 12.6589 6.80344C12.2566 6.76572 11.8489 6.7939 11.434 6.7939C11.4408 6.84434 11.4453 6.88161 11.4507 6.91842C11.6307 8.11904 10.8531 9.02883 9.64805 9.03065H9.21067L9.21112 9.32285ZM4.60196 10.03C4.06198 10.03 3.54855 10.0145 3.03467 10.0359C2.74353 10.0481 2.51855 10.3085 2.50955 10.6185C2.49605 11.0632 2.49605 11.5084 2.50955 11.954C2.52035 12.314 2.78898 12.5657 3.15302 12.5725C3.549 12.5803 3.94499 12.5725 4.34097 12.5753H4.60376L4.60196 10.03Z" fill="#4A4A4A"/>
<path d="M20.9401 16.2669C20.936 18.8301 18.8732 20.9111 16.3401 20.9083C13.807 20.9056 11.7474 18.8178 11.7501 16.2555C11.7507 15.6441 11.871 15.0389 12.104 14.4746C12.3369 13.9103 12.678 13.398 13.1077 12.9673C13.5373 12.5365 14.047 12.1957 14.6074 11.9645C15.1679 11.7333 15.768 11.6162 16.3734 11.62C18.8966 11.6273 20.9441 13.7119 20.9401 16.2669ZM20.2651 16.2833C20.2777 14.1018 18.5325 12.3104 16.3829 12.299C15.8672 12.2938 15.3556 12.3914 14.8774 12.5862C14.3992 12.781 13.9637 13.0691 13.5958 13.4341C13.228 13.7991 12.935 14.2337 12.7338 14.7132C12.5325 15.1927 12.4268 15.7075 12.4228 16.2283C12.4021 18.4129 14.1549 20.2135 16.3167 20.2276C17.3583 20.2331 18.3594 19.8208 19.1001 19.0811C19.8407 18.3415 20.2602 17.3352 20.2664 16.2833H20.2651Z" fill="#4A4A4A"/>
<path d="M17.4217 8.1851C16.9011 8.1801 16.5042 7.82153 16.4007 7.28663C16.308 6.80353 16.5514 6.32089 17.0028 6.14365C17.3771 5.9931 17.7593 5.86323 18.1476 5.75463C18.3286 5.71158 18.5173 5.71502 18.6966 5.76463C19.2263 5.90733 19.4481 6.38224 19.4693 6.98623C19.4859 7.47341 19.1439 7.84971 18.6359 7.96423C18.2786 8.04331 17.9159 8.10602 17.5559 8.17419C17.5114 8.18086 17.4666 8.1845 17.4217 8.1851ZM17.4946 7.50068C17.8096 7.43614 18.1931 7.3707 18.5684 7.27344C18.7844 7.21845 18.8357 7.0394 18.7592 6.75263C18.6827 6.46587 18.5481 6.34361 18.3303 6.40588C17.9654 6.51267 17.6063 6.64084 17.2503 6.77717C17.0703 6.84671 17.0311 7.01259 17.0703 7.19255C17.1162 7.38206 17.2188 7.50704 17.4969 7.50068H17.4946Z" fill="#4A4A4A"/>
<path d="M14.479 3.87597C14.5771 3.66328 14.6455 3.42832 14.7801 3.24245C14.9952 2.94432 15.2481 2.67346 15.4956 2.40078C15.9006 1.95677 16.5122 1.94632 16.9559 2.35534C17.3033 2.67619 17.5337 3.04203 17.3739 3.53285C17.3129 3.70976 17.2125 3.87019 17.0805 4.00185C16.8218 4.26226 16.5405 4.50176 16.2566 4.7349C15.9258 5.00758 15.5505 5.0653 15.1675 4.87124C14.7846 4.67719 14.551 4.35633 14.479 3.87597ZM16.7511 3.30153C16.7444 3.0893 16.5189 2.82025 16.3461 2.76072C16.1661 2.69846 16.0478 2.79162 15.9411 2.91887C15.7364 3.15883 15.5266 3.39424 15.3241 3.63601C15.1621 3.82916 15.1725 4.00595 15.3439 4.1741C15.5154 4.34225 15.6743 4.34498 15.861 4.18591C16.1121 3.97186 16.3614 3.75599 16.6017 3.52967C16.6769 3.45786 16.7196 3.35016 16.7511 3.30153Z" fill="#4A4A4A"/>
<path d="M11.3609 1.91878C11.4347 1.57111 11.5022 1.08983 11.6439 0.632189C11.7677 0.232717 12.0939 0.00230795 12.5133 3.56313e-05C13.2162 -0.00405453 13.7594 0.344065 13.8013 1.00667C13.8117 1.11208 13.8029 1.21853 13.7752 1.3207C13.6465 1.72199 13.5227 2.12647 13.363 2.51549C13.1748 2.97404 12.683 3.19718 12.1929 3.07948C11.6754 2.95813 11.3505 2.55502 11.3609 1.91878ZM12.0359 1.98058C12.0183 2.22327 12.1119 2.34415 12.2901 2.40051C12.4683 2.45686 12.6582 2.44959 12.7347 2.25689C12.8827 1.88756 13.0102 1.51023 13.1168 1.12665C13.1798 0.899414 13.0358 0.768075 12.7118 0.695815C12.4643 0.639916 12.3018 0.707177 12.2505 0.923047C12.1668 1.28798 12.1025 1.65882 12.0377 1.98104L12.0359 1.98058Z" fill="#4A4A4A"/>
<path d="M15.9809 18.9622C15.5458 18.8163 15.1606 18.7045 14.7898 18.5564C14.5297 18.4528 14.4563 18.2523 14.5567 18.0565C14.6534 17.8692 14.8366 17.8292 15.0791 17.9483C15.3554 18.0846 15.6367 18.1983 15.976 18.1814C15.976 17.5711 15.9787 16.9685 15.9706 16.3636C15.9706 16.3181 15.8954 16.2636 15.8432 16.2372C15.6704 16.1464 15.4864 16.0809 15.3167 15.9864C14.608 15.5933 14.4487 14.7507 15.0017 14.1531C15.1957 13.9436 15.4783 13.7895 15.7487 13.6886C15.9382 13.6177 15.9931 13.545 15.9814 13.3623C15.976 13.2846 15.9881 13.1723 16.0376 13.1314C16.1276 13.0574 16.2626 12.9697 16.3571 12.9906C16.4629 13.0137 16.5709 13.1364 16.6271 13.2432C16.6753 13.3341 16.6519 13.4632 16.6604 13.575C16.8854 13.6473 17.115 13.7113 17.3355 13.7936C17.4333 13.8309 17.5258 13.8814 17.6104 13.9436C17.7846 14.0663 17.8242 14.2562 17.7202 14.4171C17.6163 14.578 17.4372 14.6107 17.245 14.5116C17.1388 14.4567 17.0326 14.4008 16.9223 14.3562C16.8324 14.3266 16.7407 14.3026 16.6478 14.2844V15.3329C16.6478 15.7851 16.6478 15.7851 17.0668 15.9237C17.439 16.0477 17.7589 16.2463 17.9745 16.5867C18.2931 17.0898 18.231 17.7574 17.7846 18.2346C17.6027 18.4337 17.3809 18.5913 17.1339 18.6968C16.8422 18.8127 16.579 18.8713 16.619 19.2876C16.6357 19.4567 16.4588 19.5603 16.2824 19.5435C16.2022 19.5424 16.1256 19.5096 16.069 19.4522C16.0124 19.3948 15.9803 19.3173 15.9796 19.2362C15.9742 19.1276 15.9809 19.0154 15.9809 18.9622ZM16.6591 18.1405C17.1627 18.0378 17.529 17.6361 17.502 17.2366C17.4781 16.8789 17.1096 16.5749 16.6591 16.5463V18.1405ZM15.967 14.354C15.607 14.3962 15.3496 14.6721 15.3577 14.9943C15.3644 15.2561 15.6331 15.4797 15.967 15.501V14.354Z" fill="#4A4A4A"/>
</svg>
