<svg width="22" height="23" viewBox="0 0 22 23" fill="none" xmlns="http://www.w3.org/2000/svg">
<path d="M18.2146 22.1499C17.8228 22.0111 17.7803 21.9505 17.7799 21.524C17.7799 16.4158 17.7799 11.3079 17.7799 6.20026C17.7799 5.72751 17.9036 5.60428 18.3762 5.60428H21.3575C21.7859 5.60428 21.8524 5.64634 21.9938 6.02487V21.6881C21.9437 21.9459 21.7939 22.104 21.5309 22.1507L18.2146 22.1499ZM21.1236 21.2805V6.45639H18.6354V21.2805H21.1236Z" fill="#4A4A4A"/>
<path d="M12.4608 22.1499C12.0673 22.0149 12.0131 21.9396 12.0131 21.511V8.81299C12.0131 8.33057 12.1393 8.20566 12.6232 8.20566C13.6376 8.20566 14.6523 8.20566 15.6673 8.20566C16.0679 8.20566 16.2076 8.34656 16.208 8.75242C16.208 10.0748 16.2101 11.3971 16.205 12.719C16.205 12.833 16.1941 12.9836 16.1247 13.0517C16.0179 13.1526 15.8811 13.216 15.735 13.2321C15.5751 13.2439 15.4476 13.1245 15.403 12.9604C15.3784 12.8587 15.3672 12.7542 15.3698 12.6496C15.3672 11.5443 15.3672 10.4388 15.3698 9.33326V9.0645H12.866V21.2721H15.3698V21.0198C15.3698 19.5157 15.3698 18.0116 15.3698 16.5073C15.3698 16.1136 15.5217 15.9046 15.8011 15.9109C16.0737 15.9172 16.2092 16.1136 16.2092 16.5039C16.2092 18.1762 16.2092 19.8483 16.2092 21.5203C16.2092 21.9484 16.1672 22.0103 15.7796 22.1512L12.4608 22.1499Z" fill="#4A4A4A"/>
<path d="M6.58078 22.1499C6.32368 22.046 6.24709 21.845 6.24751 21.5817C6.25088 18.6656 6.25172 15.7484 6.25004 12.8301C6.25004 12.396 6.39732 12.2476 6.82737 12.2471C7.84233 12.2471 8.85702 12.2471 9.87141 12.2471C10.3082 12.2471 10.4466 12.3876 10.4466 12.8275C10.4466 15.7436 10.448 18.6608 10.4509 21.5792C10.4509 21.8366 10.3751 22.0246 10.1508 22.1499H6.58078ZM9.59705 13.0988H7.10468V21.3003H9.59705V13.0988Z" fill="#4A4A4A"/>
<path d="M0.911518 22.1499C0.540797 22.0082 0.490723 21.9329 0.490723 21.5106C0.490723 19.4489 0.490723 17.3869 0.490723 15.3246C0.490723 14.883 0.623701 14.7496 1.06638 14.7492H4.10788C4.55813 14.7492 4.68816 14.883 4.68816 15.3427C4.68816 17.4047 4.68816 19.4667 4.68816 21.5287C4.68816 21.9236 4.63093 22.0086 4.27031 22.1499H0.911518ZM3.83689 21.278V15.6064H1.33863V21.278H3.83689Z" fill="#4A4A4A"/>
<path d="M18.9687 2.04779C18.7394 2.16934 18.5319 2.28206 18.3224 2.39099C14.5361 4.36478 10.6025 6.04235 6.55693 7.40863C5.33957 7.81954 4.10747 8.18588 2.8817 8.57072C2.79584 8.60014 2.70689 8.61961 2.61659 8.62876C2.52165 8.63615 2.42709 8.6103 2.34913 8.55564C2.27116 8.50098 2.21466 8.42092 2.18928 8.32918C2.16391 8.23743 2.17126 8.13973 2.21007 8.05281C2.24888 7.96589 2.31673 7.89516 2.40199 7.85277C2.45827 7.82494 2.51719 7.80282 2.57788 7.78674C6.73287 6.58419 10.7887 5.06245 14.709 3.23512C15.8872 2.68835 17.0385 2.08354 18.2016 1.50481C18.2508 1.48042 18.2967 1.44971 18.3581 1.41354C18.3333 1.37359 18.3127 1.34036 18.2929 1.30671C18.12 1.0123 18.2727 0.678351 18.6119 0.661527C19.0516 0.639657 19.4934 0.644284 19.9336 0.658584C20.1798 0.666996 20.3674 0.944584 20.2757 1.17549C20.1112 1.59019 19.9239 1.99648 19.7287 2.39898C19.6445 2.57731 19.4732 2.63031 19.2822 2.58488C19.0912 2.53946 18.9851 2.41286 18.9666 2.21645C18.9649 2.16934 18.9687 2.12139 18.9687 2.04779Z" fill="#4A4A4A"/>
<path d="M15.7948 15.0932C15.6842 15.094 15.5778 15.0509 15.4991 14.9732C15.4203 14.8956 15.3756 14.7899 15.3749 14.6794C15.3741 14.5688 15.4173 14.4625 15.4949 14.3838C15.5726 14.3051 15.6783 14.2604 15.7889 14.2596C15.8995 14.2588 16.0059 14.302 16.0847 14.3796C16.1634 14.4572 16.2081 14.5629 16.2089 14.6735C16.2096 14.784 16.1665 14.8904 16.0888 14.9691C16.0112 15.0478 15.9054 15.0925 15.7948 15.0932Z" fill="#4A4A4A"/>
</svg>
