<svg width="27" height="23" viewBox="0 0 27 23" fill="none" xmlns="http://www.w3.org/2000/svg">
<path d="M0 11.5095C0.124864 11.3089 0.305781 11.2519 0.538182 11.255C1.64005 11.2636 2.74192 11.2586 3.84378 11.2591C4.34579 11.2591 4.43956 11.3512 4.44262 11.8449V12.0805C4.48798 12.0714 4.51601 12.0739 4.53181 12.0612C5.26367 11.4844 5.99502 10.9075 6.72586 10.3307C7.40675 9.79072 8.01222 9.17743 8.21506 8.30406C8.33075 7.80782 8.36235 7.28614 8.37356 6.77311C8.39089 5.95878 8.82816 5.35414 9.57225 5.20247C9.93259 5.12461 10.3091 5.18477 10.6271 5.37104C10.9451 5.55731 11.1815 5.85609 11.2893 6.20817C11.8371 7.97069 12.0114 9.74899 11.4656 11.5497C11.4587 11.5849 11.4548 11.6207 11.4539 11.6566H13.0231V11.3629C13.0231 9.12043 13.0231 6.87813 13.0231 4.636C13.0231 3.69341 13.4364 3.07655 14.312 2.70858C14.5159 2.62358 14.7156 2.5335 14.9236 2.45817C15.0152 2.41943 15.1185 2.41863 15.2108 2.45595C15.303 2.49327 15.3766 2.56565 15.4154 2.65717C15.4542 2.74869 15.455 2.85185 15.4176 2.94396C15.3802 3.03607 15.3078 3.10958 15.2161 3.14832C14.9873 3.25774 14.7467 3.34223 14.5164 3.44758C14.05 3.66135 13.7891 4.02016 13.7886 4.54032C13.7855 6.85845 13.7855 9.17675 13.7886 11.4952C13.7886 11.5461 13.7942 11.5929 13.7988 11.6673C14.3788 11.6673 14.9445 11.6576 15.5097 11.6673C15.733 11.6689 15.9536 11.716 16.1581 11.8055C16.3626 11.895 16.5467 12.0251 16.6993 12.188C16.8518 12.3508 16.9696 12.5429 17.0455 12.7526C17.1214 12.9623 17.1537 13.1853 17.1406 13.4079C17.1079 13.9265 16.8755 14.3108 16.3251 14.7424C16.6268 15.1368 16.7746 15.5801 16.6936 16.0835C16.6126 16.5868 16.3277 16.9619 15.9113 17.2403C16.6365 18.2806 16.2558 19.2965 15.4246 19.804C15.9082 20.4941 15.9138 21.1939 15.4062 21.9263H15.712C17.6694 21.9263 19.6272 21.9263 21.5852 21.9263C21.6948 21.922 21.8045 21.9333 21.9109 21.9599C21.9948 21.9804 22.0678 22.032 22.1151 22.1042C22.1624 22.1763 22.1805 22.2638 22.1657 22.3487C22.1617 22.4348 22.126 22.5164 22.0654 22.5777C22.0048 22.6391 21.9237 22.6759 21.8375 22.6811C21.7614 22.6871 21.685 22.6888 21.6087 22.6862C19.4559 22.6862 17.3032 22.6933 15.1504 22.6796C14.8359 22.6796 14.522 22.5778 14.2075 22.5269C14.1008 22.5049 13.9923 22.4916 13.8834 22.4872C11.7729 22.4872 9.66247 22.4801 7.552 22.4872C7.03012 22.4872 6.57093 22.3549 6.15403 22.0429C5.66375 21.6754 5.09702 21.5314 4.44874 21.4932C4.44874 21.7762 4.44874 22.0424 4.44874 22.3075C4.44569 22.6999 4.32438 22.8211 3.92991 22.8216C2.80307 22.8216 1.67573 22.817 0.548385 22.8256C0.317003 22.8256 0.136071 22.7686 0.00661949 22.5742L0 11.5095ZM0.776197 12.0296V22.051H3.68121V21.7411C3.68121 19.9896 3.68121 18.2381 3.68121 16.4866C3.6778 16.3853 3.68497 16.284 3.70261 16.1843C3.71618 16.099 3.76143 16.0219 3.82934 15.9684C3.89724 15.9149 3.98282 15.889 4.06904 15.8957C4.26679 15.8997 4.4044 16.0092 4.43345 16.2168C4.44306 16.3093 4.4463 16.4023 4.44313 16.4952C4.44313 17.7982 4.44975 19.1016 4.43752 20.4045C4.43752 20.6483 4.49104 20.7374 4.74994 20.7608C5.41759 20.8173 6.04497 21.0229 6.58928 21.426C6.86052 21.6313 7.19336 21.739 7.53365 21.7314C9.68641 21.7243 11.8392 21.7278 13.992 21.7278C14.0684 21.7278 14.1448 21.7278 14.2208 21.7232C14.4397 21.7039 14.6432 21.6026 14.7906 21.4398C14.9379 21.277 15.0182 21.0645 15.0154 20.8451C15.0125 20.6256 14.9268 20.4153 14.7753 20.2564C14.6238 20.0974 14.4177 20.0014 14.1984 19.9877C13.9868 19.977 13.7743 19.9877 13.5628 19.9811C13.2958 19.9714 13.1215 19.8055 13.1322 19.5821C13.1429 19.3586 13.308 19.2258 13.57 19.2227C13.9344 19.2181 14.2993 19.2319 14.6632 19.2171C15.1692 19.1968 15.5296 18.8201 15.5255 18.3346C15.5214 17.8491 15.1575 17.4826 14.6525 17.4617C14.4486 17.4536 14.2447 17.4617 14.0409 17.4617C13.7229 17.4617 13.545 17.3197 13.5501 17.078C13.5552 16.8362 13.7371 16.7029 14.0546 16.7008C14.3854 16.7008 14.7172 16.7039 15.0464 16.7008C15.5647 16.6932 15.9449 16.3237 15.9465 15.8326C15.948 15.3414 15.5708 14.9673 15.052 14.9582C14.7044 14.951 14.3569 14.9582 14.0093 14.9551C13.7193 14.9505 13.5429 14.7923 13.5506 14.5586C13.5582 14.325 13.7229 14.1978 14.0093 14.1958C14.5006 14.1922 14.9929 14.2044 15.4837 14.1912C16.004 14.1769 16.3786 13.7937 16.3741 13.3061C16.3695 12.8185 15.9842 12.449 15.4679 12.4348C15.3242 12.4307 15.1799 12.4348 15.0357 12.4348C13.697 12.4348 12.3578 12.4348 11.0181 12.4348C10.5712 12.4348 10.4269 12.2235 10.5783 11.7975C10.59 11.7655 10.6028 11.7344 10.6145 11.7024C11.2465 9.93578 11.1022 8.17682 10.5518 6.42499C10.5051 6.28268 10.4145 6.15881 10.2929 6.0712C10.1712 5.98359 10.0249 5.93675 9.87499 5.9374C9.57379 5.9374 9.2792 6.12317 9.19103 6.41175C9.15212 6.56685 9.13786 6.72709 9.14874 6.88661C9.1783 8.13559 8.87761 9.27515 7.98827 10.1948C7.60144 10.5944 7.15601 10.9374 6.72892 11.2972C6.01541 11.8963 5.29527 12.4831 4.58839 13.0888C4.50175 13.1631 4.4518 13.3193 4.44619 13.441C4.42785 13.8293 4.44059 14.2192 4.43651 14.608C4.43651 14.8381 4.30909 14.9729 4.08281 14.9974C3.87436 15.0198 3.70822 14.861 3.68172 14.6268C3.67568 14.551 3.67397 14.4749 3.67662 14.3988C3.67662 13.7049 3.67662 13.0111 3.67662 12.3172C3.67662 12.2276 3.66846 12.138 3.66387 12.0393L0.776197 12.0296Z" fill="#4A4A4A"/>
<path d="M19.7871 0.693625C21.4848 1.38224 23.1891 2.05712 24.8785 2.7661C25.6563 3.09285 26.0421 3.72294 26.0421 4.56883C26.0445 9.94037 26.0445 15.3122 26.0421 20.6845C26.0421 21.852 25.218 22.676 24.0437 22.6898C23.8491 22.6898 23.6539 22.6948 23.4592 22.6898C23.2268 22.6811 23.0825 22.5452 23.0713 22.3381C23.0601 22.1309 23.2043 21.9558 23.4418 21.937C23.6355 21.9217 23.8312 21.9324 24.0264 21.9304C24.796 21.9217 25.2796 21.4392 25.2796 20.6743C25.2796 15.3282 25.2807 9.98176 25.2827 4.63499C25.2827 4.03748 25.0192 3.64049 24.4749 3.41349C23.03 2.81343 21.5832 2.21693 20.1429 1.60822C19.7163 1.42805 19.3142 1.43772 18.8927 1.62298C18.2582 1.9024 17.615 2.16349 16.9708 2.4195C16.8531 2.46632 16.6869 2.50093 16.586 2.45207C16.4851 2.40321 16.3557 2.24187 16.3582 2.13194C16.3582 2.00877 16.4688 1.823 16.5779 1.77567C17.4591 1.41024 18.3515 1.07127 19.2403 0.723651C19.2545 0.715173 19.2675 0.704911 19.279 0.693115L19.7871 0.693625Z" fill="#4A4A4A"/>
<path d="M19.7351 18.4425C19.7351 18.6812 19.7351 18.925 19.7351 19.1687C19.7326 19.4711 19.598 19.637 19.3585 19.64C19.119 19.6431 18.9768 19.4756 18.9732 19.1784C18.9702 18.9499 18.9707 18.7204 18.9686 18.4934C18.9647 18.4732 18.9584 18.4535 18.9498 18.4348C18.2689 18.3442 17.801 17.991 17.6282 17.3014C17.609 17.219 17.5996 17.1346 17.6002 17.05C17.6002 16.8072 17.7373 16.6484 17.9524 16.6357C18.1675 16.6229 18.3214 16.7604 18.3601 17.0011C18.4345 17.479 18.6404 17.6561 19.1246 17.6582C19.3198 17.6582 19.5145 17.6582 19.7097 17.6582C19.9487 17.6536 20.1877 17.5564 20.2402 17.3375C20.3161 17.0194 20.3187 16.6759 20.3039 16.3481C20.2998 16.2641 20.1235 16.1557 20.0068 16.1145C19.5124 15.9394 19.0109 15.7847 18.5115 15.6249C17.8724 15.4213 17.5997 15.0543 17.5972 14.3917C17.5972 14.1881 17.5972 13.9845 17.5972 13.7809C17.6063 13.044 18.0961 12.5258 18.8376 12.4673C18.8708 12.4648 18.9034 12.4592 18.9722 12.45C18.9722 12.1996 18.9722 11.9492 18.9722 11.6988C18.9758 11.4117 19.1068 11.2529 19.3407 11.2463C19.5853 11.2397 19.7301 11.4041 19.7341 11.7003C19.7372 11.9441 19.7341 12.1884 19.7341 12.4373C19.8884 12.458 20.0415 12.4867 20.1928 12.5233C20.4428 12.5971 20.6642 12.7453 20.8277 12.9481C20.9911 13.1509 21.0888 13.3986 21.1076 13.6583C21.1224 13.929 20.9879 14.1123 20.76 14.1326C20.546 14.1514 20.3865 14.0018 20.3472 13.7443C20.2963 13.3946 20.121 13.2353 19.7724 13.2307C19.4844 13.2257 19.1959 13.2241 18.9059 13.2307C18.5604 13.2394 18.3662 13.4425 18.3591 13.7952C18.355 14.0069 18.3642 14.2186 18.3591 14.4298C18.3504 14.6675 18.4539 14.807 18.6827 14.8777C19.2 15.0386 19.7142 15.2075 20.2275 15.3785C20.8487 15.5852 21.1107 15.9516 21.1107 16.6092C21.1107 16.8204 21.1239 17.0357 21.0898 17.2423C20.9812 17.8933 20.5297 18.2898 19.7351 18.4425Z" fill="#4A4A4A"/>
<path d="M20.9077 4.67373C20.9069 4.86402 20.8685 5.05227 20.7948 5.22775C20.7211 5.40324 20.6136 5.5625 20.4782 5.69647C20.3429 5.83043 20.1825 5.93646 20.0061 6.00851C19.8298 6.08055 19.6409 6.11721 19.4504 6.11637C19.2598 6.11554 19.0713 6.07723 18.8956 6.00364C18.7199 5.93005 18.5604 5.82261 18.4263 5.68747C18.2921 5.55233 18.1859 5.39212 18.1138 5.216C18.0416 5.03988 18.0049 4.85129 18.0058 4.66101C18.0075 4.27671 18.162 3.90882 18.4353 3.63827C18.7086 3.36773 19.0783 3.21668 19.4631 3.21837C19.8479 3.22005 20.2163 3.37434 20.4873 3.64727C20.7582 3.9202 20.9094 4.28943 20.9077 4.67373ZM18.7672 4.66508C18.7677 4.75531 18.7861 4.84455 18.8211 4.92771C18.8562 5.01087 18.9073 5.08631 18.9716 5.14973C19.0359 5.21316 19.112 5.26332 19.1957 5.29735C19.2794 5.33139 19.3689 5.34863 19.4593 5.3481C19.5496 5.34756 19.639 5.32926 19.7223 5.29424C19.8056 5.25922 19.8811 5.20816 19.9446 5.14397C20.0081 5.07979 20.0584 5.00375 20.0924 4.92018C20.1265 4.83662 20.1438 4.74717 20.1433 4.65694C20.1422 4.47471 20.0686 4.30037 19.9388 4.17228C19.8091 4.04419 19.6336 3.97283 19.4511 3.97391C19.2687 3.97499 19.0941 4.04842 18.9658 4.17804C18.8376 4.30766 18.7661 4.48285 18.7672 4.66508Z" fill="#4A4A4A"/>
</svg>
