<svg width="12" height="12" viewBox="0 0 12 12" fill="none" xmlns="http://www.w3.org/2000/svg">
<g clip-path="url(#clip0_294_2385)">
<path d="M0 6.37381V5.62365C0.0070439 5.5856 0.0150273 5.54778 0.0208973 5.50974C0.0655086 5.22085 0.089927 4.92727 0.156844 4.64378C0.915472 1.42612 4.0425 -0.549803 7.28128 0.135771C9.93449 0.6971 11.9171 3.06384 11.9969 5.77255C12.0439 7.35484 11.5555 8.75535 10.5135 9.94917C9.58769 11.0103 8.42239 11.6623 7.03428 11.9091C6.81615 11.9476 6.59521 11.9702 6.37544 12H5.6255C5.59592 11.9915 5.56579 11.9851 5.53533 11.9808C4.33998 11.8868 3.26368 11.4765 2.3212 10.736C1.10777 9.78265 0.359944 8.5435 0.0906326 7.02133C0.0514216 6.8069 0.0293496 6.58965 0 6.37381ZM5.92791 2.98704C5.60366 2.98563 5.28903 3.03707 5.00047 3.19161C4.67833 3.36424 4.42803 3.60098 4.37638 3.98663C4.34679 4.2067 4.45668 4.38191 4.65813 4.45824C4.87462 4.53997 5.02958 4.50028 5.15755 4.2889C5.35806 3.95798 5.65367 3.86004 6.01596 3.88963C6.3212 3.91523 6.53369 4.0592 6.59309 4.28632C6.64334 4.4775 6.60295 4.65976 6.47569 4.80302C6.33886 4.9576 6.18672 5.0979 6.0216 5.22179C5.52054 5.59311 5.33623 6.09244 5.3907 6.69698C5.41089 6.92058 5.5081 7.02157 5.72951 7.03871C5.8267 7.04688 5.92456 7.0419 6.02042 7.02392C6.1984 6.98916 6.27729 6.883 6.28152 6.70191C6.28293 6.63145 6.28152 6.56099 6.28504 6.49053C6.28678 6.37497 6.31215 6.26098 6.3596 6.1556C6.40705 6.05022 6.47556 5.95566 6.56092 5.87777C6.62949 5.81412 6.7018 5.75447 6.77459 5.69551C7.03733 5.48202 7.27048 5.24316 7.43202 4.9423C7.80464 4.25179 7.56539 3.52042 6.85841 3.18315C6.56421 3.04176 6.25146 2.98892 5.92791 2.98704ZM5.22517 8.18533C5.22 8.52541 5.48837 8.80678 5.82014 8.80843C5.9798 8.80723 6.1327 8.74375 6.24627 8.6315C6.35985 8.51925 6.42515 8.36709 6.42827 8.20741C6.43017 8.04771 6.36917 7.89368 6.25845 7.77862C6.14772 7.66356 5.99618 7.59671 5.83658 7.59253C5.7575 7.59122 5.67894 7.60553 5.6054 7.63462C5.53185 7.66372 5.46477 7.70704 5.40798 7.7621C5.35119 7.81716 5.30581 7.88288 5.27444 7.9555C5.24307 8.02813 5.22633 8.10623 5.22517 8.18533Z" fill="#C4C4C4"/>
</g>
<defs>
<clipPath id="clip0_294_2385">
<rect width="12" height="12" fill="white"/>
</clipPath>
</defs>
</svg>
