<svg width="13" height="13" viewBox="0 0 13 13" fill="none" xmlns="http://www.w3.org/2000/svg">
<path d="M6.50407 0C8.29978 0 9.92293 0.726349 11.0976 1.90125L13 0V5.6875H7.30894L9.92683 3.07125C9.04951 2.18636 7.84751 1.62593 6.49927 1.625C4.3794 1.62704 2.57673 2.9833 1.91057 4.875H1.8962C1.80356 5.13636 1.73261 5.40792 1.68554 5.6875H0.0501274C0.448848 2.48007 3.17779 0 6.49593 0H6.50407Z" fill="#303030"/>
<path d="M0 7.3125V13L1.90244 11.0988C3.07707 12.2737 4.70022 13 6.49593 13L6.50407 13C9.82222 13 12.5512 10.5199 12.9499 7.3125H11.3145C11.2674 7.59208 11.1964 7.86364 11.1038 8.125H11.0894C10.4233 10.0166 8.62074 11.3729 6.50096 11.375C5.15263 11.3741 3.95055 10.8137 3.07317 9.92875L5.69106 7.3125H0Z" fill="#303030"/>
</svg>
