<svg width="20" height="17" viewBox="0 0 20 17" fill="none" xmlns="http://www.w3.org/2000/svg">
<g clip-path="url(#clip0_294_2640)">
<path d="M11.328 -1.35094e-07L11.1714 -1.33227e-07C10.9057 0.102394 10.8215 0.298046 10.8231 0.567163C10.8301 1.92112 10.8262 3.27545 10.8262 4.62979L10.8262 4.86769L10.5522 4.86769C7.23326 4.86769 3.91415 4.86769 0.594902 4.86769C0.134236 4.86769 -0.000793397 4.99788 -0.000793392 5.44133L-0.000793319 11.5728C-0.000793313 12.0391 0.120538 12.1578 0.598034 12.1578L10.8266 12.1578L10.8266 12.4003C10.8266 13.7483 10.8266 15.0961 10.8266 16.4439C10.8241 16.526 10.8313 16.6081 10.8481 16.6886C10.9202 16.9776 11.2438 17.0917 11.4928 16.917C11.5544 16.8707 11.6123 16.8198 11.6657 16.7648C14.3585 14.148 17.0506 11.5303 19.7421 8.91167C19.8411 8.81537 19.9139 8.69356 19.9992 8.58355L19.9992 8.39323C19.9065 8.28132 19.8235 8.1599 19.7194 8.05903C17.0496 5.46633 14.3777 2.87666 11.7037 0.290052C11.5894 0.181187 11.454 0.0970645 11.328 -1.35094e-07Z" fill="white"/>
</g>
<defs>
<clipPath id="clip0_294_2640">
<rect width="17" height="20" fill="white" transform="matrix(1.19249e-08 1 1 -1.19249e-08 0 0)"/>
</clipPath>
</defs>
</svg>
