<svg width="14" height="14" viewBox="0 0 14 14" fill="none" xmlns="http://www.w3.org/2000/svg">
<path fill-rule="evenodd" clip-rule="evenodd" d="M6 1.5625C3.54924 1.5625 1.5625 3.54924 1.5625 6C1.5625 8.45076 3.54924 10.4375 6 10.4375C8.45076 10.4375 10.4375 8.45076 10.4375 6C10.4375 3.54924 8.45076 1.5625 6 1.5625ZM0.4375 6C0.4375 2.92792 2.92792 0.4375 6 0.4375C9.07208 0.4375 11.5625 2.92792 11.5625 6C11.5625 9.07208 9.07208 11.5625 6 11.5625C2.92792 11.5625 0.4375 9.07208 0.4375 6Z" fill="#4D555D"/>
<path fill-rule="evenodd" clip-rule="evenodd" d="M9.269 9.26888C9.48867 9.04921 9.84483 9.04921 10.0645 9.26888L13.3978 12.6022C13.6175 12.8219 13.6175 13.178 13.3978 13.3977C13.1782 13.6174 12.822 13.6174 12.6023 13.3977L9.269 10.0644C9.04933 9.8447 9.04933 9.48855 9.269 9.26888Z" fill="#4D555D"/>
<path fill-rule="evenodd" clip-rule="evenodd" d="M10.3666 8.43845C10.6767 8.45691 10.9131 8.72327 10.8947 9.03338C10.8649 9.53246 10.7651 10.0162 10.4074 10.3706C10.0602 10.7145 9.57322 10.8309 9.06697 10.8918C8.75853 10.9289 8.47843 10.7089 8.44134 10.4004C8.40425 10.092 8.62422 9.8119 8.93265 9.77481C9.40179 9.7184 9.55385 9.63253 9.61565 9.57131C9.66696 9.52048 9.74606 9.39624 9.77164 8.96653C9.7901 8.65642 10.0565 8.41999 10.3666 8.43845Z" fill="#4D555D"/>
</svg>
