<svg width="22" height="22" viewBox="0 0 22 22" fill="none" xmlns="http://www.w3.org/2000/svg">
<g clip-path="url(#clip0_294_2297)">
<path d="M22 11.3674C21.6545 12.0966 21.0615 12.6362 20.5606 13.2448C19.7257 14.2724 18.8563 15.2714 18.0157 16.2933C17.2326 17.2406 16.225 17.6942 15.0102 17.6999C13.1562 17.7114 11.2965 17.7171 9.44252 17.6942C8.80342 17.6884 8.40615 18.0444 8.02038 18.452C7.99159 18.4807 7.99159 18.5553 8.00311 18.607C8.10099 19.1122 7.96856 19.5371 7.59432 19.893C6.9437 20.5245 6.29884 21.1675 5.64823 21.8048C5.57338 21.8794 5.48126 21.9368 5.40065 22.0057C5.31429 22.0057 5.22792 22.0057 5.14156 22.0057C5.01489 21.8967 4.8767 21.7876 4.75579 21.667C3.24729 20.1514 1.73878 18.6357 0.224518 17.1143C-0.0748796 16.81 -0.0806373 16.6091 0.218761 16.3105C0.846345 15.6848 1.47393 15.059 2.10151 14.4275C2.40667 14.1232 2.75789 13.9567 3.19547 13.9739C3.2588 13.9739 3.36244 13.928 3.39123 13.8706C4.81913 11.3732 7.93977 10.7589 10.1853 11.62C10.2947 11.6602 10.4213 11.6775 10.5422 11.6775C12.0104 11.6832 13.4786 11.6889 14.9526 11.6775C15.5514 11.6717 16.0696 11.8382 16.5417 12.3836C16.5763 12.3032 16.5935 12.2229 16.6396 12.1712C17.4341 11.3502 18.2402 10.5292 19.0348 9.70825C19.9963 8.72077 21.4415 9.00209 21.9654 10.2824C21.9712 10.2996 21.9885 10.3168 22 10.334C22 10.6785 22 11.023 22 11.3674ZM7.44462 17.7918C7.50795 17.7343 7.57129 17.6827 7.6231 17.6253C8.15281 17.0511 8.80342 16.8215 9.58646 16.833C11.3713 16.8559 13.1562 16.8445 14.9411 16.8387C15.9256 16.8387 16.7547 16.4943 17.3823 15.7077C17.7566 15.237 18.1539 14.7834 18.5396 14.3241C19.3514 13.3539 20.169 12.3836 20.9809 11.4134C21.3033 11.0287 21.2687 10.5177 20.9175 10.202C20.5721 9.89196 20.0539 9.90344 19.7142 10.2479C18.793 11.1895 17.8717 12.131 16.9563 13.0783C16.9102 13.1242 16.8757 13.1989 16.8699 13.262C16.8411 14.4504 16.1559 15.1221 14.9641 15.1221C13.9162 15.1221 12.8741 15.1221 11.8262 15.1221C11.7398 15.1221 11.6535 15.1221 11.5671 15.1106C11.3425 15.0705 11.1986 14.8925 11.2044 14.6743C11.2101 14.4562 11.3656 14.2954 11.6016 14.2667C11.6823 14.261 11.7571 14.261 11.8377 14.261C12.8914 14.261 13.945 14.261 14.9987 14.261C15.0908 14.261 15.1829 14.261 15.275 14.2437C15.6838 14.1863 15.9832 13.8533 16.012 13.44C16.035 13.0611 15.7759 12.6821 15.4017 12.5788C15.2635 12.5444 15.1196 12.5386 14.9756 12.5386C13.4556 12.5386 11.9356 12.5386 10.4156 12.5329C10.2774 12.5329 10.1277 12.5157 9.99526 12.464C9.03949 12.0736 8.06069 12.0162 7.06461 12.2229C5.80944 12.4812 4.8364 13.1529 4.16851 14.2552C4.0879 14.3873 4.09942 14.4562 4.20882 14.5595C4.50821 14.8466 4.80185 15.1451 5.09549 15.4379C5.87854 16.2244 6.65582 17.0052 7.44462 17.7918ZM5.37186 20.9666C5.91884 20.3982 6.4946 19.8011 7.06461 19.1983C7.2431 19.0089 7.21431 18.7677 6.99552 18.5553C5.8152 17.3784 4.63488 16.2015 3.45456 15.0245C3.20123 14.7719 2.98244 14.7777 2.7291 15.0303C2.34909 15.4092 1.96909 15.7938 1.58908 16.167C1.4106 16.345 1.22059 16.5172 1.00756 16.7124C2.45849 18.1305 3.88063 19.5141 5.37186 20.9666Z" fill="black"/>
<path d="M12.828 9.44416C10.2025 9.43842 8.09521 7.31995 8.10096 4.70199C8.11248 2.10126 10.2371 -0.00572942 12.8453 1.17047e-05C15.465 0.00575283 17.5781 2.12997 17.5723 4.74792C17.5666 7.34865 15.442 9.4499 12.828 9.44416ZM12.8395 8.58874C14.9756 8.58874 16.7087 6.8664 16.7144 4.73644C16.7202 2.595 14.9814 0.861181 12.8395 0.861181C10.7034 0.861181 8.97037 2.58926 8.96461 4.71348C8.96461 6.85492 10.6919 8.58874 12.8395 8.58874Z" fill="black"/>
<path d="M10.2601 14.6284C10.2543 14.8638 10.0701 15.0475 9.83978 15.0532C9.60372 15.0532 9.4022 14.8466 9.40796 14.6169C9.41371 14.3815 9.61523 14.1921 9.85705 14.1978C10.0874 14.2036 10.2658 14.393 10.2601 14.6284Z" fill="black"/>
<path d="M12.3271 2.6352C12.3271 2.48593 12.3214 2.32517 12.3271 2.17016C12.3329 1.91181 12.5114 1.72236 12.7474 1.72236C12.9835 1.71661 13.1965 1.90607 13.1735 2.15868C13.1447 2.49167 13.2023 2.73279 13.5535 2.84762C13.6514 2.87632 13.7262 2.96818 13.8068 3.04282C13.9853 3.22079 13.9911 3.46192 13.8356 3.63989C13.6859 3.80639 13.4498 3.82935 13.2541 3.69156C13.1677 3.62841 13.0871 3.55952 12.995 3.50785C12.8165 3.41025 12.638 3.41599 12.4768 3.55378C12.3386 3.67434 12.2926 3.82361 12.3501 4.00158C12.4192 4.20252 12.5632 4.28864 12.7704 4.30586C13.4326 4.35179 13.8932 4.73645 14.0199 5.34501C14.1408 5.91338 13.8644 6.45305 13.3002 6.76307C13.2483 6.79177 13.1965 6.87215 13.1908 6.9353C13.1735 7.0616 13.1908 7.19365 13.185 7.31996C13.1677 7.56682 12.995 7.73332 12.7532 7.73332C12.5171 7.73332 12.3098 7.56108 12.3329 7.31421C12.3732 6.95826 12.2695 6.73436 11.9241 6.59083C11.7686 6.52768 11.6477 6.36693 11.5326 6.23488C11.3771 6.05117 11.4116 5.81004 11.5786 5.65503C11.7513 5.50002 11.9817 5.50576 12.1601 5.66077C12.258 5.74689 12.3444 5.84449 12.448 5.91338C12.6265 6.03394 12.8223 6.06265 13.0065 5.92486C13.1562 5.81004 13.2138 5.64929 13.162 5.47131C13.0929 5.25315 12.9259 5.16703 12.7014 5.15555C11.7456 5.0924 11.1756 4.12789 11.5959 3.29543C11.7341 3.01985 11.8838 2.88206 12.3271 2.6352Z" fill="black"/>
</g>
<defs>
<clipPath id="clip0_294_2297">
<rect width="22" height="22" fill="white"/>
</clipPath>
</defs>
</svg>
