<svg width="19" height="21" viewBox="0 0 19 21" fill="none" xmlns="http://www.w3.org/2000/svg">
<g clip-path="url(#clip0_294_2313)">
<path d="M9.85054 0C10.0236 0.112253 10.0768 0.267681 10.0768 0.466283C10.068 1.47656 10.0724 2.48684 10.0724 3.49712C10.0724 3.5662 10.0768 3.63528 10.0591 3.70004C10.0147 3.8641 9.89491 3.95477 9.72186 3.95477C9.54881 3.95477 9.429 3.86842 9.38463 3.70004C9.36688 3.62664 9.37132 3.54893 9.37132 3.47553C9.37132 2.47821 9.37576 1.4852 9.36688 0.48787C9.36688 0.280633 9.41125 0.116571 9.59762 0C9.68192 0 9.76623 0 9.85054 0Z" fill="black"/>
<path d="M3.67841 14.9901C4.08663 14.8692 4.48597 14.7138 4.89863 14.6318C5.897 14.4245 6.88205 14.5238 7.7828 14.9901C8.44837 15.3312 9.13614 15.4909 9.88158 15.4866C10.5117 15.4823 11.1462 15.5212 11.7763 15.5298C12.6459 15.5427 13.316 15.8881 13.7774 16.6091C13.7907 16.6307 13.8129 16.6523 13.8351 16.6825C14.5317 16.3631 15.2284 16.0436 15.925 15.7241C16.1868 15.6032 16.4397 15.478 16.706 15.37C17.5047 15.0376 18.4453 15.3269 18.9024 16.0349C19.0577 16.2767 19.0266 16.4537 18.7826 16.6091C16.7104 17.9173 14.6516 19.2385 12.5572 20.5121C11.8162 20.9611 10.9376 21.0863 10.0768 20.9525C9.33137 20.8402 8.60368 20.62 7.87598 20.4301C6.98854 20.2013 6.10554 19.9552 5.22255 19.7091C4.86757 19.6098 4.53035 19.6443 4.20643 19.817C4.09994 19.8731 4.00232 19.9379 3.89139 19.9811C3.65179 20.076 3.47874 20.1926 3.49648 20.4948C3.50536 20.6762 3.35449 20.7927 3.15926 20.7884C2.22745 20.7712 1.29121 20.7496 0.359399 20.7193C0.102042 20.7107 -0.00888704 20.5639 -0.00444986 20.2876C0.0266104 19.2039 0.0576706 18.1159 0.0887309 17.0323C0.110917 16.1947 0.13754 15.3528 0.159726 14.5152C0.1686 14.1482 0.27953 14.0446 0.661127 14.0532C1.50419 14.0748 2.34282 14.0921 3.18588 14.1137C3.58966 14.1223 3.69172 14.2389 3.67397 14.6318C3.67397 14.7526 3.67841 14.8735 3.67841 14.9901ZM18.117 16.2076C17.7753 15.8925 17.336 15.8363 16.8879 16.0392C16.0138 16.4408 15.1396 16.8509 14.2655 17.2438C14.1058 17.3172 14.0525 17.3863 14.0836 17.5633C14.1457 17.9087 14.0392 18.1418 13.5689 18.1246C12.322 18.0771 11.0707 18.0555 9.8239 18.0209C9.71297 18.0166 9.5976 18.0166 9.48667 17.9994C9.30475 17.9735 9.18051 17.831 9.18495 17.6626C9.18938 17.4856 9.32694 17.3474 9.51773 17.3302C9.57985 17.3258 9.64198 17.3302 9.70853 17.3302C10.84 17.3604 11.9671 17.3906 13.0985 17.4165C13.1784 17.4165 13.2583 17.4165 13.3426 17.4165C13.2272 16.7732 12.6326 16.2638 11.9715 16.2292C11.5633 16.2076 11.1595 16.2033 10.7513 16.1904C10.241 16.1774 9.72628 16.1645 9.21601 16.1472C8.58149 16.1213 8.03128 15.8536 7.46776 15.5989C6.22979 15.0376 5.00956 15.1024 3.81596 15.7543C3.69172 15.8234 3.64291 15.9011 3.63847 16.0436C3.61185 17.11 3.57635 18.1721 3.54973 19.2385C3.54973 19.273 3.5586 19.3119 3.56748 19.368C3.67841 19.3119 3.77159 19.2687 3.86477 19.2169C4.36173 18.9492 4.88532 18.8974 5.43109 19.0485C6.13217 19.2428 6.83324 19.4371 7.53432 19.6227C8.36407 19.8429 9.18938 20.1063 10.0369 20.2531C10.8977 20.3999 11.7363 20.2358 12.4906 19.7566C13.5689 19.0658 14.656 18.3922 15.7387 17.7101C16.5285 17.2093 17.3139 16.7128 18.117 16.2076ZM2.8176 20.0588C2.8664 18.3232 2.91521 16.566 2.96846 14.7786C2.25851 14.7786 1.57519 14.7786 0.869674 14.7786C0.820865 16.5228 0.772056 18.2714 0.71881 20.0588C1.42432 20.0588 2.10765 20.0588 2.8176 20.0588Z" fill="black"/>
<path d="M9.70853 14.5627C6.87317 14.554 4.57915 12.3133 4.59246 9.56306C4.60134 6.81286 6.91311 4.58075 9.73959 4.58938C12.5749 4.59802 14.869 6.84308 14.8557 9.59329C14.8423 12.3435 12.5394 14.5713 9.70853 14.5627ZM9.72628 13.8762C12.1667 13.8762 14.1457 11.9506 14.1457 9.57602C14.1457 7.20143 12.1756 5.28017 9.73072 5.27153C7.28139 5.26722 5.29798 7.19711 5.29798 9.58033C5.30241 11.9506 7.28583 13.8805 9.72628 13.8762Z" fill="black"/>
<path d="M12.0247 2.83656C12.0247 2.59046 12.0203 2.34437 12.0247 2.09827C12.0292 1.86513 12.1712 1.72266 12.3797 1.72266C12.5838 1.72697 12.7214 1.86945 12.7258 2.10691C12.7302 2.59046 12.7302 3.07833 12.7258 3.56188C12.7258 3.80798 12.5838 3.95909 12.3708 3.95477C12.1579 3.95045 12.0292 3.80366 12.0247 3.54893C12.0203 3.31147 12.0247 3.07401 12.0247 2.83656Z" fill="black"/>
<path d="M7.41894 2.84519C7.41894 3.09128 7.42337 3.33738 7.41894 3.58347C7.4145 3.81661 7.27251 3.95909 7.06396 3.95909C6.85986 3.95477 6.7223 3.81229 6.71787 3.57484C6.71343 3.08265 6.71343 2.59046 6.71787 2.09827C6.7223 1.86513 6.86429 1.72266 7.0684 1.72266C7.27251 1.72697 7.41006 1.86945 7.4145 2.10691C7.42337 2.353 7.41894 2.5991 7.41894 2.84519Z" fill="black"/>
<path d="M8.92313 8.4147C8.91869 8.8119 9.20711 9.13571 9.61533 9.19184C9.77507 9.21342 9.93924 9.21774 10.0945 9.25228C10.7424 9.40771 11.1905 9.94307 11.2349 10.5907C11.2748 11.2038 10.8932 11.8125 10.2898 12.0241C10.0768 12.0975 10.0014 12.1925 10.028 12.3997C10.0457 12.5551 9.97918 12.7019 9.81944 12.7408C9.71295 12.7667 9.54877 12.758 9.47334 12.6976C9.38903 12.6242 9.33578 12.4774 9.33578 12.3608C9.33578 12.1709 9.28254 12.0845 9.09618 12.0025C8.55928 11.7693 8.2753 11.3376 8.21762 10.772C8.19099 10.5216 8.33298 10.3446 8.5504 10.336C8.75895 10.323 8.90094 10.4698 8.92756 10.7159C8.97194 11.1606 9.30029 11.4542 9.74844 11.4499C10.1567 11.4455 10.4983 11.1304 10.5249 10.7332C10.5516 10.3057 10.2498 9.96898 9.80169 9.89558C9.53546 9.85241 9.25148 9.8265 9.01631 9.70993C8.46166 9.43361 8.18656 8.95438 8.22205 8.34994C8.25311 7.7455 8.57703 7.30944 9.15386 7.07198C9.29585 7.01153 9.3491 6.94677 9.33578 6.8043C9.32691 6.74385 9.33579 6.67909 9.34466 6.61865C9.37128 6.44595 9.52215 6.32074 9.6952 6.32506C9.86825 6.32938 10.0413 6.4589 10.028 6.6316C10.0014 6.9036 10.13 7.0029 10.3741 7.1022C10.8977 7.32239 11.1728 7.74981 11.2393 8.29813C11.2704 8.55717 11.1417 8.74714 10.9199 8.76441C10.7113 8.78168 10.5604 8.63057 10.5338 8.37152C10.4939 7.93546 10.13 7.61597 9.69963 7.64188C9.26035 7.66346 8.92313 7.99591 8.92313 8.4147Z" fill="black"/>
</g>
<defs>
<clipPath id="clip0_294_2313">
<rect width="19" height="21" fill="white"/>
</clipPath>
</defs>
</svg>
