<svg width="20" height="20" viewBox="0 0 20 20" fill="none" xmlns="http://www.w3.org/2000/svg">
<path d="M9.99984 1.6665C5.40484 1.6665 1.6665 5.40484 1.6665 9.99984V13.4523C1.6665 14.3057 2.414 14.9998 3.33317 14.9998H4.1665C4.38752 14.9998 4.59948 14.912 4.75576 14.7558C4.91204 14.5995 4.99984 14.3875 4.99984 14.1665V9.88067C4.99984 9.65966 4.91204 9.4477 4.75576 9.29141C4.59948 9.13513 4.38752 9.04734 4.1665 9.04734H3.40984C3.87317 5.82234 6.64817 3.33317 9.99984 3.33317C13.3515 3.33317 16.1265 5.82234 16.5898 9.04734H15.8332C15.6122 9.04734 15.4002 9.13513 15.2439 9.29141C15.0876 9.4477 14.9998 9.65966 14.9998 9.88067V14.9998C14.9998 15.919 14.2523 16.6665 13.3332 16.6665H11.6665V15.8332H8.33317V18.3332H13.3332C15.1715 18.3332 16.6665 16.8382 16.6665 14.9998C17.5857 14.9998 18.3332 14.3057 18.3332 13.4523V9.99984C18.3332 5.40484 14.5948 1.6665 9.99984 1.6665Z" fill="white"/>
</svg>
