<svg width="150" height="47" viewBox="0 0 150 47" fill="none" xmlns="http://www.w3.org/2000/svg">
<g clip-path="url(#clip0_354_3158)">
<path d="M148.008 47H1.99219C0.9375 47 0 46.1775 0 45.0025V1.9975C0 0.94 0.9375 0 1.99219 0H148.125C149.18 0 150.117 0.94 150.117 1.9975V45.12C150 46.1775 149.18 47 148.008 47Z" fill="#4267B2"/>
<path d="M31.1719 11.985H14.7656C13.125 11.985 11.7188 13.395 11.7188 15.04V31.49C11.7188 33.135 13.125 34.545 14.7656 34.545H22.8516V26.555H20.7422C20.5078 26.555 20.2734 26.32 20.2734 26.085V23.5C20.2734 23.265 20.5078 23.03 20.7422 23.03H22.8516V20.5625C22.8516 17.625 24.6094 16.0975 27.1875 16.0975H29.2969C29.5312 16.0975 29.7656 16.3325 29.7656 16.5675V18.8C29.7656 19.035 29.5312 19.27 29.2969 19.27H28.0078C26.6016 19.27 26.3672 19.975 26.3672 20.915V23.03H29.4141C29.7656 23.03 29.8828 23.265 29.8828 23.6175L29.5312 26.2025C29.5312 26.4375 29.2969 26.6725 29.0625 26.6725H26.25V34.6625H31.0547C32.6953 34.6625 34.1016 33.2525 34.1016 31.6075V15.1575C34.2188 13.2775 32.8125 11.985 31.1719 11.985Z" fill="white"/>
<path d="M46.4062 0V47" stroke="#31549D" stroke-width="0.75" stroke-miterlimit="10"/>
<path d="M72.8906 23.03H68.5547V27.6125H66.7969V16.8025H73.7109V18.2125H68.5547V21.5025H72.8906V23.03Z" fill="white"/>
<path d="M79.5703 27.6125C79.4531 27.3775 79.4531 27.26 79.4531 27.025C79.4531 26.79 79.3359 26.6725 79.3359 26.4375C79.1016 26.79 78.75 27.1425 78.3984 27.3775C78.0469 27.6125 77.5781 27.73 76.9922 27.73C76.1719 27.73 75.4687 27.495 75.1172 27.025C74.6484 26.555 74.4141 25.9675 74.4141 25.2625C74.4141 24.44 74.7656 23.8525 75.3516 23.3825C75.9375 22.9125 76.875 22.6775 77.9297 22.6775H79.3359V21.9725C79.3359 21.5025 79.2188 21.2675 78.9844 21.0325C78.75 20.7975 78.3984 20.68 77.9297 20.68C77.4609 20.68 77.2266 20.7975 76.9922 21.0325C76.7578 21.2675 76.6406 21.5025 76.6406 21.855H74.8828C74.8828 21.2675 75.1172 20.68 75.7031 20.21C76.2891 19.74 77.1094 19.505 78.0469 19.505C78.9844 19.505 79.6875 19.74 80.2734 20.21C80.8594 20.68 81.0937 21.385 81.0937 22.325V25.9675C81.0937 26.32 81.0938 26.6725 81.2109 26.9075C81.2109 27.26 81.3281 27.495 81.4453 27.8475H79.5703V27.6125ZM77.3438 26.32C77.8125 26.32 78.1641 26.2025 78.5156 25.9675C78.8672 25.7325 79.1016 25.4975 79.2187 25.145V23.97H77.8125C77.3438 23.97 76.875 24.0875 76.5234 24.3225C76.2891 24.675 76.1719 24.91 76.1719 25.2625C76.1719 25.615 76.2891 25.85 76.5234 25.9675C76.6406 26.2025 76.9922 26.32 77.3438 26.32Z" fill="white"/>
<path d="M86.25 26.32C86.7187 26.32 86.9531 26.2025 87.3047 25.9675C87.5391 25.7325 87.7734 25.38 87.7734 25.0275H89.4141C89.4141 25.7325 89.1797 26.4375 88.4766 27.025C87.8906 27.6125 87.0703 27.8475 86.25 27.8475C85.0781 27.8475 84.1406 27.495 83.5547 26.6725C82.9688 25.85 82.6172 24.91 82.6172 23.735V23.5C82.6172 22.325 82.9688 21.385 83.5547 20.5625C84.1406 19.74 85.0781 19.3875 86.25 19.3875C87.1875 19.3875 87.8906 19.6225 88.4766 20.21C89.0625 20.7975 89.2969 21.5025 89.2969 22.325H87.6563C87.6563 21.855 87.5391 21.5025 87.3047 21.15C87.0703 20.7975 86.7187 20.68 86.25 20.68C85.6641 20.68 85.1953 20.915 84.8438 21.385C84.6094 21.855 84.375 22.56 84.375 23.265V23.5C84.375 24.205 84.4922 24.91 84.8438 25.38C85.0781 26.085 85.5469 26.32 86.25 26.32Z" fill="white"/>
<path d="M94.3359 27.73C93.1641 27.73 92.2266 27.3775 91.5234 26.6725C90.8203 25.9675 90.5859 24.91 90.5859 23.735V23.5C90.5859 22.325 90.9375 21.385 91.5234 20.5625C92.2266 19.74 93.0469 19.3875 94.1016 19.3875C95.1562 19.3875 95.9766 19.74 96.5625 20.445C97.1484 21.15 97.3828 21.9725 97.3828 23.1475V24.0875H92.4609C92.4609 24.7925 92.6953 25.2625 92.9297 25.7325C93.2812 26.2025 93.75 26.32 94.4531 26.32C94.9219 26.32 95.3906 26.2025 95.7422 26.085C96.0937 25.9675 96.4453 25.85 96.7969 25.615L97.3828 26.79C97.0312 27.025 96.6797 27.26 96.2109 27.495C95.5078 27.73 94.9219 27.73 94.3359 27.73ZM94.1016 20.7975C93.6328 20.7975 93.2812 20.915 92.9297 21.2675C92.6953 21.62 92.4609 22.09 92.3437 22.56H95.5078V22.4425C95.5078 21.9725 95.3906 21.5025 95.1562 21.15C95.0391 21.0325 94.6875 20.7975 94.1016 20.7975Z" fill="white"/>
<path d="M105.937 23.8525C105.937 25.0275 105.703 25.9675 105.117 26.6725C104.531 27.3775 103.828 27.73 102.773 27.73C102.305 27.73 101.836 27.6125 101.484 27.3775C101.133 27.1425 100.781 26.9075 100.547 26.4375L100.312 27.495H98.7891V15.8625H100.547V20.3275C100.781 19.975 101.133 19.74 101.484 19.505C101.836 19.27 102.187 19.27 102.656 19.27C103.711 19.27 104.414 19.6225 105 20.445C105.586 21.2675 105.82 22.325 105.82 23.6175V23.8525H105.937ZM104.18 23.735C104.18 22.9125 104.062 22.2075 103.711 21.7375C103.477 21.2675 103.008 20.915 102.305 20.915C101.953 20.915 101.602 21.0325 101.25 21.15C100.898 21.2675 100.781 21.62 100.664 21.855V25.2625C100.781 25.615 101.016 25.85 101.25 25.9675C101.484 26.2025 101.836 26.2025 102.305 26.2025C102.891 26.2025 103.359 25.9675 103.711 25.4975C103.945 25.0275 104.18 24.44 104.18 23.735Z" fill="white"/>
<path d="M107.109 23.5C107.109 22.325 107.461 21.2675 108.047 20.5625C108.75 19.74 109.57 19.3875 110.742 19.3875C111.914 19.3875 112.852 19.74 113.438 20.5625C114.141 21.385 114.375 22.325 114.375 23.5V23.6175C114.375 24.7925 114.023 25.85 113.438 26.555C112.852 27.26 111.914 27.73 110.742 27.73C109.57 27.73 108.633 27.3775 108.047 26.555C107.344 25.7325 107.109 24.7925 107.109 23.6175V23.5ZM108.984 23.6175C108.984 24.44 109.102 25.0275 109.453 25.4975C109.805 25.9675 110.273 26.2025 110.859 26.2025C111.445 26.2025 111.914 25.9675 112.266 25.4975C112.617 25.0275 112.734 24.3225 112.734 23.6175V23.5C112.734 22.6775 112.617 22.09 112.266 21.62C111.914 21.15 111.445 20.915 110.859 20.915C110.273 20.915 109.805 21.15 109.453 21.62C109.102 22.09 108.984 22.795 108.984 23.5V23.6175Z" fill="white"/>
<path d="M115.781 23.5C115.781 22.325 116.133 21.2675 116.719 20.5625C117.422 19.74 118.242 19.3875 119.414 19.3875C120.586 19.3875 121.523 19.74 122.109 20.5625C122.812 21.385 123.047 22.325 123.047 23.5V23.6175C123.047 24.7925 122.695 25.85 122.109 26.555C121.523 27.26 120.586 27.73 119.414 27.73C118.242 27.73 117.305 27.3775 116.719 26.555C116.016 25.7325 115.781 24.7925 115.781 23.6175V23.5ZM117.656 23.6175C117.656 24.44 117.773 25.0275 118.125 25.4975C118.477 25.9675 118.945 26.2025 119.531 26.2025C120.117 26.2025 120.586 25.9675 120.937 25.4975C121.289 25.0275 121.406 24.3225 121.406 23.6175V23.5C121.406 22.6775 121.289 22.09 120.937 21.62C120.586 21.15 120.117 20.915 119.531 20.915C118.945 20.915 118.477 21.15 118.125 21.62C117.773 22.09 117.656 22.795 117.656 23.5V23.6175Z" fill="white"/>
<path d="M127.266 24.0872H126.562V27.6122H124.805V15.9797H126.562V22.6772H127.148L129.375 19.6222H131.484L128.672 23.3822L131.719 27.7297H129.609L127.266 24.0872Z" fill="white"/>
</g>
<defs>
<clipPath id="clip0_354_3158">
<rect width="150" height="47" fill="white"/>
</clipPath>
</defs>
</svg>
