<svg width="150" height="47" viewBox="0 0 150 47" fill="none" xmlns="http://www.w3.org/2000/svg">
<g clip-path="url(#clip0_354_3139)">
<path d="M147.656 46.6466H2.46094C1.40625 46.6466 0.46875 45.7066 0.46875 44.6491V2.34906C0.46875 1.29156 1.40625 0.351562 2.46094 0.351562H147.773C148.828 0.351562 149.766 1.29156 149.766 2.34906V44.6491C149.648 45.7066 148.828 46.6466 147.656 46.6466Z" fill="white" stroke="#3480FF" stroke-width="0.75" stroke-miterlimit="10"/>
<path d="M148.477 46.6466H46.7578C46.5234 46.6466 46.4062 46.5291 46.4062 46.2941V0.704062C46.4062 0.586562 46.5234 0.351562 46.7578 0.351562H147.305C148.594 0.351562 149.766 1.40906 149.766 2.81906V45.4716C149.648 46.0591 149.18 46.6466 148.477 46.6466Z" fill="#3480FF"/>
<path d="M83.3203 26.2025C82.9688 26.6725 82.5 27.025 81.9141 27.3775C81.2109 27.73 80.3906 27.8475 79.3359 27.8475C78.0469 27.8475 76.9922 27.3775 76.1719 26.555C75.4688 25.7325 75 24.675 75 23.3825V21.15C75 19.8575 75.3516 18.8 76.1719 17.9775C76.9922 17.155 78.0469 16.685 79.2188 16.685C80.5078 16.685 81.4453 17.0375 82.1484 17.625C82.8516 18.2125 83.2031 19.035 83.2031 20.0925H81.4453C81.4453 19.505 81.2109 19.035 80.8594 18.565C80.5078 18.2125 79.9219 17.9775 79.2188 17.9775C78.5156 17.9775 77.8125 18.2125 77.4609 18.8C76.9922 19.3875 76.7578 20.0925 76.7578 20.915V23.1475C76.7578 23.97 76.9922 24.7925 77.4609 25.2625C77.9297 25.85 78.5156 26.085 79.3359 26.085C79.9219 26.085 80.3906 25.9675 80.7422 25.85C81.0938 25.7325 81.3281 25.615 81.5625 25.38V23.1475H79.3359V21.7375H83.4375V26.2025H83.3203Z" fill="white"/>
<path d="M85.0781 23.5C85.0781 22.325 85.4297 21.2675 86.0156 20.5625C86.7188 19.74 87.5391 19.3875 88.7109 19.3875C89.8828 19.3875 90.8203 19.74 91.4063 20.5625C92.1094 21.385 92.3438 22.325 92.3438 23.5V23.6175C92.3438 24.7925 91.9922 25.85 91.4063 26.555C90.7031 27.26 89.8828 27.73 88.7109 27.73C87.5391 27.73 86.6016 27.3775 86.0156 26.555C85.3125 25.7325 85.0781 24.7925 85.0781 23.6175V23.5ZM86.8359 23.6175C86.8359 24.44 86.9531 25.0275 87.3047 25.4975C87.6563 25.9675 88.125 26.2025 88.7109 26.2025C89.2969 26.2025 89.7656 25.9675 90.1172 25.4975C90.4688 25.0275 90.5859 24.3225 90.5859 23.6175V23.5C90.5859 22.6775 90.4688 22.09 90.1172 21.62C89.7656 21.15 89.2969 20.915 88.7109 20.915C88.125 20.915 87.6563 21.15 87.3047 21.62C86.9531 22.09 86.8359 22.795 86.8359 23.5V23.6175Z" fill="white"/>
<path d="M93.6328 23.5C93.6328 22.325 93.9844 21.2675 94.5703 20.5625C95.2734 19.74 96.0937 19.3875 97.2656 19.3875C98.4375 19.3875 99.375 19.74 99.9609 20.5625C100.664 21.385 100.898 22.325 100.898 23.5V23.6175C100.898 24.7925 100.547 25.85 99.9609 26.555C99.375 27.26 98.4375 27.73 97.2656 27.73C96.0937 27.73 95.1562 27.3775 94.5703 26.555C93.8672 25.7325 93.6328 24.7925 93.6328 23.6175V23.5ZM95.5078 23.6175C95.5078 24.44 95.625 25.0275 95.9766 25.4975C96.3281 25.9675 96.7969 26.2025 97.3828 26.2025C97.9687 26.2025 98.4375 25.9675 98.7891 25.4975C99.1406 25.0275 99.2578 24.3225 99.2578 23.6175V23.5C99.2578 22.6775 99.1406 22.09 98.7891 21.62C98.4375 21.15 97.9687 20.915 97.3828 20.915C96.7969 20.915 96.3281 21.15 95.9766 21.62C95.625 22.09 95.5078 22.795 95.5078 23.5V23.6175Z" fill="white"/>
<path d="M102.305 23.735C102.305 22.4425 102.539 21.385 103.125 20.68C103.711 19.8575 104.414 19.505 105.469 19.505C105.937 19.505 106.406 19.6225 106.758 19.8575C107.109 20.0925 107.461 20.3275 107.695 20.7975L107.93 19.74H109.453V27.8475C109.453 28.905 109.102 29.7275 108.516 30.315C107.93 30.9025 106.992 31.1375 105.82 31.1375C105.469 31.1375 105 31.1375 104.531 31.02C104.062 30.9025 103.711 30.785 103.359 30.55L103.594 29.14C103.945 29.2575 104.297 29.375 104.648 29.4925C105 29.61 105.469 29.61 105.82 29.61C106.523 29.61 106.992 29.4925 107.227 29.14C107.461 28.7875 107.695 28.435 107.695 27.8475V27.025C107.461 27.3775 107.109 27.6125 106.758 27.73C106.406 27.8475 106.055 27.965 105.586 27.965C104.648 27.965 103.828 27.6125 103.242 26.9075C102.656 26.2025 102.422 25.2625 102.422 24.0875V23.735H102.305ZM104.18 23.8525C104.18 24.5575 104.297 25.145 104.648 25.615C104.883 26.085 105.352 26.32 106.055 26.32C106.406 26.32 106.758 26.2025 106.992 26.085C107.227 25.9675 107.461 25.7325 107.578 25.38V21.855C107.461 21.62 107.227 21.385 106.875 21.15C106.641 21.0325 106.289 20.915 105.937 20.915C105.352 20.915 104.883 21.15 104.531 21.7375C104.18 22.2075 104.063 22.9125 104.063 23.735V23.8525H104.18Z" fill="white"/>
<path d="M113.203 27.6125H111.328V15.98H113.086V27.6125H113.203Z" fill="white"/>
<path d="M118.594 27.73C117.422 27.73 116.484 27.3775 115.781 26.6725C115.078 25.9675 114.844 24.91 114.844 23.735V23.5C114.844 22.325 115.195 21.385 115.781 20.5625C116.484 19.74 117.305 19.3875 118.359 19.3875C119.414 19.3875 120.234 19.74 120.82 20.445C121.406 21.15 121.641 21.9725 121.641 23.1475V24.0875H116.719C116.719 24.7925 116.953 25.2625 117.187 25.7325C117.539 26.2025 118.008 26.32 118.711 26.32C119.18 26.32 119.648 26.2025 120 26.085C120.352 25.9675 120.703 25.85 121.055 25.615L121.641 26.79C121.289 27.025 120.938 27.26 120.469 27.495C119.883 27.73 119.297 27.73 118.594 27.73ZM118.477 20.7975C118.008 20.7975 117.656 20.915 117.305 21.2675C117.07 21.62 116.836 22.09 116.719 22.56H119.883V22.4425C119.883 21.9725 119.766 21.5025 119.531 21.15C119.297 21.0325 118.945 20.7975 118.477 20.7975Z" fill="white"/>
<path d="M13.5938 18.565C13.7109 18.2125 13.9453 17.9775 14.0625 17.625C14.8828 16.3325 15.9375 15.1575 17.2266 14.335C18.1641 13.63 19.2187 13.16 20.3906 12.925C20.8594 12.8075 21.2109 12.69 21.6797 12.69C21.9141 12.69 22.1484 12.5725 22.3828 12.5725C22.6172 12.5725 22.7344 12.5725 22.9688 12.5725C23.3203 12.5725 23.5547 12.5725 23.9062 12.5725C24.1406 12.5725 24.4922 12.5725 24.7266 12.5725C25.6641 12.69 26.6016 12.925 27.4219 13.2775C28.5937 13.7475 29.7656 14.4525 30.7031 15.275C29.6484 16.3325 28.5938 17.39 27.6562 18.4475H27.5391C26.7188 17.7425 25.6641 17.2725 24.6094 17.155C23.9062 17.0375 23.3203 17.0375 22.6172 17.155C20.1562 17.5075 18.1641 19.1525 17.3437 21.5025C17.1094 21.2675 16.875 21.15 16.6406 20.915C16.0547 20.445 15.4688 19.975 14.7656 19.505C14.2969 19.1525 13.9453 18.9175 13.5938 18.565Z" fill="#E94335"/>
<path d="M17.2266 25.4975C17.3437 25.85 17.4609 26.2025 17.6953 26.4375C18.5156 27.8475 19.5703 28.905 21.0937 29.4925C21.5625 29.7275 22.1484 29.845 22.6172 29.845C22.9687 29.845 23.4375 29.845 23.7891 29.845C24.8437 29.845 25.8984 29.4925 26.8359 29.0225C26.9531 29.0225 26.9531 28.905 27.0703 28.905C27.3047 29.14 27.5391 29.2575 27.7734 29.4925C28.7109 30.1975 29.6484 30.9025 30.5859 31.6075C30.3516 31.8425 30.1172 32.0775 29.8828 32.195C28.7109 33.135 27.4219 33.7225 25.8984 34.075C25.5469 34.1925 25.1953 34.1925 24.8438 34.31C24.6094 34.31 24.4922 34.31 24.2578 34.4275C23.7891 34.4275 23.3203 34.4275 22.8516 34.4275C22.5 34.4275 22.1484 34.4275 21.9141 34.31C21.3281 34.1925 20.7422 34.075 20.1563 33.9575C19.1016 33.605 18.1641 33.2525 17.3437 32.665C15.8203 31.6075 14.6484 30.315 13.7109 28.67C13.7109 28.5525 13.5938 28.435 13.5938 28.435C14.4141 27.73 15.3516 27.1425 16.1719 26.4375C16.5234 26.085 16.875 25.85 17.2266 25.4975Z" fill="#34A753"/>
<path d="M30.5859 31.725C29.6484 31.02 28.7109 30.315 27.7734 29.61C27.5391 29.375 27.3047 29.2575 27.0703 29.0225C27.3047 28.905 27.4219 28.7875 27.6563 28.67C28.2422 28.2 28.7109 27.495 29.0625 26.79C29.1797 26.4375 29.2969 26.085 29.4141 25.7325C29.4141 25.7325 29.4141 25.7325 29.2969 25.7325C27.3047 25.7325 25.4297 25.7325 23.4375 25.7325C23.4375 24.3225 23.4375 22.9125 23.4375 21.62C26.3672 21.62 29.4141 21.62 32.3438 21.62C32.8125 21.62 33.1641 21.62 33.6328 21.62C33.6328 21.855 33.75 22.09 33.75 22.2075C33.75 22.4425 33.8672 22.6775 33.8672 22.9125C33.8672 23.265 33.8672 23.6175 33.8672 23.97C33.8672 24.0875 33.8672 24.3225 33.8672 24.44C33.8672 24.675 33.8672 25.0275 33.75 25.2625C33.75 25.7325 33.6328 26.085 33.5156 26.555C33.1641 27.965 32.6953 29.2575 31.875 30.315C31.5234 30.785 31.0547 31.255 30.5859 31.725Z" fill="#4285F3"/>
<path d="M17.2266 25.4975C16.875 25.7325 16.5234 25.9675 16.1719 26.32C15.3516 27.025 14.4141 27.6125 13.5938 28.3175C13.4766 28.2 13.4766 28.0825 13.4766 27.965C13.125 27.1425 12.8906 26.32 12.6563 25.38C12.6563 25.0275 12.5391 24.7925 12.5391 24.44C12.5391 23.97 12.5391 23.5 12.5391 23.03C12.5391 22.9125 12.5391 22.795 12.5391 22.56C12.5391 22.4425 12.5391 22.325 12.5391 22.2075C12.5391 21.7375 12.6562 21.2675 12.7734 20.7975C13.0078 19.975 13.2422 19.27 13.5938 18.4475C13.5938 18.4475 13.5938 18.4475 13.5938 18.33C13.9453 18.565 14.2969 18.9175 14.7656 19.1525C15.3516 19.6225 15.9375 20.0925 16.6406 20.5625C16.875 20.7975 17.1094 20.915 17.3438 21.15C17.3438 21.385 17.2266 21.5025 17.2266 21.7375C17.1094 22.09 17.1094 22.4425 17.1094 22.795C17.1094 23.1475 17.1094 23.3825 17.1094 23.735C17.1094 24.205 17.2266 24.675 17.3438 25.145C17.2266 25.38 17.2266 25.4975 17.2266 25.4975Z" fill="#FABB05"/>
</g>
<defs>
<clipPath id="clip0_354_3139">
<rect width="150" height="47" fill="white"/>
</clipPath>
</defs>
</svg>
