<svg width="33" height="44" viewBox="0 0 33 44" fill="none" xmlns="http://www.w3.org/2000/svg">
<g clip-path="url(#clip0_294_2212)">
<path d="M32.9992 43.5642C32.7828 43.8957 32.4755 43.9999 32.0784 43.9999C24.186 43.9924 16.2937 43.9901 8.40131 43.993C8.27122 43.9993 8.14083 43.9903 8.01289 43.9663C7.69256 43.8905 7.50577 43.6736 7.50402 43.3524C7.49584 43.2067 7.54256 43.0631 7.63521 42.9494C7.72786 42.8356 7.85989 42.7596 8.00592 42.736C8.17735 42.7069 8.35155 42.6968 8.52526 42.7059H31.6629V8.1891H27.0062C27.7918 8.6609 27.7708 9.38926 27.7708 10.14C28.0187 10.14 28.2326 10.14 28.4464 10.14C29.0574 10.1486 29.2878 10.3595 29.2922 10.9691C29.3001 12.2002 29.2922 13.4314 29.2922 14.6634C29.2922 15.3521 29.2922 16.0409 29.2922 16.7296C29.2922 17.2978 29.0426 17.6164 28.6288 17.6043C28.2151 17.5923 27.9908 17.2866 27.989 16.7434C27.9847 15.1395 27.989 13.5355 27.989 11.9316C27.989 11.7706 27.9742 11.6096 27.9672 11.4486L27.8223 11.4374C27.7943 11.5839 27.7756 11.732 27.7665 11.8808C27.763 15.3464 27.763 18.8117 27.7665 22.2766C27.7665 23.0067 27.7665 23.7402 27.7665 24.4677C27.7704 24.6386 27.7474 24.8091 27.6984 24.9731C27.5997 25.2684 27.3641 25.395 27.0551 25.3726C26.9152 25.371 26.7807 25.3196 26.6762 25.2278C26.5718 25.136 26.5045 25.0101 26.4868 24.8732C26.4629 24.7021 26.4553 24.5292 26.4642 24.3567C26.4642 20.2328 26.4642 16.1089 26.4642 11.985V11.4564H22.5791V28.0432H26.4406C26.4502 27.871 26.4554 27.6877 26.4711 27.5094C26.5034 27.1461 26.7016 26.9205 27.0734 26.8973C27.4453 26.8741 27.6713 27.085 27.7429 27.4388C27.7668 27.5943 27.7759 27.7517 27.77 27.9089C27.77 30.5003 27.77 33.092 27.77 35.684C27.77 36.7645 27.5683 37.0702 26.548 37.5032C26.548 37.944 26.5637 38.4012 26.548 38.8575C26.5087 39.8122 25.964 40.5423 25.1173 40.8075C24.3021 41.0658 23.3935 40.8161 22.9064 40.1187C22.6847 39.7887 22.5418 39.4134 22.4883 39.021C22.4176 38.5294 22.4708 38.0215 22.4708 37.5041C22.3364 37.4516 22.216 37.4119 22.1016 37.3586C21.5884 37.1201 21.2838 36.7335 21.2488 36.1627C21.2419 36.0482 21.2428 35.9337 21.2428 35.8184C21.2428 27.112 21.241 18.4056 21.2375 9.69919C21.2375 9.10515 21.3562 8.5903 21.9646 8.19599H1.31112V8.62646C1.31112 9.4013 1.32159 10.1762 1.30326 10.9458C1.29366 11.3496 1.00737 11.6062 0.641644 11.5967C0.292502 11.5889 0.0472305 11.3384 0.00969781 10.957C9.64091e-05 10.8572 0.00969781 10.7564 0.00969781 10.6566C0.00969781 7.42029 0.00969269 4.18402 0.00445557 0.947748C0.00445557 0.547411 0.0760296 0.212501 0.440883 -0.00445557H32.9984L32.9992 43.5642ZM22.1915 6.8581C22.7248 5.17926 23.3568 4.53959 24.5369 4.62912C25.0065 4.68019 25.4576 4.83881 25.854 5.09231C26.4825 5.48059 26.6911 6.14954 26.7531 6.84087H31.6716V1.31192H1.33643V6.8581H22.1915ZM22.5608 33.0685H26.4197V29.3897H22.5608V33.0685ZM26.4528 34.4116H22.5669V36.1782C23.8089 36.1782 25.0222 36.1782 26.2329 36.1696C26.2816 36.1567 26.3262 36.1318 26.3624 36.0971C26.3986 36.0625 26.4252 36.0193 26.4397 35.9716C26.4607 35.4602 26.4528 34.9488 26.4528 34.4142V34.4116ZM23.5829 7.98075H25.4272C25.4272 7.60797 25.4272 7.2679 25.4272 6.92696C25.4282 6.85583 25.4236 6.78473 25.4133 6.71431C25.333 6.22702 24.9707 5.90331 24.5029 5.89901C24.0219 5.89901 23.6396 6.2012 23.5942 6.69538C23.5523 7.1224 23.5829 7.5434 23.5829 7.98334V7.98075ZM22.559 10.1133H26.4074C26.5349 9.30488 26.5323 9.30229 25.7816 9.30229H22.559V10.1133ZM23.7688 37.4851C23.7688 37.9845 23.7522 38.4537 23.7732 38.9203C23.7915 39.3241 24.083 39.6039 24.4636 39.6091C24.8651 39.6091 25.1566 39.4119 25.1933 39.021C25.2396 38.5183 25.2046 38.0086 25.2046 37.4868L23.7688 37.4851Z" fill="#2C2C2C"/>
<path d="M1.31102 42.7051H5.00233C5.67704 42.7051 5.99127 42.904 6.00261 43.3353C6.01309 43.7804 5.68577 43.994 4.98661 43.994C3.62437 43.994 2.26127 43.994 0.897288 43.994C0.225191 43.994 0.00261283 43.7796 0.00261283 43.1261C0.00261283 33.3636 0.00261283 23.6012 0.00261283 13.8387C-0.00180801 13.7386 0.00345757 13.6382 0.0183289 13.5391C0.0855387 13.1999 0.308989 12.9984 0.650275 12.995C0.991561 12.9915 1.22373 13.1896 1.28745 13.5296C1.30933 13.7009 1.31576 13.8738 1.30666 14.0462C1.30666 23.3937 1.30666 32.7409 1.30666 42.0878L1.31102 42.7051Z" fill="#2C2C2C"/>
<path d="M11.6273 36.6966H4.53274C4.38716 36.7031 4.24129 36.6991 4.09631 36.6846C3.74717 36.6329 3.54728 36.4168 3.53593 36.0759C3.52266 35.9307 3.56491 35.7859 3.6544 35.6699C3.74388 35.554 3.87412 35.4752 4.0195 35.4491C4.17525 35.4169 4.33443 35.4036 4.49346 35.4095C9.26507 35.4095 14.0367 35.4095 18.8083 35.4095C18.9815 35.4033 19.1547 35.4222 19.3224 35.4655C19.641 35.561 19.8382 35.8176 19.7405 36.1172C19.6689 36.3359 19.4306 36.5201 19.2281 36.6699C19.1321 36.7397 18.9471 36.6958 18.8022 36.6958L11.6273 36.6966Z" fill="#2C2C2C"/>
<path d="M10.9674 22.0262H4.57375C4.42886 22.0262 4.28396 22.0262 4.13732 22.0133C3.75938 21.9823 3.54815 21.7636 3.53767 21.4029C3.5272 21.0422 3.73406 20.8158 4.1059 20.7624C4.23488 20.7449 4.365 20.7368 4.49519 20.7383C8.81465 20.7383 13.135 20.7383 17.4562 20.7383C17.6297 20.7342 17.8029 20.7533 17.9712 20.7951C18.2758 20.8812 18.4155 21.1111 18.4033 21.4124C18.391 21.7137 18.2287 21.9289 17.9214 21.9927C17.7499 22.0206 17.5759 22.0312 17.4021 22.0245C15.2584 22.0268 13.1135 22.0274 10.9674 22.0262Z" fill="#2C2C2C"/>
<path d="M10.9779 18.1159H17.4161C17.5617 18.1109 17.7075 18.1155 17.8525 18.1296C18.1833 18.1727 18.3762 18.3699 18.4041 18.6944C18.4329 19.0388 18.2697 19.2756 17.9241 19.3582C17.7687 19.3914 17.6099 19.4061 17.451 19.4021C13.1304 19.4021 8.80972 19.4021 4.48909 19.4021C4.30317 19.4021 4.06576 19.421 3.94443 19.3212C3.76986 19.1748 3.54815 18.9174 3.5691 18.7306C3.59267 18.5196 3.8362 18.3044 4.03259 18.1512C4.13471 18.072 4.34071 18.1167 4.49956 18.1167C6.65842 18.115 8.81786 18.1147 10.9779 18.1159Z" fill="#2C2C2C"/>
<path d="M10.956 24.5032H4.51788C4.35866 24.5109 4.19906 24.5034 4.0413 24.4808C3.90278 24.4607 3.77612 24.3923 3.68423 24.2881C3.59235 24.1839 3.54129 24.0507 3.54029 23.9126C3.51934 23.6121 3.65201 23.3771 3.95227 23.2832C4.11901 23.236 4.29206 23.2139 4.46551 23.2178C8.80126 23.2143 13.1364 23.2143 17.471 23.2178C17.6299 23.2139 17.7886 23.2301 17.9432 23.266C18.2688 23.3521 18.4224 23.5828 18.405 23.904C18.4065 24.0495 18.3523 24.1903 18.2534 24.2983C18.1544 24.4063 18.0178 24.4736 17.8708 24.4868C17.7123 24.5046 17.5527 24.5104 17.3933 24.504L10.956 24.5032Z" fill="#2C2C2C"/>
<path d="M12.1807 16.8382C10.4245 16.8382 8.66889 16.8382 6.91387 16.8382C6.74066 16.846 6.56732 16.8259 6.40063 16.7788C6.10735 16.6798 5.91533 16.4344 6.00872 16.1503C6.08204 15.929 6.30462 15.7362 6.50101 15.5821C6.5883 15.5098 6.7812 15.5528 6.92609 15.5528C10.4379 15.5528 13.9491 15.5528 17.4597 15.5528C17.6055 15.5443 17.7518 15.5513 17.8961 15.5735C18.2173 15.6432 18.4504 15.8679 18.3936 16.1761C18.3526 16.4017 18.1466 16.6273 17.9572 16.7848C17.849 16.8709 17.6238 16.8399 17.4518 16.8399C15.6956 16.8434 13.9401 16.8434 12.185 16.8399L12.1807 16.8382Z" fill="#2C2C2C"/>
<path d="M9.1475 38.1077C10.6843 38.1077 12.2211 38.1077 13.7579 38.1077C13.9456 38.1077 14.1786 38.0733 14.3087 38.1663C14.4981 38.3014 14.7338 38.5416 14.7268 38.7293C14.7189 38.9411 14.4972 39.1856 14.3052 39.332C14.1821 39.4275 13.9421 39.3905 13.7553 39.3905C10.6817 39.3905 7.60808 39.3905 4.53447 39.3905C3.8484 39.3905 3.54727 39.2003 3.53331 38.7663C3.51934 38.3144 3.83793 38.1017 4.53709 38.1008L9.1475 38.1077Z" fill="#2C2C2C"/>
<path d="M8.0512 26.9844C6.8196 26.9844 5.58799 26.9844 4.35552 26.9844C3.83181 26.9844 3.5429 26.7562 3.53243 26.3611C3.52021 25.9495 3.82483 25.699 4.366 25.6981C6.81523 25.6947 9.26445 25.6947 11.7137 25.6981C12.2287 25.6981 12.5272 25.9358 12.5385 26.3275C12.5499 26.7347 12.2409 26.9826 11.7041 26.9844C10.4821 26.9844 9.26883 26.9844 8.0512 26.9844Z" fill="#2C2C2C"/>
<path d="M6.58218 14.2683C5.8289 14.2683 5.07476 14.2683 4.32148 14.2683C3.81348 14.2683 3.51933 14.01 3.53068 13.6114C3.54116 13.2309 3.8292 12.9855 4.31625 12.9829C5.85247 12.9772 7.38869 12.9772 8.92492 12.9829C9.4303 12.9829 9.7262 13.2412 9.71048 13.645C9.70001 14.029 9.41459 14.264 8.93016 14.2683C8.14459 14.2683 7.36513 14.2683 6.58218 14.2683Z" fill="#2C2C2C"/>
<path d="M4.65756 5.962C4.27109 5.95991 3.89397 5.84459 3.57408 5.63069C3.25418 5.41679 3.00594 5.11395 2.86088 4.76063C2.71581 4.40731 2.68046 4.01943 2.75931 3.64625C2.83817 3.27308 3.02767 2.93143 3.30376 2.66469C3.57985 2.39794 3.93008 2.21814 4.30997 2.1481C4.68986 2.07806 5.08229 2.12094 5.43743 2.27131C5.79256 2.42167 6.09438 2.67274 6.30458 2.99263C6.51478 3.31251 6.62386 3.68679 6.61798 4.06794C6.6077 4.57396 6.39659 5.0558 6.03002 5.40996C5.66346 5.76412 5.17068 5.96233 4.65756 5.962ZM5.3087 4.01886C5.30695 3.89177 5.2667 3.76811 5.19312 3.66376C5.11954 3.55942 5.016 3.47916 4.89581 3.43332C4.77563 3.38748 4.64429 3.37815 4.51868 3.40652C4.39307 3.43489 4.27893 3.49967 4.19095 3.59253C4.10296 3.68539 4.04514 3.80209 4.02493 3.92761C4.00472 4.05314 4.02303 4.18176 4.07752 4.29694C4.13201 4.41212 4.22019 4.50859 4.33071 4.57395C4.44122 4.63931 4.56903 4.67056 4.69771 4.6637C4.86297 4.65342 5.01808 4.58151 5.13155 4.46255C5.24503 4.34359 5.30837 4.1865 5.3087 4.02317V4.01886Z" fill="#2C2C2C"/>
<path d="M9.9008 2.11533C10.2871 2.11932 10.6635 2.23642 10.9823 2.45177C11.301 2.66712 11.5477 2.97101 11.6911 3.32488C11.8345 3.67875 11.868 4.06665 11.7875 4.43936C11.707 4.81207 11.5161 5.15279 11.2389 5.41829C10.9618 5.68379 10.6109 5.8621 10.2308 5.93059C9.85076 5.99908 9.45864 5.95466 9.10421 5.80298C8.74979 5.6513 8.44903 5.39918 8.24011 5.07862C8.03119 4.75807 7.92352 4.38352 7.93076 4.00251C7.94266 3.49598 8.15581 3.01434 8.5243 2.66134C8.89279 2.30835 9.38713 2.11226 9.9008 2.11533ZM9.89031 3.40674C9.76443 3.40777 9.64169 3.44561 9.53761 3.51546C9.43354 3.58531 9.35281 3.68403 9.30563 3.79915C9.25846 3.91427 9.24696 4.04061 9.2726 4.16217C9.29824 4.28374 9.35986 4.39507 9.44967 4.48208C9.53947 4.56909 9.65343 4.62788 9.77712 4.651C9.9008 4.67412 10.0287 4.66052 10.1445 4.61195C10.2604 4.56337 10.359 4.482 10.428 4.37811C10.4969 4.27423 10.5331 4.15251 10.5319 4.02834C10.5256 3.86384 10.4556 3.70799 10.3362 3.59296C10.2168 3.47793 10.0572 3.4125 9.89031 3.41019V3.40674Z" fill="#2C2C2C"/>
<path d="M15.0934 5.96111C14.7071 5.95678 14.3308 5.83934 14.0122 5.62371C13.6937 5.40807 13.4472 5.10396 13.3042 4.74997C13.1612 4.39597 13.128 4.00805 13.2088 3.63541C13.2897 3.26277 13.4809 2.92222 13.7583 2.65697C14.0357 2.39171 14.3867 2.21373 14.7669 2.14557C15.147 2.07742 15.5391 2.12218 15.8933 2.27418C16.2476 2.42617 16.5482 2.67854 16.7568 2.99928C16.9654 3.32002 17.0728 3.69465 17.0652 4.07565C17.0528 4.58218 16.8392 5.06365 16.4704 5.41632C16.1016 5.769 15.6071 5.96465 15.0934 5.96111ZM15.755 4.03605C15.7566 3.90915 15.7196 3.78468 15.649 3.67862C15.5783 3.57255 15.4772 3.48971 15.3585 3.44072C15.2398 3.39174 15.1089 3.37884 14.9828 3.40368C14.8566 3.42851 14.7408 3.48996 14.6502 3.58013C14.5597 3.6703 14.4985 3.78509 14.4746 3.90978C14.4506 4.03448 14.4649 4.16339 14.5157 4.27999C14.5665 4.39659 14.6515 4.49558 14.7597 4.56424C14.8679 4.63291 14.9944 4.66813 15.1231 4.6654C15.2903 4.66098 15.4494 4.59308 15.5671 4.47584C15.6848 4.35859 15.7522 4.20105 15.755 4.03605Z" fill="#2C2C2C"/>
</g>
<defs>
<clipPath id="clip0_294_2212">
<rect width="33" height="44" fill="white"/>
</clipPath>
</defs>
</svg>
