<svg width="42" height="41" viewBox="0 0 42 41" fill="none" xmlns="http://www.w3.org/2000/svg">
<g clip-path="url(#clip0_294_2240)">
<path d="M24.3721 -2.67234e-05C24.9476 0.237774 25.5799 0.388734 26.0822 0.730421C27.6279 1.77658 28.0874 3.81047 27.225 5.44911C27.1691 5.55462 27.1091 5.6585 27.0112 5.83544H27.4807C29.5361 5.83544 31.5833 5.81758 33.6345 5.84193C35.7105 5.86628 37.3573 7.56335 37.3343 9.61023C37.3137 11.58 35.6899 13.2243 33.6979 13.2811C32.9661 13.3022 32.2344 13.2811 31.478 13.2811C31.6285 13.7356 31.8677 13.9604 32.3092 14.1155C37.6664 15.9927 40.9731 19.6782 41.8381 25.2394C42.385 28.7236 41.5429 32.2816 39.4886 35.1658C37.4342 38.0501 34.3276 40.0362 30.8211 40.707C25.9885 41.6395 21.7642 40.3174 18.2141 36.9436C18.1095 36.8329 17.9818 36.7458 17.8399 36.6884C17.698 36.631 17.5452 36.6045 17.392 36.6108C14.3286 36.6222 11.2652 36.6295 8.2027 36.6108C7.688 36.6122 7.1785 36.5092 6.70575 36.3083C6.233 36.1074 5.80706 35.8128 5.4543 35.4428C5.10154 35.0728 4.82948 34.6353 4.65495 34.1573C4.48043 33.6793 4.40715 33.171 4.43968 32.664C4.49969 31.587 4.99134 30.7047 5.84721 29.9775C4.95764 29.1992 4.43804 28.2512 4.43392 27.0777C4.42981 25.9041 4.92721 24.9399 5.84639 24.1421C4.95763 23.3694 4.43968 22.4206 4.43392 21.2479C4.42817 20.0751 4.92229 19.1093 5.91381 18.2449C5.78227 18.1638 5.64825 18.1167 5.55453 18.0258C4.46763 16.9707 4.10999 15.3694 4.70852 13.9945C5.34405 12.5336 6.49672 11.7472 8.10897 11.666C8.81767 11.6303 9.52967 11.6603 10.3132 11.6603C9.49103 10.2587 9.45567 8.87978 10.3132 7.46515C10.1315 7.45703 9.99008 7.44567 9.84866 7.44567C7.89357 7.44567 5.9382 7.44567 3.98256 7.44567C1.94278 7.44567 0.542643 6.35 0.0641463 4.38996C0.0449499 4.32706 0.0221708 4.26528 -0.00408936 4.20492V3.23099C0.168564 2.5395 0.402059 1.87885 0.881378 1.32208C1.51608 0.58352 2.34235 0.193948 3.27796 -0.00976562L24.3721 -2.67234e-05ZM28.0825 39.3743C34.8678 39.3638 40.3911 33.8903 40.3738 27.1945C40.3565 20.4988 34.8382 15.0691 28.0669 15.0691C21.2808 15.0691 15.7518 20.528 15.7559 27.2286C15.76 33.9293 21.2981 39.3849 28.0825 39.3743ZM13.8271 5.833C17.1503 5.833 20.4729 5.833 23.795 5.833C24.8309 5.833 25.6588 5.23485 25.9268 4.31611C26.3272 2.94205 25.3036 1.62562 23.8147 1.62319C19.836 1.61778 15.857 1.61778 11.8778 1.62319C9.19862 1.62319 6.51865 1.62319 3.83786 1.62319C2.82743 1.62319 2.00445 2.21729 1.73231 3.11899C1.32123 4.48979 2.3366 5.82732 3.81813 5.83138C7.15445 5.83949 10.4908 5.833 13.8271 5.833ZM23.5286 11.6668C26.8512 11.6668 30.1738 11.6668 33.4964 11.6668C34.788 11.6668 35.7516 10.6864 35.6965 9.45683C35.6456 8.30759 34.6943 7.45784 33.4463 7.45703C28.4689 7.45703 23.4916 7.45703 18.5142 7.45703C16.8329 7.45703 15.1508 7.45135 13.4695 7.45703C13.0071 7.45359 12.5563 7.59913 12.1853 7.87157C11.8144 8.14402 11.5436 8.52848 11.4141 8.96662C11.0104 10.3399 12.0299 11.6612 13.518 11.6652C16.8526 11.6717 20.189 11.6668 23.5253 11.6668H23.5286ZM28.9351 13.5124L28.9408 13.355C28.6498 13.3323 28.3588 13.2901 28.0677 13.2901C22.8059 13.2857 17.5411 13.2857 12.2732 13.2901C10.9199 13.2901 9.56584 13.2836 8.21174 13.2901C7.74989 13.2882 7.30001 13.435 6.93019 13.7081C6.56037 13.9812 6.29074 14.3658 6.16211 14.8037C5.76171 16.1786 6.78365 17.4942 8.27341 17.4974C11.4321 17.5047 14.5909 17.4974 17.7496 17.5056C17.8895 17.5116 18.0292 17.4889 18.1597 17.4387C18.2902 17.3885 18.4087 17.3121 18.5076 17.2142C20.8533 15.0512 23.6207 13.7892 26.8271 13.5214C27.5218 13.4629 28.2289 13.5124 28.9318 13.5124H28.9351ZM16.7285 19.1206H16.3174C13.5854 19.1206 10.8533 19.1101 8.12213 19.128C7.07305 19.1353 6.19828 19.9688 6.08236 20.9947C6.02657 21.5028 6.16009 22.0137 6.45801 22.4317C6.75593 22.8498 7.19784 23.1465 7.70118 23.2663C7.80555 23.2987 7.91348 23.3186 8.02265 23.3256C10.2343 23.3256 12.4459 23.3256 14.6336 23.3256C14.9386 22.5951 15.1993 21.872 15.538 21.1862C15.8767 20.5004 16.31 19.8349 16.7252 19.1206H16.7285ZM14.4503 30.7867C12.4771 30.7867 10.4036 30.7867 8.32685 30.7867C7.04674 30.7867 6.08729 31.6795 6.07742 32.8685C6.06673 34.0786 7.02619 34.9957 8.32027 34.9981C10.9315 35.0014 13.5424 35.0014 16.153 34.9981C16.2355 34.9965 16.3178 34.9903 16.3996 34.9795C15.7583 33.6046 15.122 32.2395 14.447 30.7867H14.4503ZM14.2036 24.9537H13.8633C12.0326 24.9537 10.2016 24.9537 8.37042 24.9537C7.04017 24.9537 6.07414 25.8521 6.08154 27.0744C6.08893 28.2772 7.05168 29.1635 8.3622 29.1651C10.1929 29.1651 12.0235 29.1651 13.8542 29.1651H14.1962L14.2036 24.9537Z" fill="#2C2C2C"/>
<path d="M28.9055 32.5999C28.8446 33.4025 28.5766 33.7523 28.0587 33.7507C27.5407 33.7491 27.2875 33.4098 27.2168 32.5999C26.5393 32.4083 25.9169 32.0934 25.4286 31.5553C24.9388 31.0375 24.6527 30.3639 24.622 29.6561C24.5982 29.1116 24.927 28.7309 25.4113 28.7155C25.8766 28.7009 26.2063 29.0328 26.2581 29.5685C26.3354 30.3639 26.952 30.9531 27.8005 31.0399C28.7476 31.1381 29.5575 30.682 29.8 29.9151C30.0623 29.084 29.4596 28.2107 28.4845 28.0313C28.0735 27.9558 27.6385 27.9607 27.2275 27.869C25.7698 27.5525 24.6944 26.3578 24.6212 25.0097C24.5439 23.5869 25.4269 22.3314 26.8854 21.8566C27.1831 21.7592 27.2497 21.6261 27.2497 21.3469C27.2436 21.2382 27.26 21.1293 27.298 21.0271C27.336 20.9248 27.3947 20.8313 27.4705 20.7522C27.5463 20.6731 27.6377 20.61 27.739 20.567C27.8404 20.5239 27.9496 20.5017 28.0599 20.5017C28.1702 20.5017 28.2794 20.5239 28.3807 20.567C28.4821 20.61 28.5734 20.6731 28.6493 20.7522C28.7251 20.8313 28.7838 20.9248 28.8218 21.0271C28.8598 21.1293 28.8762 21.2382 28.8701 21.3469C28.8603 21.6716 29.0074 21.7665 29.2812 21.8655C30.5712 22.3387 31.3498 23.2363 31.501 24.608C31.5611 25.1501 31.2766 25.5356 30.8228 25.6005C30.3336 25.6695 29.9126 25.3684 29.8806 24.8701C29.8329 24.1397 29.4588 23.6527 28.7854 23.4043C28.0652 23.1341 27.3804 23.2315 26.7892 23.729C26.3247 24.1194 26.1315 24.6258 26.3338 25.2175C26.5697 25.9065 27.1107 26.2287 27.8137 26.3286C28.2584 26.3927 28.718 26.3992 29.1464 26.5209C30.544 26.9202 31.5002 28.1441 31.5134 29.4898C31.5265 30.8354 30.6197 32.0163 29.2352 32.4854C29.1266 32.5284 29.0239 32.5617 28.9055 32.5999Z" fill="#2C2C2C"/>
<path d="M38.7377 26.9356C38.7187 28.9314 38.3266 30.5684 37.5151 32.1015C37.3063 32.496 36.9684 32.6526 36.5672 32.5642C36.2227 32.4887 35.9308 32.1583 35.9555 31.802C35.9804 31.5896 36.0448 31.3835 36.1454 31.1942C37.3342 28.7309 37.4255 26.232 36.3468 23.7201C35.5181 21.7917 34.1467 20.3308 32.2698 19.3374C32.1875 19.2927 32.1004 19.2497 32.0173 19.2026C31.5438 18.9364 31.3835 18.5055 31.5997 18.0867C31.8159 17.6679 32.2961 17.4991 32.7556 17.7677C33.5046 18.206 34.2791 18.6313 34.9385 19.184C37.4354 21.2779 38.6587 23.9822 38.7377 26.9356Z" fill="#2C2C2C"/>
<path d="M17.3903 27.4932C17.415 25.4934 17.8014 23.8693 18.612 22.3492C18.8233 21.9515 19.1604 21.7811 19.5542 21.8809C19.9259 21.9726 20.1602 22.2234 20.1692 22.5951C20.1742 22.811 20.087 23.0423 19.9859 23.2444C18.7954 25.7068 18.7033 28.2041 19.7803 30.7185C20.6025 32.6347 21.9632 34.0859 23.8171 35.0817C23.9495 35.1523 24.0868 35.214 24.2118 35.2951C24.613 35.5541 24.7338 35.9972 24.5168 36.3851C24.3104 36.752 23.8541 36.9322 23.457 36.7049C22.6924 36.2675 21.8999 35.8438 21.2282 35.2862C18.6992 33.1858 17.4602 30.4612 17.3903 27.4932Z" fill="#2C2C2C"/>
<path d="M29.3092 16.6923C29.471 16.6941 29.6287 16.743 29.7626 16.8329C29.8964 16.9228 30.0004 17.0496 30.0614 17.1976C30.1225 17.3456 30.138 17.5081 30.1059 17.6647C30.0738 17.8213 29.9957 17.9651 29.8811 18.0781C29.7666 18.191 29.6209 18.268 29.4622 18.2996C29.3035 18.3311 29.1389 18.3156 28.9891 18.2552C28.8392 18.1947 28.7108 18.092 28.6199 17.9598C28.529 17.8276 28.4796 17.6718 28.478 17.512C28.4779 17.4043 28.4993 17.2976 28.541 17.198C28.5828 17.0985 28.644 17.008 28.7212 16.9319C28.7984 16.8557 28.8901 16.7954 28.991 16.7543C29.0919 16.7132 29.2 16.6921 29.3092 16.6923Z" fill="#2C2C2C"/>
<path d="M27.6509 36.9566C27.6533 37.1223 27.6055 37.2851 27.5137 37.4239C27.4219 37.5627 27.2902 37.6713 27.1355 37.7358C26.9807 37.8003 26.81 37.8177 26.6452 37.7858C26.4804 37.7539 26.329 37.6742 26.2104 37.5569C26.0917 37.4395 26.0113 37.2899 25.9793 37.1271C25.9473 36.9644 25.9653 36.7959 26.0309 36.6433C26.0965 36.4907 26.2068 36.3609 26.3476 36.2705C26.4884 36.1801 26.6534 36.1333 26.8213 36.136C26.9304 36.1361 27.0383 36.1575 27.139 36.1987C27.2397 36.24 27.3312 36.3005 27.4082 36.3767C27.4853 36.4529 27.5463 36.5433 27.588 36.6428C27.6296 36.7423 27.651 36.8489 27.6509 36.9566Z" fill="#2C2C2C"/>
</g>
<defs>
<clipPath id="clip0_294_2240">
<rect width="42" height="41" fill="white"/>
</clipPath>
</defs>
</svg>
