<svg width="40" height="40" viewBox="0 0 40 40" fill="none" xmlns="http://www.w3.org/2000/svg">
<g clip-path="url(#clip0_294_2230)">
<path d="M32.9685 40.0008C32.2397 39.7426 32.1606 39.63 32.1599 38.8366C32.1599 29.3343 32.1599 19.8326 32.1599 10.3314C32.1599 9.45196 32.39 9.22272 33.269 9.22272H38.8149C39.6118 9.22272 39.7354 9.30096 39.9984 10.0051V39.1417C39.9053 39.6213 39.6266 39.9155 39.1374 40.0024L32.9685 40.0008ZM38.3797 38.3836V10.8078H33.7512V38.3836H38.3797Z" fill="#2C2C2C"/>
<path d="M22.2649 40.0008C21.533 39.7496 21.4321 39.6096 21.4321 38.8123V15.1915C21.4321 14.2941 21.6669 14.0617 22.5671 14.0617C24.4541 14.0617 26.3416 14.0617 28.2296 14.0617C28.9748 14.0617 29.2347 14.3238 29.2354 15.0788C29.2354 17.5386 29.2394 19.9984 29.23 22.4574C29.23 22.6695 29.2096 22.9495 29.0804 23.0763C28.8818 23.264 28.6273 23.3819 28.3556 23.4119C28.0582 23.4338 27.821 23.2116 27.738 22.9065C27.6923 22.7173 27.6715 22.5229 27.6762 22.3283C27.6715 20.2722 27.6715 18.2159 27.6762 16.1593V15.6593H23.0187V38.3679H27.6762V37.8985C27.6762 35.1007 27.6762 32.3027 27.6762 29.5043C27.6762 28.772 27.9588 28.3832 28.4785 28.3949C28.9857 28.4067 29.2378 28.772 29.2378 29.4981C29.2378 32.6088 29.2378 35.7193 29.2378 38.8295C29.2378 39.626 29.1595 39.741 28.4386 40.0031L22.2649 40.0008Z" fill="#2C2C2C"/>
<path d="M11.3273 40.0008C10.8491 39.8075 10.7066 39.4336 10.7074 38.9438C10.7137 33.5193 10.7152 28.0927 10.7121 22.664C10.7121 21.8566 10.9861 21.5804 11.7861 21.5797C13.6741 21.5797 15.5616 21.5797 17.4486 21.5797C18.2611 21.5797 18.5186 21.841 18.5186 22.6593C18.5186 28.0838 18.5212 33.5104 18.5264 38.9391C18.5264 39.4179 18.3855 39.7676 17.9683 40.0008H11.3273ZM16.9382 23.164H12.3019V38.4204H16.9382V23.164Z" fill="#2C2C2C"/>
<path d="M0.781176 40.0008C0.0915619 39.7371 -0.00158691 39.5971 -0.00158691 38.8115C-0.00158691 34.9763 -0.00158691 31.1406 -0.00158691 27.3043C-0.00158691 26.4828 0.24578 26.2348 1.06925 26.234H6.72704C7.5646 26.234 7.80648 26.4828 7.80648 27.3379C7.80648 31.1737 7.80648 35.0094 7.80648 38.8452C7.80648 39.5798 7.70003 39.7379 7.0292 40.0008H0.781176ZM6.22295 38.3789V27.8285H1.57569V38.3789H6.22295Z" fill="#2C2C2C"/>
<path d="M34.3711 2.60689C33.9445 2.833 33.5586 3.04268 33.1688 3.24531C26.1256 6.91696 18.8084 10.0376 11.2828 12.5791C9.01823 13.3435 6.72629 14.025 4.4461 14.7408C4.2864 14.7956 4.12093 14.8318 3.95296 14.8488C3.77635 14.8625 3.60045 14.8145 3.45542 14.7128C3.31039 14.6111 3.20528 14.4622 3.15808 14.2915C3.11088 14.1209 3.12455 13.9391 3.19674 13.7774C3.26893 13.6157 3.39516 13.4842 3.55376 13.4053C3.65845 13.3535 3.76805 13.3124 3.88095 13.2825C11.6101 11.0455 19.1546 8.21475 26.4472 4.81555C28.639 3.79846 30.7806 2.67339 32.9442 1.59684C33.0358 1.55146 33.1211 1.49435 33.2354 1.42706C33.1892 1.35274 33.1508 1.29093 33.114 1.22834C32.7923 0.680671 33.0765 0.0594611 33.7074 0.0281659C34.5254 -0.0125179 35.3472 -0.00390986 36.166 0.0226911C36.6239 0.0383387 36.9731 0.554708 36.8024 0.984235C36.4963 1.75566 36.148 2.51144 35.7848 3.26018C35.6283 3.59191 35.3097 3.69049 34.9543 3.60599C34.5989 3.52149 34.4017 3.286 34.3672 2.92063C34.3641 2.833 34.3711 2.74381 34.3711 2.60689Z" fill="#2C2C2C"/>
<path d="M28.4668 26.874C28.261 26.8755 28.0631 26.7952 27.9166 26.6508C27.7701 26.5064 27.687 26.3098 27.6856 26.1041C27.6841 25.8985 27.7645 25.7007 27.9089 25.5543C28.0534 25.4079 28.2501 25.3248 28.4558 25.3233C28.6615 25.3219 28.8594 25.4022 29.0059 25.5465C29.1524 25.6909 29.2355 25.8876 29.237 26.0932C29.2384 26.2988 29.1581 26.4966 29.0137 26.643C28.8692 26.7895 28.6725 26.8726 28.4668 26.874Z" fill="#2C2C2C"/>
</g>
<defs>
<clipPath id="clip0_294_2230">
<rect width="40" height="40" fill="white"/>
</clipPath>
</defs>
</svg>
