<svg width="46" height="40" viewBox="0 0 46 40" fill="none" xmlns="http://www.w3.org/2000/svg">
<g clip-path="url(#clip0_294_2251)">
<path d="M35.1292 40H10.8717C10.8663 39.9856 10.8654 39.9651 10.8555 39.9588C10.5278 39.7441 10.3279 39.465 10.4684 39.0643C10.616 38.6385 10.9689 38.5714 11.374 38.5723C14.8325 38.5777 18.2914 38.5777 21.7505 38.5723H22.2564V34.2894H21.7019C15.2931 34.2894 8.88433 34.2894 2.47554 34.2894C2.22178 34.2968 1.96791 34.2794 1.71757 34.2375C0.799374 34.0586 0.307867 33.4163 0 32.5961V1.71116C0.450098 0.437369 1.3656 -0.00273239 2.70059 -4.88481e-05C16.3109 0.0249976 29.921 0.0300704 43.5308 0.0151618C45.1556 0.0151618 46.0009 0.847953 46.0009 2.45092C46.0009 12.253 46.0009 22.0551 46.0009 31.8572C46.0009 33.4414 45.1547 34.2876 43.5704 34.2876H23.7436V38.5723H24.2972C27.7413 38.5723 31.1852 38.5723 34.6287 38.5723C35.0338 38.5723 35.3804 38.6403 35.5361 39.0634C35.6919 39.4865 35.411 39.7459 35.1292 40ZM22.9991 32.8582H43.484C44.3689 32.8582 44.5642 32.6658 44.5642 31.7847C44.5642 22.0274 44.5642 12.2694 44.5642 2.51085C44.5642 1.63065 44.3725 1.43744 43.484 1.43744H2.51245C1.62575 1.43744 1.43221 1.62797 1.43221 2.51085V31.7847C1.43221 32.6658 1.62485 32.8582 2.51245 32.8582H22.9991Z" fill="#2C2C2C"/>
<path d="M31.9848 2.87134H42.0913C42.9168 2.87134 43.1247 3.07797 43.1247 3.89734C43.1247 7.61554 43.1247 11.3343 43.1247 15.0537C43.1247 15.8722 42.915 16.0806 42.0913 16.0806H21.8765C21.0528 16.0806 20.844 15.8731 20.844 15.0528V3.89734C20.844 3.07707 21.051 2.87134 21.8774 2.87134H31.9848ZM41.6781 7.1015C41.4936 7.216 41.3676 7.28935 41.246 7.36985C40.3845 7.93429 39.5195 8.49247 38.6661 9.06943C38.5287 9.17076 38.3687 9.23758 38.1998 9.26421C38.0308 9.29085 37.8578 9.2765 37.6957 9.22239C36.7054 8.93436 35.7062 8.68568 34.7169 8.39943C34.4469 8.3225 34.2875 8.36634 34.094 8.56313C33.0263 9.64818 31.9335 10.71 30.8695 11.7941C30.5166 12.1519 30.17 12.219 29.7046 12.0177C28.5686 11.524 27.4208 11.0579 26.2686 10.6026C26.1848 10.5731 26.0957 10.5615 26.0071 10.5686C25.9185 10.5757 25.8325 10.6013 25.7546 10.6438C24.6572 11.4184 23.577 12.2181 22.4968 13.016C22.4067 13.0813 22.296 13.186 22.2915 13.2763C22.2699 13.729 22.2816 14.1834 22.2816 14.6181H41.6781V7.1015ZM41.6556 4.3285H22.3014V11.3594C22.449 11.2574 22.5562 11.1858 22.6615 11.1098C23.5284 10.4747 24.4025 9.84855 25.2586 9.19824C25.6069 8.92988 25.9355 8.88784 26.3388 9.06227C27.4352 9.53457 28.547 9.97378 29.6434 10.447C29.9198 10.5668 30.0935 10.5364 30.3041 10.32C31.3286 9.27785 32.3854 8.26257 33.4053 7.21778C33.7753 6.83672 34.1444 6.7419 34.6503 6.89576C35.6225 7.19005 36.6046 7.45304 37.5912 7.69188C37.8266 7.74262 38.0725 7.70704 38.2835 7.59169C39.1837 7.03441 40.0326 6.38499 40.958 5.87422C41.6016 5.51642 41.797 5.06916 41.6781 4.40006C41.6754 4.38843 41.6709 4.37502 41.6556 4.33119V4.3285Z" fill="#2C2C2C"/>
<path d="M40.9688 30.0047C41.4748 30.0047 41.9087 29.9966 42.3416 30.0047C42.8062 30.0163 43.1104 30.2936 43.1212 30.6961C43.1338 31.1139 42.8179 31.4243 42.3353 31.427C40.8383 31.435 39.3413 31.427 37.8443 31.427H21.99C21.8406 31.427 21.6902 31.435 21.5399 31.427C21.1195 31.3903 20.8333 31.0844 20.8459 30.6961C20.8489 30.515 20.9229 30.3421 21.0522 30.2143C21.1815 30.0866 21.3558 30.0139 21.5381 30.0118C22.0008 29.9913 22.4644 30.0118 22.9622 30.0118C22.9757 29.883 22.9964 29.7712 22.9973 29.654C22.9973 29.0592 22.9694 28.4625 23.0072 27.8704C23.0414 27.3337 22.9325 27.0313 22.3663 26.7692C21.3167 26.2826 20.8171 25.338 20.8603 24.1885C20.9035 23.0391 21.4814 22.1768 22.5427 21.7C23.623 21.2152 24.6672 21.3574 25.5593 22.124C25.8879 22.4067 26.1102 22.3924 26.4469 22.2188C27.2183 21.827 28.0015 21.4567 28.7874 21.098C29.0358 20.9844 29.1367 20.8672 29.1223 20.5702C29.0457 19.0299 30.0225 17.816 31.524 17.545C32.9013 17.2963 34.2399 18.1318 34.7395 19.5353C34.7836 19.6578 34.9195 19.8206 35.0312 19.835C35.8602 19.9414 36.6938 20.0139 37.5319 20.1033C37.9433 19.1694 38.6013 18.5406 39.5933 18.3143C40.2922 18.1482 41.0284 18.2502 41.6548 18.5999C42.2813 18.9496 42.7519 19.5213 42.9727 20.2008C43.2026 20.8775 43.1642 21.6158 42.8653 22.2654C42.5664 22.9149 42.0295 23.4267 41.364 23.6966C41.0481 23.8263 40.9526 23.973 40.9562 24.3075C40.976 26.0474 40.9652 27.7872 40.9652 29.527L40.9688 30.0047ZM39.5285 29.9823C39.5285 27.9902 39.5285 26.0295 39.5186 24.0696C39.5186 23.9667 39.3872 23.8129 39.2819 23.7708C38.3376 23.3987 37.7362 22.7341 37.4563 21.7671C37.4275 21.6669 37.3078 21.5309 37.2159 21.5202C36.3868 21.4182 35.5551 21.3413 34.7179 21.2519C34.3965 22.0811 33.8663 22.6911 33.0525 22.9926C32.7438 23.1062 32.6924 23.2609 32.6924 23.5436C32.7032 25.5366 32.6978 27.5296 32.6978 29.5225V29.9778L39.5285 29.9823ZM31.2629 29.9823V29.5986C31.2629 27.5922 31.253 25.5858 31.2728 23.5794C31.2728 23.2395 31.172 23.0946 30.8605 22.9711C30.545 22.8376 30.2548 22.6512 30.0027 22.4201C29.8127 22.2519 29.6804 22.2296 29.4625 22.3396C28.6068 22.763 27.745 23.1742 26.8772 23.5731C26.6386 23.6822 26.5558 23.8021 26.5792 24.0749C26.6512 24.9015 26.4055 25.6547 25.8059 26.2271C25.4279 26.585 24.9436 26.8408 24.4628 27.1718V29.9823H31.2629ZM23.731 22.8638C23.4466 22.8608 23.1677 22.9418 22.9296 23.0965C22.6916 23.2512 22.5052 23.4727 22.3941 23.7329C22.2829 23.9931 22.252 24.2802 22.3053 24.5578C22.3586 24.8354 22.4937 25.0911 22.6934 25.2923C22.8931 25.4935 23.1485 25.6313 23.4271 25.6881C23.7058 25.7449 23.9951 25.7182 24.2584 25.6113C24.5218 25.5045 24.7472 25.3223 24.9062 25.088C25.0652 24.8536 25.1506 24.5776 25.1515 24.295C25.1511 23.9196 25.0022 23.5593 24.737 23.2919C24.4718 23.0246 24.1115 22.8714 23.7337 22.8656L23.731 22.8638ZM33.4171 20.3511C33.4151 20.0684 33.3286 19.7926 33.1687 19.5589C33.0087 19.3251 32.7824 19.1438 32.5186 19.038C32.2548 18.9322 31.9652 18.9067 31.6868 18.9647C31.4083 19.0227 31.1535 19.1616 30.9546 19.3637C30.7557 19.5659 30.6218 19.8222 30.5697 20.1001C30.5177 20.3781 30.5499 20.6651 30.6623 20.9248C30.7747 21.1845 30.9623 21.4052 31.2011 21.5588C31.4399 21.7124 31.7193 21.7921 32.0038 21.7877C32.3822 21.7813 32.7429 21.6273 33.0078 21.3588C33.2728 21.0903 33.4208 20.7289 33.4198 20.3529L33.4171 20.3511ZM40.237 22.4979C40.5212 22.4999 40.7997 22.4179 41.037 22.2624C41.2742 22.1068 41.4597 21.8848 41.5698 21.6244C41.6799 21.3639 41.7097 21.0769 41.6554 20.7996C41.601 20.5224 41.4651 20.2674 41.2647 20.067C41.0643 19.8667 40.8086 19.73 40.5299 19.6742C40.2513 19.6185 39.9622 19.6463 39.6995 19.7541C39.4367 19.8618 39.2121 20.0447 39.0541 20.2795C38.8961 20.5143 38.8118 20.7905 38.812 21.073C38.8122 21.4502 38.9623 21.8121 39.2297 22.08C39.4971 22.3479 39.86 22.5 40.2397 22.5033L40.237 22.4979Z" fill="#2C2C2C"/>
<path d="M9.72119 2.87136C11.2335 2.87136 12.7449 2.87136 14.2573 2.87136C15.6265 2.87136 16.5285 3.77482 16.5303 5.14342C16.5339 8.02853 16.5339 10.913 16.5303 13.797C16.5303 15.1879 15.6301 16.0771 14.2204 16.0789C11.2119 16.0789 8.20316 16.0789 5.1941 16.0789C3.76639 16.0789 2.877 15.1844 2.8761 13.7612C2.8761 10.9059 2.8761 8.0509 2.8761 5.1962C2.8761 3.74709 3.76459 2.87047 5.23101 2.87047C6.72834 2.86927 8.22506 2.86957 9.72119 2.87136ZM9.70228 4.30258C8.20556 4.30258 6.70823 4.30258 5.21031 4.30258C4.56487 4.30258 4.31461 4.55305 4.31011 5.1971C4.31011 8.05299 4.31011 10.9089 4.31011 13.7648C4.31011 14.4052 4.56307 14.6593 5.21031 14.6593C8.20556 14.6593 11.2002 14.6593 14.1943 14.6593C14.8379 14.6593 15.0945 14.407 15.0945 13.7648C15.0945 10.9095 15.0945 8.05358 15.0945 5.1971C15.0945 4.55752 14.8415 4.30795 14.1943 4.30258C12.6975 4.29841 11.2002 4.29721 9.70228 4.299V4.30258Z" fill="#2C2C2C"/>
<path d="M9.72479 31.4314C7.76296 31.4314 5.80143 31.4314 3.84021 31.4314C3.10655 31.4314 2.877 31.2015 2.8761 30.4707C2.8761 29.4152 2.8761 28.3587 2.8761 27.3032C2.8761 26.6905 3.13355 26.4355 3.75109 26.4346C7.71915 26.4346 11.6869 26.4346 15.6544 26.4346C16.271 26.4346 16.5267 26.6914 16.5294 27.3041C16.5336 28.3901 16.5336 29.476 16.5294 30.5619C16.5294 31.1729 16.2692 31.4296 15.6535 31.4305C13.6742 31.4341 11.698 31.4344 9.72479 31.4314ZM4.33262 29.9716H15.0728V27.8855H4.33262V29.9716Z" fill="#2C2C2C"/>
<path d="M17.9689 17.1523C17.9689 12.7483 17.9689 8.34522 17.9689 3.94302C17.9593 3.7939 17.9629 3.64424 17.9797 3.49576C18.049 3.11112 18.2884 2.87944 18.6854 2.87854C19.0824 2.87765 19.3209 3.11112 19.3939 3.49397C19.41 3.62692 19.4139 3.76106 19.4056 3.89471V30.4019C19.4139 30.5355 19.41 30.6696 19.3939 30.8026C19.3218 31.1863 19.0842 31.4198 18.6872 31.4207C18.2902 31.4216 18.0499 31.189 17.9797 30.8044C17.9629 30.6559 17.9593 30.5062 17.9689 30.3571C17.9689 25.9567 17.9689 21.5551 17.9689 17.1523Z" fill="#2C2C2C"/>
<path d="M9.70416 20.7214H3.9096C3.7751 20.7301 3.64008 20.7262 3.50631 20.7098C3.12013 20.6382 2.88518 20.403 2.88428 20.0076C2.88338 19.6122 3.11743 19.3752 3.50451 19.3054C3.65391 19.2884 3.80453 19.2845 3.95461 19.2938H15.4519C15.602 19.2845 15.7526 19.2884 15.902 19.3054C16.2891 19.3743 16.5231 19.6122 16.5231 20.0067C16.5231 20.4012 16.2891 20.6373 15.9029 20.7098C15.7691 20.7262 15.6341 20.7301 15.4996 20.7214H9.70416Z" fill="#2C2C2C"/>
<path d="M7.46357 24.2914C6.23661 24.2914 5.01054 24.2914 3.78447 24.2914C3.21465 24.2914 2.88428 24.0302 2.88428 23.5865C2.88428 23.1428 3.20745 22.8709 3.76917 22.8655C6.23631 22.8655 8.70374 22.8655 11.1715 22.8655C11.7359 22.8655 12.0555 23.1339 12.0465 23.5919C12.0375 24.0499 11.7215 24.2905 11.1463 24.2914C9.9121 24.2932 8.68604 24.2914 7.46357 24.2914Z" fill="#2C2C2C"/>
<path d="M6.35452 9.29577C6.35452 8.37352 6.34732 7.45128 6.35452 6.52993C6.36262 5.76154 6.88203 5.46099 7.55898 5.84026C9.18834 6.75088 10.8129 7.66925 12.4326 8.59537C13.1258 8.99253 13.1231 9.60438 12.4272 10.0024C10.8069 10.9292 9.18233 11.8475 7.55358 12.7575C6.87393 13.1368 6.36172 12.8363 6.35452 12.0616C6.34822 11.1403 6.35452 10.218 6.35452 9.29577ZM10.7844 9.29577L7.83534 7.63913V10.9578L10.7844 9.29577Z" fill="#2C2C2C"/>
</g>
<defs>
<clipPath id="clip0_294_2251">
<rect width="46" height="40" fill="white"/>
</clipPath>
</defs>
</svg>
