<svg width="19" height="11" viewBox="0 0 19 11" fill="none" xmlns="http://www.w3.org/2000/svg">
<path d="M13.0638 1.82929L15.6793 4.38568C15.9197 4.62065 15.7534 5.02886 15.4172 5.02886L1.34615 5.02885C1.08594 5.02885 0.875 5.2398 0.875 5.50001C0.875 5.76022 1.08594 5.97116 1.34615 5.97116L15.4172 5.97117C15.7533 5.97117 15.9197 6.37938 15.6793 6.61435L13.0638 9.1707C12.8731 9.35708 12.8731 9.66385 13.0638 9.85023C13.2484 10.0307 13.5433 10.0307 13.7279 9.85023L17.7215 5.94695C17.9724 5.70177 17.9724 5.2982 17.7215 5.05301L13.7279 1.14977C13.5433 0.969331 13.2484 0.969331 13.0638 1.14977C12.8731 1.33614 12.8731 1.64292 13.0638 1.82929Z" fill="#F9D12D" stroke="#F9D12D" stroke-width="0.25"/>
</svg>
