<svg width="19" height="19" viewBox="0 0 19 19" fill="none" xmlns="http://www.w3.org/2000/svg">
<rect width="19" height="19" rx="9.5" fill="#FFBD13"/>
<g clip-path="url(#clip0_294_2014)">
<path d="M9.50011 4.47064C6.72679 4.47064 4.4707 6.72672 4.4707 9.50005C4.4707 12.2734 6.72679 14.5295 9.50011 14.5295C12.2734 14.5295 14.5295 12.2734 14.5295 9.50005C14.5295 6.72672 12.2734 4.47064 9.50011 4.47064ZM11.892 12.1015C11.8103 12.1832 11.703 12.2243 11.5957 12.2243C11.4884 12.2243 11.3811 12.1832 11.2994 12.1015L9.20381 10.0059C9.125 9.92759 9.08102 9.82107 9.08102 9.70964V6.98535C9.08102 6.75358 9.26874 6.56626 9.50011 6.56626C9.73149 6.56626 9.91921 6.75358 9.91921 6.98535V9.53612L11.892 11.5089C12.0559 11.6728 12.0559 11.9376 11.892 12.1015Z" fill="white"/>
</g>
<defs>
<clipPath id="clip0_294_2014">
<rect x="4.4707" y="4.47064" width="10.0588" height="10.0588" rx="5.02941" fill="white"/>
</clipPath>
</defs>
</svg>
