<svg width="13" height="14" viewBox="0 0 13 14" fill="none" xmlns="http://www.w3.org/2000/svg">
<path fill-rule="evenodd" clip-rule="evenodd" d="M6.19834 4.25024C6.49176 4.25024 6.72963 4.48811 6.72963 4.78153V8.051C6.72963 8.34442 6.49176 8.58228 6.19834 8.58228C5.90492 8.58228 5.66705 8.34442 5.66705 8.051V4.78153C5.66705 4.48811 5.90492 4.25024 6.19834 4.25024Z" fill="#4A4A4A"/>
<path d="M7.26095 8.32356C7.26095 8.91041 6.78522 9.38614 6.19838 9.38614C5.61153 9.38614 5.1358 8.91041 5.1358 8.32356C5.1358 7.73672 5.61153 7.26099 6.19838 7.26099C6.78522 7.26099 7.26095 7.73672 7.26095 8.32356Z" fill="#4A4A4A"/>
<path fill-rule="evenodd" clip-rule="evenodd" d="M4.20142 1.75345C5.44136 1.05598 6.95535 1.05598 8.19529 1.75345L10.3204 2.94884C11.603 3.67028 12.3967 5.02741 12.3967 6.49895V8.73144C12.3967 10.203 11.603 11.5601 10.3204 12.2815L8.19529 13.4769C6.95535 14.1744 5.44136 14.1744 4.20142 13.4769L2.07627 12.2815C0.793712 11.5601 0 10.203 0 8.73144V6.49895C0 5.02741 0.793712 3.67028 2.07627 2.94884L4.20142 1.75345ZM7.67435 2.67956C6.75788 2.16404 5.63884 2.16404 4.72236 2.67956L2.59721 3.87496C1.64923 4.4082 1.06258 5.41129 1.06258 6.49895V8.73144C1.06258 9.8191 1.64923 10.8222 2.59721 11.3554L4.72236 12.5508C5.63884 13.0663 6.75788 13.0663 7.67435 12.5508L9.7995 11.3554C10.7475 10.8222 11.3341 9.8191 11.3341 8.73144V6.49895C11.3341 5.41129 10.7475 4.4082 9.79951 3.87496L7.67435 2.67956Z" fill="#4A4A4A"/>
<path fill-rule="evenodd" clip-rule="evenodd" d="M4.5153 0.236639C4.67806 0.480781 4.61209 0.810641 4.36795 0.973403L2.2428 2.39017C1.99866 2.55293 1.6688 2.48696 1.50603 2.24282C1.34327 1.99868 1.40924 1.66881 1.65339 1.50605L3.77854 0.0892861C4.02268 -0.0734752 4.35254 -0.00750317 4.5153 0.236639Z" fill="#4A4A4A"/>
<path fill-rule="evenodd" clip-rule="evenodd" d="M7.88152 0.236639C8.04428 -0.00750317 8.37414 -0.0734752 8.61829 0.0892861L10.7434 1.50605C10.9876 1.66881 11.0536 1.99868 10.8908 2.24282C10.728 2.48696 10.3982 2.55293 10.154 2.39017L8.02888 0.973403C7.78473 0.810641 7.71876 0.480781 7.88152 0.236639Z" fill="#4A4A4A"/>
</svg>
