<svg width="17" height="20" viewBox="0 0 17 20" fill="none" xmlns="http://www.w3.org/2000/svg">
<g clip-path="url(#clip0_294_2631)">
<path d="M0 8.67202V8.82858C0.102394 9.09433 0.298046 9.17848 0.567163 9.17691C1.92112 9.16987 3.27545 9.17378 4.62979 9.17378H4.86769V9.44775C4.86769 12.7667 4.86769 16.0859 4.86769 19.4051C4.86769 19.8658 4.99788 20.0008 5.44133 20.0008H11.5728C12.0391 20.0008 12.1578 19.8795 12.1578 19.402V9.17339H12.4003C13.7483 9.17339 15.0961 9.17339 16.4439 9.17339C16.526 9.17589 16.6081 9.16867 16.6886 9.15187C16.9776 9.07985 17.0917 8.75617 16.917 8.50725C16.8707 8.44559 16.8198 8.38775 16.7648 8.33425C14.148 5.64149 11.5303 2.94938 8.91167 0.257927C8.81537 0.158905 8.69356 0.0861073 8.58356 0.00078392H8.39323C8.28132 0.093544 8.1599 0.176519 8.05903 0.280628C5.46633 2.95043 2.87666 5.62231 0.290052 8.29629C0.181187 8.41057 0.0970646 8.54599 0 8.67202Z" fill="white"/>
</g>
<defs>
<clipPath id="clip0_294_2631">
<rect width="17" height="20" fill="white" transform="matrix(1 0 0 -1 0 20)"/>
</clipPath>
</defs>
</svg>
