<svg width="11" height="13" viewBox="0 0 11 13" fill="none" xmlns="http://www.w3.org/2000/svg">
<path fill-rule="evenodd" clip-rule="evenodd" d="M5.50001 1.06452C4.61813 1.06452 3.90323 1.77942 3.90323 2.66129C3.90323 3.54316 4.61813 4.25806 5.50001 4.25806C6.38188 4.25806 7.09678 3.54316 7.09678 2.66129C7.09678 1.77942 6.38188 1.06452 5.50001 1.06452ZM2.83871 2.66129C2.83871 1.1915 4.03021 0 5.50001 0C6.9698 0 8.1613 1.1915 8.1613 2.66129C8.1613 4.13108 6.9698 5.32258 5.50001 5.32258C4.03021 5.32258 2.83871 4.13108 2.83871 2.66129Z" fill="#4A4A4A"/>
<path fill-rule="evenodd" clip-rule="evenodd" d="M5.4958 7.45146C4.07636 7.44025 2.82529 7.85563 1.87218 8.21234C1.38538 8.39454 1.06452 8.8791 1.06452 9.4449V11.887C1.06452 12.1809 0.826216 12.4192 0.532258 12.4192C0.2383 12.4192 0 12.1809 0 11.887V9.4449C0 8.48202 0.554151 7.56901 1.49905 7.21537C2.47721 6.84927 3.88055 6.37415 5.5042 6.38697C6.9418 6.39832 8.08405 6.78769 9.0795 7.12702C9.18426 7.16273 9.28739 7.19788 9.38906 7.23199C10.3852 7.56609 11 8.50832 11 9.5239V11.887C11 12.1809 10.7617 12.4192 10.4677 12.4192C10.1738 12.4192 9.93548 12.1809 9.93548 11.887V9.5239C9.93548 8.9302 9.58017 8.41888 9.05056 8.24125C8.94767 8.20674 8.84527 8.17196 8.74304 8.13723C7.73957 7.79637 6.75338 7.46138 5.4958 7.45146Z" fill="#4A4A4A"/>
</svg>
