<svg width="27" height="27" viewBox="0 0 27 27" fill="none" xmlns="http://www.w3.org/2000/svg">
<g clip-path="url(#clip0_294_2620)">
<path d="M-2.7319e-05 24.2833C0.0115958 24.1603 0.0327301 24.0379 0.034315 23.9149C0.0628446 21.8885 0.0899673 19.8618 0.115679 17.8346C0.124132 17.2578 0.474941 16.8927 0.975264 16.9793C1.15806 17.0103 1.34984 17.1343 1.48668 17.2691C2.23531 18.0068 2.96599 18.7616 3.70564 19.5116L7.53969 15.6258L11.1529 19.2823L7.32889 23.15L9.26362 25.1236C9.40574 25.269 9.55684 25.4064 9.68627 25.5625C9.7759 25.6644 9.83631 25.7891 9.86099 25.9231C9.88566 26.0572 9.87367 26.1955 9.82629 26.3232C9.77892 26.4509 9.69798 26.563 9.5922 26.6476C9.48642 26.7321 9.35983 26.7857 9.2261 26.8027C8.94979 26.8418 8.66555 26.8327 8.38501 26.8369C5.92566 26.8744 3.46631 26.9027 1.00749 26.9524C0.531999 26.962 0.192815 26.8108 -0.00213623 26.3644L-2.7319e-05 24.2833Z" fill="white"/>
<path d="M2.26757 2.08698e-06C2.4678 0.0133666 2.66804 0.0358189 2.8688 0.0384918C4.87185 0.0677155 6.87473 0.094979 8.87743 0.120282C8.9833 0.119961 9.08911 0.125314 9.19442 0.136319C9.50032 0.173205 9.71746 0.335717 9.8226 0.630805C9.92774 0.925892 9.87807 1.19586 9.66093 1.41984C9.19336 1.90097 8.72052 2.37941 8.24714 2.85626C7.94864 3.15723 7.6459 3.45338 7.33842 3.75863L11.1952 7.65838L7.59624 11.2999L3.76325 7.41622C3.67502 7.49801 3.61004 7.55307 3.55192 7.61348C2.86774 8.30415 2.18145 8.99269 1.50256 9.68925C1.24368 9.95654 0.954681 10.0741 0.600176 9.92981C0.245671 9.78547 0.124686 9.48664 0.118874 9.11832C0.0942189 6.99354 0.0676261 4.86859 0.0390966 2.74346C0.0390966 2.61196 0.0163839 2.47991 0.00476074 2.34841V0.586969C0.116939 0.322906 0.324944 0.112439 0.585917 -0.00106812L2.26757 2.08698e-06Z" fill="white"/>
<path d="M15.845 7.69954L19.6774 3.83506L18.6594 2.80546C18.2304 2.37245 17.8014 1.93909 17.3724 1.50537C17.1473 1.27764 17.0728 1.00767 17.1795 0.700292C17.2894 0.379544 17.5219 0.208478 17.851 0.189768C18.1802 0.171057 18.5183 0.171592 18.8517 0.166781C21.2587 0.131143 23.6654 0.0955039 26.0717 0.0598653C26.7152 0.0507775 27.0085 0.345864 26.9995 0.998051C26.9643 3.71799 26.9267 6.43811 26.8869 9.1584C26.8822 9.53528 26.7675 9.84373 26.3951 9.9886C26.0374 10.1276 25.7537 9.99662 25.4969 9.732C24.7641 8.97985 24.0224 8.23518 23.2653 7.47127L19.4645 11.3619L15.845 7.69954Z" fill="white"/>
<path d="M19.6563 23.2211L15.8254 19.355L19.418 15.7198L23.2404 19.6089C23.7339 19.1091 24.1914 18.6467 24.6495 18.18C24.9411 17.8844 25.2354 17.5919 25.5238 17.2926C25.7674 17.0397 26.0485 16.9398 26.3834 17.0681C26.7332 17.2017 26.8695 17.484 26.8753 17.8427C26.8933 19.0073 26.91 20.1718 26.9255 21.3361C26.9484 22.9185 26.9711 24.5008 26.9936 26.0832C27.0016 26.6985 26.6999 27.007 26.0955 26.9984C23.3989 26.9628 20.7025 26.9237 18.0063 26.8813C17.4251 26.8722 17.0685 26.529 17.1457 26.0233C17.1737 25.8384 17.2931 25.6416 17.4251 25.5037C18.122 24.7762 18.8363 24.0657 19.5443 23.3483C19.5807 23.3135 19.6119 23.2724 19.6563 23.2211Z" fill="white"/>
</g>
<defs>
<clipPath id="clip0_294_2620">
<rect width="27" height="27" fill="white"/>
</clipPath>
</defs>
</svg>
